<?xml version="1.0" encoding="iso-8859-1"?>
<!-- Generator: Adobe Illustrator 19.0.0, SVG Export Plug-In . SVG Version: 6.00 Build 0)  -->
<svg version="1.1" id="Capa_1" xmlns="http://www.w3.org/2000/svg" xmlns:xlink="http://www.w3.org/1999/xlink" x="0px" y="0px"
	 viewBox="0 0 60 60" style="enable-background:new 0 0 60 60;" xml:space="preserve">
<g>
	<path d="M60,13v-2.841C60,6.763,57.237,4,53.841,4H51c-0.552,0-1,0.448-1,1H39V2.837C39,1.273,37.727,0,36.163,0H23.837
		C22.273,0,21,1.273,21,2.837V5H10c0-0.552-0.448-1-1-1H6.159C2.763,4,0,6.763,0,10.159V13c0,0.552,0.448,1,1,1v36
		c-0.552,0-1,0.448-1,1v2.841C0,57.237,2.763,60,6.159,60H9c0.552,0,1-0.448,1-1h40c0,0.552,0.448,1,1,1h2.841
		C57.237,60,60,57.237,60,53.841V51c0-0.552-0.448-1-1-1V14C59.552,14,60,13.552,60,13z M53.841,6C56.134,6,58,7.866,58,10.159V12
		h-4h-2v-2V6H53.841z M51,50c-0.552,0-1,0.448-1,1v2H10v-2c0-0.552-0.448-1-1-1H7V28h46v22H51z M53,26H7V14h2c0.552,0,1-0.448,1-1
		v-2h40v2c0,0.552,0.448,1,1,1h2V26z M23,2.837C23,2.375,23.375,2,23.837,2h12.325C36.625,2,37,2.375,37,2.837V5H23V2.837z M22,7h16
		h12v2H10V7H22z M2,10.159C2,7.866,3.866,6,6.159,6H8v4v2H6H2V10.159z M3,14h2v13v23H3V14z M6.159,58C3.866,58,2,56.134,2,53.841V52
		h4h2v2v4H6.159z M10,57v-2h40v2H10z M58,53.841C58,56.134,56.134,58,53.841,58H52v-4v-2h2h4V53.841z M57,50h-2V27V14h2V50z"/>
	<path d="M22.536,14.464c-0.006-0.006-0.015-0.008-0.021-0.014C21.611,13.555,20.37,13,19,13c-2.757,0-5,2.243-5,5s2.243,5,5,5
		s5-2.243,5-5c0-1.37-0.555-2.611-1.451-3.515C22.544,14.479,22.542,14.47,22.536,14.464z M19,21c-1.654,0-3-1.346-3-3s1.346-3,3-3
		c0.462,0,0.894,0.113,1.285,0.301l-1.992,1.992c-0.391,0.391-0.391,1.023,0,1.414C18.488,18.902,18.744,19,19,19
		s0.512-0.098,0.707-0.293l1.992-1.992C21.887,17.106,22,17.538,22,18C22,19.654,20.654,21,19,21z"/>
	<path d="M35,13h-3c-0.552,0-1,0.448-1,1v3c0,0.552,0.448,1,1,1h3c0.552,0,1-0.448,1-1v-3C36,13.448,35.552,13,35,13z M34,16h-1v-1
		h1V16z"/>
	<path d="M35,19h-3c-0.552,0-1,0.448-1,1v3c0,0.552,0.448,1,1,1h3c0.552,0,1-0.448,1-1v-3C36,19.448,35.552,19,35,19z M34,22h-1v-1
		h1V22z"/>
	<path d="M41,13h-3c-0.552,0-1,0.448-1,1v3c0,0.552,0.448,1,1,1h3c0.552,0,1-0.448,1-1v-3C42,13.448,41.552,13,41,13z M40,16h-1v-1
		h1V16z"/>
	<path d="M41,19h-3c-0.552,0-1,0.448-1,1v3c0,0.552,0.448,1,1,1h3c0.552,0,1-0.448,1-1v-3C42,19.448,41.552,19,41,19z M40,22h-1v-1
		h1V22z"/>
	<path d="M47,13h-3c-0.552,0-1,0.448-1,1v3c0,0.552,0.448,1,1,1h3c0.552,0,1-0.448,1-1v-3C48,13.448,47.552,13,47,13z M46,16h-1v-1
		h1V16z"/>
	<path d="M47,19h-3c-0.552,0-1,0.448-1,1v3c0,0.552,0.448,1,1,1h3c0.552,0,1-0.448,1-1v-3C48,19.448,47.552,19,47,19z M46,22h-1v-1
		h1V22z"/>
	<circle cx="9" cy="30" r="1"/>
	<circle cx="15" cy="30" r="1"/>
	<circle cx="21" cy="30" r="1"/>
	<circle cx="27" cy="30" r="1"/>
	<circle cx="33" cy="30" r="1"/>
	<circle cx="39" cy="30" r="1"/>
	<circle cx="45" cy="30" r="1"/>
	<circle cx="51" cy="30" r="1"/>
	<circle cx="12" cy="33" r="1"/>
	<circle cx="18" cy="33" r="1"/>
	<circle cx="24" cy="33" r="1"/>
	<circle cx="30" cy="33" r="1"/>
	<circle cx="36" cy="33" r="1"/>
	<circle cx="42" cy="33" r="1"/>
	<circle cx="48" cy="33" r="1"/>
	<circle cx="9" cy="36" r="1"/>
	<circle cx="9" cy="42" r="1"/>
	<circle cx="12" cy="39" r="1"/>
	<circle cx="15" cy="36" r="1"/>
	<circle cx="15" cy="42" r="1"/>
	<circle cx="18" cy="39" r="1"/>
	<circle cx="21" cy="36" r="1"/>
	<circle cx="21" cy="42" r="1"/>
	<circle cx="24" cy="39" r="1"/>
	<circle cx="27" cy="36" r="1"/>
	<circle cx="27" cy="42" r="1"/>
	<circle cx="30" cy="39" r="1"/>
	<circle cx="33" cy="36" r="1"/>
	<circle cx="33" cy="42" r="1"/>
	<circle cx="36" cy="39" r="1"/>
	<circle cx="39" cy="36" r="1"/>
	<circle cx="39" cy="42" r="1"/>
	<circle cx="42" cy="39" r="1"/>
	<circle cx="45" cy="36" r="1"/>
	<circle cx="45" cy="42" r="1"/>
	<circle cx="48" cy="39" r="1"/>
	<circle cx="51" cy="36" r="1"/>
	<circle cx="51" cy="42" r="1"/>
	<circle cx="12" cy="45" r="1"/>
	<circle cx="18" cy="45" r="1"/>
	<circle cx="24" cy="45" r="1"/>
	<circle cx="30" cy="45" r="1"/>
	<circle cx="36" cy="45" r="1"/>
	<circle cx="42" cy="45" r="1"/>
	<circle cx="48" cy="45" r="1"/>
	<circle cx="9" cy="48" r="1"/>
	<circle cx="12" cy="51" r="1"/>
	<circle cx="15" cy="48" r="1"/>
	<circle cx="18" cy="51" r="1"/>
	<circle cx="21" cy="48" r="1"/>
	<circle cx="24" cy="51" r="1"/>
	<circle cx="27" cy="48" r="1"/>
	<circle cx="30" cy="51" r="1"/>
	<circle cx="33" cy="48" r="1"/>
	<circle cx="36" cy="51" r="1"/>
	<circle cx="39" cy="48" r="1"/>
	<circle cx="42" cy="51" r="1"/>
	<circle cx="45" cy="48" r="1"/>
	<circle cx="48" cy="51" r="1"/>
	<circle cx="51" cy="48" r="1"/>
</g>
<g>
</g>
<g>
</g>
<g>
</g>
<g>
</g>
<g>
</g>
<g>
</g>
<g>
</g>
<g>
</g>
<g>
</g>
<g>
</g>
<g>
</g>
<g>
</g>
<g>
</g>
<g>
</g>
<g>
</g>
</svg>
