<svg height="480pt" viewBox="-72 0 480 480" width="480pt" xmlns="http://www.w3.org/2000/svg"><path d="m100.6875 0-100.6875 100.6875v299.3125h16v-288h96v-96h208v368h16v-384zm-73.375 96 68.6875-68.6875v68.6875zm0 0"/><path d="m48 352h16v128h-16zm0 0"/><path d="m104 256h16v128h-16zm0 0"/><path d="m160 368h16v96h-16zm0 0"/><path d="m104 400h16v32h-16zm0 0"/><path d="m272 312h16v120h-16zm0 0"/><path d="m216 224h16v128h-16zm0 0"/><path d="m216 368h16v32h-16zm0 0"/><path d="m272 448h16v32h-16zm0 0"/><path d="m320 464h16v16h-16zm0 0"/><path d="m320 432h16v16h-16zm0 0"/><path d="m320 400h16v16h-16zm0 0"/><path d="m0 416h16v16h-16zm0 0"/></svg>