<?xml version="1.0" encoding="iso-8859-1"?>
<!-- Generator: Adobe Illustrator 18.1.1, SVG Export Plug-In . SVG Version: 6.00 Build 0)  -->
<svg version="1.1" id="Capa_1" xmlns="http://www.w3.org/2000/svg" xmlns:xlink="http://www.w3.org/1999/xlink" x="0px" y="0px"
	 viewBox="0 0 61.633 61.633" style="enable-background:new 0 0 61.633 61.633;" xml:space="preserve">
<g>
	<g>
		<path style="fill:#010002;" d="M1.013,30.711c-1.033,5.548,0.784,6.098,3.445,7.477l2.966-12.642
			C4.427,25.597,2.048,25.162,1.013,30.711z"/>
		<path style="fill:#010002;" d="M9.427,25.818L6.371,38.836c3.481,0.617,6.879-1.58,7.696-5.062
			C14.884,30.29,12.819,26.812,9.427,25.818z"/>
		<path style="fill:#010002;" d="M4.458,38.188l-0.946,4.035l1.957,0.461l0.902-3.848c-0.12-0.023-0.241-0.039-0.36-0.066
			C5.456,38.639,4.94,38.438,4.458,38.188z"/>
		<path style="fill:#010002;" d="M57.301,0.002c-4.139,0.134-8.277,0.27-12.414,0.404c-4.748,0.154-4.764,7.539,0,7.383
			c2.062-0.066,4.125-0.134,6.187-0.201c-1.204,2.142-2.509,4.259-3.954,6.243c-0.387-0.42-0.889-0.771-1.525-1.006
			c-5.256-1.933-10.662-3.807-15.941-5.934c0.325-1.623-0.601-3.264-2.213-3.775c-1.401-0.445-2.864,0.107-3.668,1.248
			c-2.017-0.93-4.001-1.91-5.926-2.979c-4.166-2.316-7.888,4.062-3.726,6.375c2.349,1.306,4.777,2.5,7.253,3.617l-4.907,15.471
			c-0.816,0.975-1.318,2.226-1.328,3.765c-0.012,1.872,1.037,3.948,2.62,5.204v22.529c0,1.816,1.472,3.287,3.288,3.287
			c1.814,0,3.285-1.471,3.285-3.287V36.48c9.206-1.662,17.303-5.72,24.065-12.482c0.453-0.452,0.804-0.925,1.082-1.407
			c4.609-4.858,8.087-11.245,11.009-17.034C61.694,3.169,60.253-0.095,57.301,0.002z M24.306,23.875l3.149-9.937
			c3.131,1.247,6.295,2.419,9.45,3.563C33.224,20.54,28.971,22.797,24.306,23.875z"/>
	</g>
</g>
<g>
</g>
<g>
</g>
<g>
</g>
<g>
</g>
<g>
</g>
<g>
</g>
<g>
</g>
<g>
</g>
<g>
</g>
<g>
</g>
<g>
</g>
<g>
</g>
<g>
</g>
<g>
</g>
<g>
</g>
</svg>
