<svg id="Capa_1" enable-background="new 0 0 512 512" height="512" viewBox="0 0 512 512" width="512" xmlns="http://www.w3.org/2000/svg"><g><path d="m493.422 80.686c-5.915 0-11.233 3.287-13.878 8.577l-19.76 39.52h-71.278c-9.274 0-18.48 2.348-26.623 6.789l-73.786 40.247-66.205-36.781-31.074-77.686-.004.002c-.077-.192-.157-.383-.25-.569l-14.334-28.683c-3.825-7.653-13.163-10.768-20.815-6.944l-47.456 23.714c-9.163 4.579-12.893 15.76-8.313 24.923 2.645 5.292 7.962 8.579 13.876 8.58l37.141.009 26.453 77.129c3.308 9.647 9.771 18.126 18.196 23.872l102.137 69.666-24.108 48.215c-.801 1.601-1.002 3.436-.568 5.173l8.553 34.211-30.136 14.794-15.797-13.938c1.251-3.879 1.91-7.97 1.91-12.164 0-10.551-4.108-20.471-11.569-27.931l-.091-.092c-7.46-7.46-17.379-11.569-27.931-11.569-5.892 0-11.586 1.284-16.766 3.715l-21.102-18.619 18.173-28.395 27.515 9.172c2.525.841 5.308.282 7.311-1.471l16.032-14.028c3.117-2.728 3.433-7.466.706-10.583-2.728-3.118-7.466-3.433-10.583-.705l-12.798 11.198-56.962-18.987c-8.136-2.712-16.609-4.087-25.186-4.087h-104.128c-10.986 0-19.924 8.938-19.924 19.925 0 10.452 8.17 19.185 18.599 19.88l106.095 7.073 43.865 38.704-10.195 10.195c-12.282 12.281-12.282 32.266 0 44.547l11.405 11.405c6.141 6.141 14.207 9.211 22.273 9.211 8.067 0 16.133-3.071 22.274-9.211l11.416-11.416c.762-.762 1.48-1.556 2.172-2.368l28.611 25.246v88.372c0 11.002 8.951 19.953 19.953 19.953 10.418 0 19.16-8.14 19.902-18.531l6.188-86.633c.722-10.099-.158-20.2-2.614-30.022l-11.949-47.795 38.097-76.194 66.836-53.075c3.244-2.576 3.785-7.294 1.209-10.538-2.577-3.244-7.295-3.786-10.538-1.209l-68.137 54.109c-.857.68-1.555 1.54-2.044 2.519l-9.203 18.406-100.455-68.518c-5.77-3.936-10.194-9.74-12.46-16.346l-25.132-73.289 13.75-6.871 29.038 72.595c.64 1.602 1.813 2.933 3.321 3.771l72.145 40.081c1.132.629 2.387.943 3.642.943 1.236 0 2.472-.305 3.591-.916l77.411-42.224c5.945-3.243 12.668-4.957 19.44-4.957h68.413v10.843l-34.233 4.075c-4.113.49-7.05 4.221-6.561 8.334.454 3.812 3.692 6.614 7.438 6.614.296 0 .595-.018.896-.053l48.422-5.765h23.603c8.556 0 15.516-6.961 15.516-15.517v-53.049c0-10.244-8.334-18.578-18.578-18.578zm-365.181 168.355-108.644-7.243c-2.578-.172-4.597-2.33-4.597-4.913 0-2.716 2.209-4.925 4.924-4.925h104.126c6.961 0 13.839 1.116 20.443 3.317l18.846 6.282-14.877 23.246-15.758-13.904c-1.242-1.096-2.811-1.749-4.463-1.86zm75.469 109.042c-6.435 6.434-16.902 6.433-23.335 0l-11.405-11.405c-6.433-6.433-6.433-16.901 0-23.334l11.417-11.417c4.627-4.627 10.78-7.176 17.324-7.176s12.697 2.549 17.324 7.176l.091.092c4.627 4.627 7.176 10.78 7.176 17.324s-2.548 12.696-7.176 17.324zm83.888 24.159-6.188 86.634c-.184 2.58-2.354 4.6-4.94 4.6-2.731 0-4.953-2.222-4.953-4.953v-91.756c0-2.152-.924-4.2-2.538-5.624l-5.622-4.96 21.689-10.647.348 1.393c2.071 8.281 2.812 16.798 2.204 25.313zm-127.024-314.855-47.05-.011c-.196 0-.373-.109-.461-.285-.882-1.765-.164-3.918 1.602-4.801l47.455-23.714c.254-.126.565-.023.692.231l10.981 21.974zm336.426 84.928c0 .285-.231.517-.516.517h-24.564v-14.778l21.041-42.082c.088-.176.265-.285.462-.285 1.973 0 3.578 1.605 3.578 3.578v53.05z"/></g></svg>