<svg height="512pt" viewBox="0 -86 512.001 512" width="512pt" xmlns="http://www.w3.org/2000/svg"><path d="m494.453125 80.660156h-24.21875v-55.347656c0-13.957031-11.355469-25.3125-25.3125-25.3125h-377.847656c-13.953125 0-25.308594 11.355469-25.308594 25.3125v55.347656h-24.21875c-9.675781 0-17.546875 7.871094-17.546875 17.542969v224.671875c0 9.675781 7.871094 17.546875 17.546875 17.546875h476.90625c9.675781 0 17.546875-7.871094 17.546875-17.546875v-224.671875c0-9.671875-7.871094-17.542969-17.546875-17.542969zm-437.648437-55.347656c0-5.664062 4.609374-10.273438 10.273437-10.273438h377.847656c5.664063 0 10.269531 4.609376 10.269531 10.273438v55.347656h-20.542968v-37.554687c0-4.152344-3.367188-7.519531-7.519532-7.519531h-342.265624c-4.152344 0-7.519532 3.367187-7.519532 7.519531v10.203125c0 4.152344 3.367188 7.519531 7.519532 7.519531 4.15625 0 7.523437-3.367187 7.523437-7.519531v-2.683594h327.222656v30.035156h-41.390625v-8.46875c0-6.914062-5.621094-12.535156-12.53125-12.535156h-28.867187c-6.910157 0-12.535157 5.621094-12.535157 12.535156v8.46875h-139.886718v-8.46875c0-6.914062-5.625-12.535156-12.535156-12.535156h-28.867188c-6.910156 0-12.53125 5.621094-12.53125 12.535156v8.46875h-73.664062zm282.523437 55.347656v-5.964844h23.855469v5.964844zm-193.820313 0v-5.964844h23.855469v5.964844zm351.453126 242.214844c0 1.382812-1.125 2.507812-2.507813 2.507812h-476.90625c-1.382813 0-2.507813-1.125-2.507813-2.507812v-224.671875c0-1.378906 1.125-2.503906 2.507813-2.503906h181.984375v178.996093c0 19.625 15.964844 35.59375 35.589844 35.59375h42.808594c19.625 0 35.59375-15.96875 35.59375-35.59375v-151.167968c0-4.15625-3.367188-7.523438-7.519532-7.523438-4.15625 0-7.519531 3.367188-7.519531 7.523438v151.167968c0 11.332032-9.222656 20.550782-20.554687 20.550782h-42.808594c-11.332032 0-20.554688-9.21875-20.554688-20.550782v-178.996093h279.886719c1.382813 0 2.507813 1.121093 2.507813 2.503906zm0 0"/><path d="m107.304688 125.847656c-26.53125 0-51.082032 12.035156-67.359376 33.019532-2.546874 3.28125-1.949218 8.003906 1.332032 10.550781 3.28125 2.542969 8.003906 1.949219 10.550781-1.332031 13.410156-17.289063 33.628906-27.199219 55.476563-27.199219 38.6875 0 70.164062 31.472656 70.164062 70.160156 0 38.691406-31.476562 70.164063-70.164062 70.164063s-70.164063-31.472657-70.164063-70.164063c0-5.371094.609375-10.726563 1.8125-15.910156.9375-4.046875-1.582031-8.085938-5.628906-9.023438-4.050781-.9375-8.085938 1.582031-9.023438 5.628907-1.457031 6.296874-2.199219 12.792968-2.199219 19.308593 0 46.980469 38.222657 85.199219 85.203126 85.199219 46.980468 0 85.203124-38.21875 85.203124-85.199219s-38.222656-85.203125-85.203124-85.203125zm0 0"/><path d="m138.128906 211.046875c0-16.996094-13.828125-30.824219-30.824218-30.824219-16.996094 0-30.824219 13.828125-30.824219 30.824219s13.828125 30.824219 30.824219 30.824219c16.996093 0 30.824218-13.824219 30.824218-30.824219zm-46.609375 0c0-8.703125 7.082031-15.785156 15.785157-15.785156 8.703124 0 15.785156 7.082031 15.785156 15.785156 0 8.707031-7.082032 15.785156-15.785156 15.785156-8.703126 0-15.785157-7.078125-15.785157-15.785156zm0 0"/><path d="m405.1875 125.847656c-46.980469 0-85.203125 38.21875-85.203125 85.199219 0 46.984375 38.222656 85.203125 85.203125 85.203125s85.203125-38.21875 85.203125-85.203125c0-46.980469-38.222656-85.199219-85.203125-85.199219zm0 155.363282c-38.6875 0-70.164062-31.472657-70.164062-70.160157s31.476562-70.164062 70.164062-70.164062 70.164062 31.476562 70.164062 70.164062-31.476562 70.160157-70.164062 70.160157zm0 0"/><path d="m405.1875 180.222656c-16.996094 0-30.824219 13.828125-30.824219 30.824219s13.828125 30.824219 30.824219 30.824219 30.824219-13.828125 30.824219-30.824219-13.828125-30.824219-30.824219-30.824219zm0 46.609375c-8.703125 0-15.785156-7.078125-15.785156-15.785156 0-8.703125 7.082031-15.785156 15.785156-15.785156s15.785156 7.082031 15.785156 15.785156c0 8.707031-7.082031 15.785156-15.785156 15.785156zm0 0"/><path d="m271.851562 243.695312h-30.648437c-11.136719 0-20.199219 9.0625-20.199219 20.199219v3.589844c0 11.136719 9.0625 20.199219 20.199219 20.199219h30.648437c11.136719 0 20.199219-9.0625 20.199219-20.199219v-3.589844c0-11.136719-9.0625-20.199219-20.199219-20.199219zm5.160157 23.789063c0 2.84375-2.316407 5.160156-5.160157 5.160156h-30.648437c-2.847656 0-5.160156-2.316406-5.160156-5.160156v-3.589844c0-2.84375 2.3125-5.160156 5.160156-5.160156h30.648437c2.84375 0 5.160157 2.316406 5.160157 5.160156zm0 0"/><path d="m271.851562 165.570312h-30.648437c-11.136719 0-20.199219 9.0625-20.199219 20.199219v3.589844c0 11.136719 9.0625 20.195313 20.199219 20.195313h30.648437c11.136719 0 20.199219-9.058594 20.199219-20.195313v-3.589844c0-11.136719-9.0625-20.199219-20.199219-20.199219zm5.160157 23.789063c0 2.84375-2.316407 5.15625-5.160157 5.15625h-30.648437c-2.847656 0-5.160156-2.3125-5.160156-5.15625v-3.589844c0-2.84375 2.3125-5.160156 5.160156-5.160156h30.648437c2.84375 0 5.160157 2.316406 5.160157 5.160156zm0 0"/><path d="m271.851562 112.882812h-30.648437c-11.136719 0-20.199219 9.0625-20.199219 20.199219v3.585938c0 11.136719 9.0625 20.199219 20.199219 20.199219h30.648437c11.136719 0 20.199219-9.0625 20.199219-20.199219v-3.585938c0-11.140625-9.0625-20.199219-20.199219-20.199219zm5.160157 23.785157c0 2.84375-2.316407 5.160156-5.160157 5.160156h-30.648437c-2.847656 0-5.160156-2.316406-5.160156-5.160156v-3.585938c0-2.84375 2.3125-5.160156 5.160156-5.160156h30.648437c2.84375 0 5.160157 2.316406 5.160157 5.160156zm0 0"/></svg>