<svg id="Capa_1" enable-background="new 0 0 512 512" height="512" viewBox="0 0 512 512" width="512" xmlns="http://www.w3.org/2000/svg"><g><path d="m100.959 409.659c36.959 0 67.027-30.069 67.027-67.029 0-36.976-30.068-67.058-67.027-67.058-36.976 0-67.057 30.082-67.057 67.058 0 36.959 30.081 67.029 67.057 67.029zm0-119.087c28.688 0 52.027 23.353 52.027 52.058 0 28.689-23.34 52.029-52.027 52.029-28.704 0-52.057-23.34-52.057-52.029 0-28.705 23.353-52.058 52.057-52.058z"/><path d="m100.959 373.261c16.89 0 30.63-13.741 30.63-30.631 0-16.906-13.74-30.66-30.63-30.66-16.905 0-30.659 13.754-30.659 30.66 0 16.89 13.754 30.631 30.659 30.631zm0-46.291c8.618 0 15.63 7.025 15.63 15.66 0 8.619-7.012 15.631-15.63 15.631-8.635 0-15.659-7.012-15.659-15.631 0-8.635 7.024-15.66 15.659-15.66z"/><path d="m343.985 342.629c0 36.96 30.081 67.029 67.056 67.029 36.976 0 67.057-30.069 67.057-67.029 0-36.976-30.081-67.058-67.057-67.058-36.975.001-67.056 30.083-67.056 67.058zm67.056-52.057c28.704 0 52.057 23.353 52.057 52.058 0 28.689-23.353 52.029-52.057 52.029-28.703 0-52.056-23.34-52.056-52.029 0-28.705 23.353-52.058 52.056-52.058z"/><path d="m155.521 256.668 83.169.057h.005c4.14 0 7.497-3.354 7.5-7.495.003-4.142-3.353-7.502-7.495-7.505l-80.464-.055v-30.471h195.529v30.471l-80.464.055c-4.143.003-7.498 3.363-7.495 7.505.003 4.141 3.359 7.496 7.5 7.495h.005l83.164-.057c6.776 0 12.29-5.526 12.29-12.319v-35.859c0-6.777-5.514-12.291-12.29-12.291h-200.95c-6.776 0-12.29 5.514-12.29 12.291v35.859c0 6.793 5.514 12.319 12.286 12.319z"/><path d="m447.863 256.668c16.671 0 30.234-13.563 30.234-30.235s-13.563-30.234-30.234-30.234-30.233 13.563-30.233 30.234 13.562 30.235 30.233 30.235zm0-45.469c8.4 0 15.234 6.834 15.234 15.234s-6.834 15.235-15.234 15.235c-8.399 0-15.233-6.834-15.233-15.235s6.834-15.234 15.233-15.234z"/><path d="m64.137 256.668c16.671 0 30.233-13.563 30.233-30.235s-13.562-30.234-30.233-30.234-30.234 13.563-30.234 30.234 13.563 30.235 30.234 30.235zm0-45.469c8.399 0 15.233 6.834 15.233 15.234s-6.834 15.235-15.233 15.235c-8.4 0-15.234-6.834-15.234-15.235s6.833-15.234 15.234-15.234z"/><path d="m499.058 162.296h-10.302v-92.424c0-22.861-18.611-41.46-41.487-41.46h-382.566c-22.86 0-41.459 18.599-41.459 41.46v92.424h-10.302c-7.136 0-12.942 5.806-12.942 12.942v255.41c0 7.137 5.806 12.942 12.942 12.942h8.913v27.538c0 6.871 5.577 12.46 12.432 12.46h443.397c6.87 0 12.46-5.59 12.46-12.46v-27.538h8.913c7.137 0 12.942-5.806 12.942-12.942v-255.41c.001-7.136-5.805-12.942-12.941-12.942zm-460.814-92.424c0-14.59 11.869-26.46 26.459-26.46h382.565c14.605 0 26.487 11.87 26.487 26.46v92.424h-25.025v-86.216c0-4.142-3.357-7.5-7.5-7.5h-167.641c-4.143 0-7.5 3.358-7.5 7.5s3.357 7.5 7.5 7.5h160.141v78.716h-30.213v-15.943c0-17.046-13.868-30.915-30.914-30.915h-233.207c-17.062 0-30.942 13.869-30.942 30.915v15.943h-30.213v-78.716h160.708c4.143 0 7.5-3.358 7.5-7.5s-3.357-7.5-7.5-7.5h-168.208c-4.143 0-7.5 3.358-7.5 7.5v86.216h-24.997zm350.274 76.481v15.943h-55.016v-31.858h39.102c8.775 0 15.914 7.139 15.914 15.915zm-70.016-15.915v31.858h-55.045v-31.858zm-70.045 0v31.858h-54.987v-31.858zm-69.987 0v31.858h-55.016v-15.943c0-8.775 7.151-15.915 15.942-15.915zm296.675 338.15h-438.29v-24.998h438.289v24.998zm-165.062-135.609v26.047h-108.166v-26.047zm-108.166-15v-26.076h108.166v26.076zm108.166 56.047v54.564h-108.166v-54.564zm186.917 54.564h-171.917v-139.112c0-6.934-5.641-12.574-12.574-12.574h-113.018c-6.934 0-12.574 5.641-12.574 12.574v139.112h-171.917v-251.294h482z"/><path d="m411.041 373.261c16.89 0 30.631-13.741 30.631-30.631 0-16.906-13.741-30.66-30.631-30.66-16.905 0-30.659 13.754-30.659 30.66 0 16.89 13.754 30.631 30.659 30.631zm0-46.291c8.619 0 15.631 7.025 15.631 15.66 0 8.619-7.012 15.631-15.631 15.631-8.635 0-15.659-7.012-15.659-15.631 0-8.635 7.024-15.66 15.659-15.66z"/></g></svg>