<svg id="icons" enable-background="new 0 0 64 64" height="512" viewBox="0 0 64 64" width="512" xmlns="http://www.w3.org/2000/svg"><path d="m63 21.5h-1.999v-10.001c0-.552-.447-1-1-1h-56.001c-.553 0-1 .448-1 1v10h-2c-.553 0-1 .448-1 1v30.001c0 .553.447 1 1 1h62c.553 0 1-.447 1-1v-30c0-.552-.447-1-1-1zm-4.999 0v-5.001h1v5.001zm-50.001 0v-5.001h48.001v5.001zm-3-9.001h54.001v2h-54.001zm0 4h1v5.001h-1zm26.99 7.001c-.548.005-.99.449-.99.998h-6c-.553 0-1 .448-1 1s.447 1 1 1h6c0 .552.447 1 1 1s1-.448 1-1h6c.553 0 1-.448 1-1s-.447-1-1-1h-6c0-.549-.442-.993-.99-.998h29.99v4h-60v-4zm3.017 24c-.002 0-.003-.001-.005-.001s-.003.001-.005.001h-5.992c-.002 0-.003-.001-.005-.001s-.003.001-.005.001h-2.995v-3h12v3zm2.993-5h-12v-7.001h12zm-12 7h2v2.001h-2zm4 0h4.002v2.001h-4.002zm6.002 0h1.998v2.001h-1.998zm1.998-16.001h-12v-3.999h12zm-36-3.999h22v22.001h-22zm38 22.001v-22.001h22v22.001z"/><path d="m13 30.498c-5.514 0-10 4.486-10 10.001 0 5.514 4.486 10 10 10s10-4.486 10-10c0-5.515-4.486-10.001-10-10.001zm0 18.001c-4.411 0-8-3.589-8-8 0-4.412 3.589-8.001 8-8.001s8 3.589 8 8.001c0 4.411-3.589 8-8 8z"/><path d="m13 36.499c-2.206 0-4 1.794-4 4s1.794 4 4 4 4-1.794 4-4-1.794-4-4-4zm0 6c-1.103 0-2-.897-2-2s.897-2 2-2 2 .897 2 2-.897 2-2 2z"/><path d="m51 30.498c-5.514 0-10 4.486-10 10.001 0 5.514 4.486 10 10 10s10-4.486 10-10c0-5.515-4.486-10.001-10-10.001zm0 18.001c-4.411 0-8-3.589-8-8 0-4.412 3.589-8.001 8-8.001s8 3.589 8 8.001c0 4.411-3.589 8-8 8z"/><path d="m51 36.499c-2.206 0-4 1.794-4 4s1.794 4 4 4 4-1.794 4-4-1.794-4-4-4zm0 6c-1.103 0-2-.897-2-2s.897-2 2-2 2 .897 2 2-.897 2-2 2z"/><path d="m29.501 41.499h4.998c1.379 0 2.5-1.121 2.5-2.5s-1.121-2.5-2.5-2.5c-1.376 0-2.493 1.116-2.499 2.49-.006-1.374-1.123-2.49-2.499-2.49-1.379 0-2.5 1.121-2.5 2.5s1.121 2.5 2.5 2.5zm2.449-2c.032-.158.049-.322.05-.49.001.168.018.332.05.49zm2.549-1c.275 0 .5.225.5.5s-.225.5-.5.5-.5-.225-.5-.5.225-.5.5-.5zm-4.998 0c.275 0 .5.225.5.5s-.225.5-.5.5-.5-.225-.5-.5.225-.5.5-.5z"/><path d="m5.031 26.498c.552 0 1-.448 1-1s-.448-1-1-1h-.01c-.552 0-.994.448-.994 1s.452 1 1.004 1z"/><path d="m8.031 26.498c.552 0 1-.448 1-1s-.448-1-1-1h-.01c-.552 0-.994.448-.994 1s.452 1 1.004 1z"/><path d="m11.031 26.498c.552 0 1-.448 1-1s-.448-1-1-1h-.011c-.552 0-.994.448-.994 1s.453 1 1.005 1z"/><path d="m14.031 26.498c.552 0 1-.448 1-1s-.448-1-1-1h-.011c-.552 0-.994.448-.994 1s.453 1 1.005 1z"/><path d="m58 26.498h2c.553 0 1-.448 1-1s-.447-1-1-1h-2c-.553 0-1 .448-1 1s.447 1 1 1z"/><path d="m53 26.498h2c.553 0 1-.448 1-1s-.447-1-1-1h-2c-.553 0-1 .448-1 1s.447 1 1 1z"/><path d="m48 26.498h2c.553 0 1-.448 1-1s-.447-1-1-1h-2c-.553 0-1 .448-1 1s.447 1 1 1z"/></svg>