<?xml version='1.0' encoding='iso-8859-1'?>
<!DOCTYPE svg PUBLIC '-//W3C//DTD SVG 1.1//EN' 'http://www.w3.org/Graphics/SVG/1.1/DTD/svg11.dtd'>
<svg version="1.1" xmlns="http://www.w3.org/2000/svg" viewBox="0 0 458 458" xmlns:xlink="http://www.w3.org/1999/xlink" enable-background="new 0 0 458 458">
  <g>
    <path d="m450.5,132h-116.93v-29.5c0-4.142-3.358-7.5-7.5-7.5h-194.14c-4.142,0-7.5,3.358-7.5,7.5v29.5h-116.93c-4.142,0-7.5,3.358-7.5,7.5v216c0,4.142 3.358,7.5 7.5,7.5h443c4.142,0 7.5-3.358 7.5-7.5v-216c0-4.142-3.358-7.5-7.5-7.5zm-311.07-22h179.14v22h-179.14v-22zm303.57,238h-428v-201h428v201z"/>
    <path d="m131.93,154.5h-104.43c-2.761,0-5,2.239-5,5v176c0,2.761 2.239,5 5,5h104.43c2.761,0 5-2.239 5-5v-176c0-2.761-2.239-5-5-5zm-5,176h-94.43v-166h94.43v166z"/>
    <path d="m321.07,159.5v176c0,2.761 2.239,5 5,5h104.43c2.761,0 5-2.239 5-5v-176c0-2.761-2.239-5-5-5h-104.43c-2.761,0-5,2.239-5,5zm10,5h94.43v166h-94.43v-166z"/>
    <path d="m79.715,326.5c24.813,0 45-20.187 45-45s-20.187-45-45-45-45,20.187-45,45 20.187,45 45,45zm0-80c19.299,0 35,15.701 35,35s-15.701,35-35,35-35-15.701-35-35 15.701-35 35-35z"/>
    <path d="m79.715,297.539c8.844,0 16.039-7.195 16.039-16.039s-7.195-16.039-16.039-16.039-16.039,7.195-16.039,16.039 7.195,16.039 16.039,16.039zm0-22.078c3.33,0 6.039,2.709 6.039,6.039s-2.709,6.039-6.039,6.039c-3.33,0-6.039-2.709-6.039-6.039s2.709-6.039 6.039-6.039z"/>
    <path d="m66.215,231.997c17.369,0 31.5-14.131 31.5-31.5s-14.131-31.5-31.5-31.5-31.5,14.131-31.5,31.5 14.131,31.5 31.5,31.5zm0-53c11.855,0 21.5,9.645 21.5,21.5s-9.645,21.5-21.5,21.5-21.5-9.645-21.5-21.5 9.645-21.5 21.5-21.5z"/>
    <path d="m66.215,215.454c8.248,0 14.957-6.709 14.957-14.957s-6.709-14.957-14.957-14.957-14.958,6.709-14.958,14.957 6.71,14.957 14.958,14.957zm0-19.914c2.733,0 4.957,2.224 4.957,4.957s-2.224,4.957-4.957,4.957-4.958-2.224-4.958-4.957 2.224-4.957 4.958-4.957z"/>
    <path d="m378.285,236.5c-24.813,0-45,20.187-45,45s20.187,45 45,45 45-20.187 45-45-20.187-45-45-45zm0,80c-19.299,0-35-15.701-35-35s15.701-35 35-35 35,15.701 35,35-15.702,35-35,35z"/>
    <path d="m378.285,265.461c-8.844,0-16.039,7.195-16.039,16.039s7.195,16.039 16.039,16.039 16.039-7.195 16.039-16.039-7.196-16.039-16.039-16.039zm0,22.078c-3.33,0-6.039-2.709-6.039-6.039s2.709-6.039 6.039-6.039c3.33,0 6.039,2.709 6.039,6.039s-2.709,6.039-6.039,6.039z"/>
    <path d="m391.785,168.997c-17.369,0-31.5,14.131-31.5,31.5s14.131,31.5 31.5,31.5 31.5-14.131 31.5-31.5-14.131-31.5-31.5-31.5zm0,53c-11.855,0-21.5-9.645-21.5-21.5s9.645-21.5 21.5-21.5 21.5,9.645 21.5,21.5-9.645,21.5-21.5,21.5z"/>
    <path d="m391.785,185.54c-8.248,0-14.957,6.709-14.957,14.957s6.709,14.957 14.957,14.957 14.958-6.709 14.958-14.957-6.711-14.957-14.958-14.957zm0,19.914c-2.733,0-4.957-2.224-4.957-4.957s2.224-4.957 4.957-4.957 4.958,2.224 4.958,4.957-2.225,4.957-4.958,4.957z"/>
    <path d="m220.602,264.5h-71.602c-2.761,0-5,2.239-5,5v66c0,2.761 2.239,5 5,5h71.602c2.761,0 5-2.239 5-5v-66c0-2.761-2.239-5-5-5zm-5,10v36h-61.602v-36h61.602zm-35.801,46v10h-7.5v-10h7.5zm10,0h7.5v10h-7.5v-10zm-35.801,0h8.301v10h-8.301v-10zm53.301,10v-10h8.301v10h-8.301z"/>
    <path d="m309,264.5h-71.603c-2.761,0-5,2.239-5,5v66c0,2.761 2.239,5 5,5h71.603c2.761,0 5-2.239 5-5v-66c0-2.761-2.239-5-5-5zm-5,10v36h-61.603v-36h61.603zm-35.8,46v10h-7.5v-10h7.5zm10,0h7.5v10h-7.5v-10zm-35.803,0h8.302v10h-8.302v-10zm53.303,10v-10h8.3v10h-8.3z"/>
    <path d="m171.803,298.499c1.32,0 2.6-0.53 3.53-1.46 0.93-0.93 1.47-2.22 1.47-3.54 0-1.32-0.54-2.6-1.47-3.53-0.93-0.93-2.21-1.47-3.53-1.47s-2.61,0.54-3.54,1.47c-0.93,0.92-1.46,2.21-1.46,3.53 0,1.32 0.53,2.61 1.46,3.54 0.93,0.93 2.22,1.46 3.54,1.46z"/>
    <path d="m197.803,298.499c1.31,0 2.6-0.53 3.53-1.46 0.93-0.93 1.47-2.22 1.47-3.54 0-1.32-0.54-2.61-1.47-3.54-0.93-0.93-2.22-1.46-3.53-1.46-1.32,0-2.61,0.53-3.54,1.46-0.93,0.93-1.46,2.22-1.46,3.54 0,1.32 0.53,2.61 1.46,3.54 0.93,0.93 2.22,1.46 3.54,1.46z"/>
    <path d="m260.203,298.499c1.31,0 2.6-0.53 3.53-1.46 0.93-0.93 1.47-2.22 1.47-3.54 0-1.32-0.54-2.6-1.47-3.53-0.93-0.94-2.22-1.47-3.53-1.47-1.32,0-2.61,0.53-3.54,1.47-0.93,0.93-1.46,2.21-1.46,3.53 0,1.32 0.53,2.61 1.46,3.54 0.93,0.93 2.22,1.46 3.54,1.46z"/>
    <path d="m286.203,298.499c1.31,0 2.6-0.53 3.53-1.46 0.93-0.94 1.47-2.22 1.47-3.54 0-1.32-0.54-2.6-1.47-3.53-0.93-0.93-2.22-1.47-3.53-1.47-1.32,0-2.61,0.54-3.54,1.47-0.93,0.93-1.46,2.21-1.46,3.53 0,1.32 0.53,2.6 1.46,3.54 0.93,0.93 2.22,1.46 3.54,1.46z"/>
    <path d="m309,154.5h-160c-2.761,0-5,2.239-5,5v15c0,2.761 2.239,5 5,5h160c2.761,0 5-2.239 5-5v-15c0-2.761-2.239-5-5-5zm-5,15h-150v-5h150v5z"/>
    <path d="m276.754,185.5h-95.508c-2.761,0-5,2.239-5,5v15c0,2.761 2.239,5 5,5h95.508c2.761,0 5-2.239 5-5v-15c0-2.761-2.239-5-5-5zm-5,15h-85.508v-5h85.508v5z"/>
    <path d="m164.267,236.5c0,9.098 7.402,16.5 16.5,16.5s16.5-7.402 16.5-16.5-7.402-16.5-16.5-16.5-16.5,7.402-16.5,16.5zm16.5-6.5c3.584,0 6.5,2.916 6.5,6.5s-2.916,6.5-6.5,6.5-6.5-2.916-6.5-6.5 2.916-6.5 6.5-6.5z"/>
    <path d="m245.5,236.5c0-9.098-7.402-16.5-16.5-16.5s-16.5,7.402-16.5,16.5 7.402,16.5 16.5,16.5 16.5-7.402 16.5-16.5zm-16.5,6.5c-3.584,0-6.5-2.916-6.5-6.5s2.916-6.5 6.5-6.5 6.5,2.916 6.5,6.5-2.916,6.5-6.5,6.5z"/>
    <path d="m260.732,236.5c0,9.098 7.402,16.5 16.5,16.5s16.5-7.402 16.5-16.5-7.402-16.5-16.5-16.5-16.5,7.402-16.5,16.5zm23,0c0,3.584-2.916,6.5-6.5,6.5s-6.5-2.916-6.5-6.5 2.916-6.5 6.5-6.5 6.5,2.916 6.5,6.5z"/>
  </g>
</svg>
