<svg id="Capa_1" enable-background="new 0 0 512 512" height="512" viewBox="0 0 512 512" width="512" xmlns="http://www.w3.org/2000/svg"><g><path d="m475.52 78.81-17.26-57.45c-1.9-6.3-5.69-11.68-10.97-15.55-5.11-3.75-11.4-5.81-17.721-5.81h-.01c-2.979 0-5.939.439-8.79 1.319-6.3 1.921-11.68 5.73-15.55 11.021-3.75 5.12-5.81 11.43-5.81 17.75 0 2.94.43 5.85 1.279 8.67l4.69 15.44s0 .01.01.01c-.01 0-.01 0-.01 0l-88.37 26.6c-5.09 1.54-9.88 3.86-14.24 6.91-4.359 3.05-8.18 6.75-11.37 11.01l-51.239 68.45-79.29-41.88-.37-90.42c-.04-9.33-3.7-18.08-10.3-24.66-6.61-6.57-15.381-10.2-24.7-10.2h-60.499c-8.01 0-15.55 3.13-21.21 8.79-5.67 5.66-8.79 13.19-8.79 21.21 0 .351 0 .75.02 1.2.16 3.97 1.101 7.811 2.8 11.42 1.641 3.45 3.891 6.521 6.69 9.12 5.7 5.32 13.15 8.26 20.97 8.26h15.73l.33 81.36c.04 8.56 2.29 17.02 6.51 24.46 4.22 7.45 10.33 13.72 17.65 18.14l77.333 46.671v114.544l-85.263 35.123c-11.801 4.861-21.206 13.938-26.483 25.556l-29.29 64.489c-.043.095-.085.189-.124.285-3.151 7.552-3.048 16.169.283 23.644 3.331 7.477 9.672 13.316 17.396 16.024 3.254 1.14 6.579 1.683 9.855 1.683 11.67 0 22.698-6.885 27.499-18.167l27.388-59.062 70.756-29.764h22.95v17.022c-12.136 9.131-20 23.65-20 39.973 0 27.57 22.43 50 50 50s50-22.43 50-50c0-16.323-7.864-30.842-20-39.973v-17.022h23.04l70.755 29.764 27.388 59.062c6.148 14.449 22.517 21.686 37.354 16.484 7.725-2.708 14.065-8.548 17.396-16.024 3.331-7.475 3.435-16.092.283-23.644-.039-.096-.081-.19-.124-.285l-29.29-64.489c-5.277-11.618-14.683-20.694-26.483-25.556l-85.262-35.123v-117.545l23.052-40.55c1.33-2.319 1.66-5.02.95-7.59-.7-2.58-2.37-4.72-4.7-6.04-1.5-.86-3.21-1.31-4.93-1.31-3.59 0-6.93 1.939-8.7 5.06l-21.489 37.79h-101.421l-79.779-48.15c-8.9-5.369-14.46-15.17-14.5-25.56l-.33-81.36c-.021-5.33-2.11-10.34-5.891-14.09-3.77-3.76-8.779-5.83-14.109-5.83h-15.74c-2.729 0-5.33-1.029-7.32-2.89-1.96-1.84-3.05-4.17-3.14-6.74 0 0-.01-.25-.01-.37.01-5.5 4.5-9.989 10-10h60.51c8.24 0 14.96 6.7 14.99 14.94l.39 96.42c.01 3.7 2.061 7.07 5.33 8.8l92.15 48.68c1.439.75 3.05 1.15 4.67 1.15 3.13 0 6.13-1.49 8.01-4l56.36-75.29c3.87-5.17 9.189-8.89 15.37-10.75l88.369-26.61c4.2-1.279 7.79-3.81 10.36-7.329 2.54-3.461 3.88-7.551 3.88-11.82 0-1.96-.29-3.92-.87-5.811l-4.68-15.42c-.29-.96-.43-1.899-.43-2.89.01-4.42 2.96-8.39 7.18-9.63l.05-.021h.01c.95-.3 1.9-.439 2.91-.439 4.38.01 8.311 2.93 9.55 7.109l17.25 57.44c.421 1.41.641 2.87.641 4.32-.01 6.55-4.38 12.449-10.63 14.34l-56.5 17.24c-2.551.779-4.65 2.51-5.91 4.859-1.25 2.36-1.51 5.07-.73 7.62.63 2.09 1.9 3.88 3.67 5.16 2.5 1.83 5.83 2.4 8.811 1.49.01 0 .01 0 .02-.011l56.48-17.229c7.31-2.25 13.56-6.68 18.05-12.84 4.35-5.96 6.74-13.28 6.74-20.63-.001-3.389-.501-6.778-1.481-10.058zm-182.462 176.202h-90.024v-20h90.024zm-45.058 236.988c-16.542 0-30-13.458-30-30s13.458-30 30-30 30 13.458 30 30-13.458 30-30 30zm0-80c-3.424 0-6.768.347-10 1.006 0 0 .026-18.273.021-18.409.214-5.326 4.602-9.597 9.979-9.597 5.514 0 10 4.486 10 10v18.006c-3.232-.659-6.576-1.006-10-1.006zm142.702-13.19c7.081 2.917 12.725 8.363 15.892 15.335l29.215 64.323c1.005 2.496.955 5.219-.143 7.683-1.116 2.505-3.156 4.384-5.744 5.29-4.923 1.728-10.355-.692-12.364-5.507-.05-.119-.102-.237-.156-.355l-29.09-62.734c-1.048-2.259-2.899-4.045-5.195-5.011l-76.181-32.046c-1.228-.517-2.546-.782-3.878-.782h-26.776c-4.127-11.643-15.244-20.006-28.282-20.006s-24.155 8.363-28.281 20.005h-26.685c-1.332 0-2.649.266-3.877.782l-76.183 32.046c-2.296.966-4.147 2.752-5.195 5.011l-29.09 62.734c-.055.118-.106.236-.156.355-2.009 4.814-7.442 7.234-12.364 5.507-2.588-.906-4.628-2.785-5.744-5.29-1.098-2.464-1.147-5.187-.143-7.683l29.215-64.323c3.167-6.972 8.811-12.418 15.892-15.335l91.454-37.673c3.746-1.543 6.191-5.194 6.191-9.246v-76.879h90.024v76.879c0 4.052 2.445 7.703 6.191 9.246z"/><circle cx="349.748" cy="143.149" r="10"/></g></svg>