<svg id="Capa_1" enable-background="new 0 0 512.02 512.02" height="512" viewBox="0 0 512.02 512.02" width="512" xmlns="http://www.w3.org/2000/svg"><path d="m506.154 54.347c-7.816-7.807-20.479-7.798-28.284.017l-75.452 75.544c-41.116-41.186-87.708-87.226-145.861-87.41-.118 0-.225 0-.343 0-55.839 0-113.383 43.066-147.745 74.276-3.502-3.387-8.957-4.799-15.58-3.432-13.438 2.772-26.58 15.914-29.353 29.353-1.423 6.896.167 12.523 3.862 16-52.707 59.919-73.686 111.952-65.784 162.163 8.089 51.399 45.875 92.772 87.227 134.123.087.087.175.173.264.259l9.012 8.685c3.877 3.736 8.878 5.599 13.877 5.599 5.121 0 10.24-1.956 14.141-5.855l82.922-82.896c7.621-7.619 7.836-19.905.486-27.786l-2.573-2.758c-35.672-42.101-63.979-86.975-79.728-126.396-16.138-40.396-12.033-57.69-10.124-59.88l.008-.008c2.122-1.916 19.403-6.051 60.098 10.422 34.966 14.153 74.297 38.22 112.304 68.572l-47.394 47.452c-7.806 7.815-7.799 20.479.017 28.284 3.905 3.9 9.019 5.85 14.134 5.85 5.122 0 10.245-1.956 14.15-5.866l235.736-236.028c7.806-7.816 7.798-20.479-.017-28.284zm-338.445 311.199-55.866 55.849c-35.542-35.842-64.778-69.032-70.715-106.754-5.065-32.189 7.253-67.176 38.447-107.918 2.381 9.551 5.728 19.811 10.04 30.738 15.906 40.305 43.42 85.367 78.094 128.085zm23.451-228.689c-11.473-4.594-22.205-8.109-32.166-10.569 35.881-27.96 70.396-43.791 97.221-43.791h.215c41.765.132 82.065 39.995 117.721 75.712l-56.194 56.263c-42.454-34.365-86.992-61.674-126.797-77.615z"/></svg>