<svg id="Layer_1" enable-background="new 0 0 512 512" height="512" viewBox="0 0 512 512" width="512" xmlns="http://www.w3.org/2000/svg"><g><path d="m496 512h-24c-8.836 0-16-7.164-16-16s7.164-16 16-16h24c8.836 0 16 7.164 16 16s-7.164 16-16 16z"/><path d="m40 512h-24c-8.836 0-16-7.164-16-16s7.164-16 16-16h24c8.836 0 16 7.164 16 16s-7.164 16-16 16z"/><path d="m416 512h-320c-8.836 0-16-7.164-16-16s7.164-16 16-16h320c8.836 0 16 7.164 16 16s-7.164 16-16 16z"/><path d="m256 443.552c-11.78 0-23.56-4.484-32.527-13.452l-134.786-134.787c-10.503-10.502-16.287-24.463-16.287-39.313 0-14.708 5.688-28.573 16.017-39.042 10.31-10.451 24.214-16.233 39.151-16.284h.189c14.966 0 29.552 6.009 40.05 16.507l32.193 32.192v-193.373c0-30.878 25.122-56 56-56s56 25.122 56 56v193.373l32.687-32.687c10.501-10.502 24.463-16.286 39.313-16.286 14.708 0 28.573 5.688 39.042 16.017 10.45 10.31 16.233 24.214 16.284 39.151.051 15.032-5.966 29.698-16.507 40.24l-134.292 134.292c-8.967 8.968-20.747 13.452-32.527 13.452zm-128.239-210.879c-.028 0-.056 0-.084 0-6.349.021-12.202 2.421-16.479 6.758-4.383 4.443-6.797 10.327-6.797 16.569 0 6.302 2.456 12.228 6.914 16.686l134.785 134.787c5.459 5.459 14.341 5.459 19.8 0l134.292-134.292c4.556-4.557 7.157-10.937 7.134-17.504-.021-6.349-2.421-12.202-6.758-16.479-4.443-4.383-10.327-6.797-16.569-6.797-6.302 0-12.228 2.456-16.687 6.914l-60 60c-4.575 4.577-11.456 5.945-17.437 3.469-5.977-2.478-9.875-8.313-9.875-14.784v-232c0-13.234-10.767-24-24-24-13.234 0-24 10.766-24 24v232c0 6.471-3.898 12.306-9.877 14.782-5.978 2.476-12.861 1.108-17.437-3.469l-59.506-59.505c-4.536-4.537-10.882-7.135-17.419-7.135z"/></g></svg>