<svg id="Layer_1" enable-background="new 0 0 64 64" height="512" viewBox="0 0 64 64" width="512" xmlns="http://www.w3.org/2000/svg"><circle cx="47" cy="12.001" r=".5"/><path d="m53.144 11.5h-4.144c-.276 0-.5.224-.5.5s.224.5.5.5h4.144c1.299 0 2.356 1.057 2.356 2.355v30.289c0 1.299-1.057 2.355-2.356 2.355h-4.644v-7.499-8-5.872c0-1.449-1.179-2.628-2.628-2.628h-5.872-8-8-5.872c-1.449 0-2.628 1.179-2.628 2.628v5.872 2c0 .276.224.5.5.5s.5-.224.5-.5v-1.5h7v7h-7v-2.5c0-.276-.224-.5-.5-.5s-.5.224-.5.5v3 7.5h-4.644c-1.299 0-2.356-1.057-2.356-2.355v-30.29c0-1.299 1.057-2.355 2.356-2.355h34.144c.276 0 .5-.224.5-.5s-.224-.5-.5-.5h-34.144c-1.851 0-3.356 1.505-3.356 3.355v30.289c0 1.851 1.505 3.355 3.356 3.355h5.144 8 8 8 8 5.144c1.851 0 3.356-1.505 3.356-3.355v-30.289c0-1.85-1.505-3.355-3.356-3.355zm-28.644 21h7v7h-7zm8 0h7v7h-7zm8 0h7v7h-7zm7-6.372v5.372h-7v-7h5.372c.898 0 1.628.73 1.628 1.628zm-8 5.372h-7v-7h7zm-8 0h-7v-7h7zm-15 0v-5.372c0-.897.73-1.628 1.628-1.628h5.372v7zm0 9h7v7h-7zm8 0h7v7h-7zm8 0h7v7h-7zm8 7v-7h7v7z"/><path d="m17 21.5c1.93 0 3.5-1.57 3.5-3.5s-1.57-3.5-3.5-3.5-3.5 1.57-3.5 3.5 1.57 3.5 3.5 3.5zm-.5-5.949v1.449c0 .276.224.5.5.5s.5-.224.5-.5v-1.449c1.14.232 2 1.242 2 2.449 0 1.379-1.122 2.5-2.5 2.5s-2.5-1.121-2.5-2.5c0-1.208.86-2.217 2-2.449z"/><path d="m23.525 15.525c-.661.661-1.025 1.539-1.025 2.475s.364 1.814 1.025 2.475 1.54 1.025 2.475 1.025 1.813-.364 2.475-1.025 1.025-1.54 1.025-2.475c0-.936-.364-1.814-1.025-2.475-1.322-1.322-3.628-1.322-4.95 0zm4.243 4.243c-.944.945-2.591.945-3.535 0-.473-.472-.733-1.1-.733-1.768s.26-1.296.732-1.768c.473-.472 1.101-.732 1.768-.732.498 0 .973.145 1.378.414l-1.025 1.025c-.195.195-.195.512 0 .707.098.098.226.146.354.146s.256-.049.354-.146l1.025-1.025c.269.406.414.881.414 1.379 0 .668-.26 1.296-.732 1.768z"/><path d="m33.5 18c0 1.93 1.57 3.5 3.5 3.5s3.5-1.57 3.5-3.5-1.57-3.5-3.5-3.5-3.5 1.57-3.5 3.5zm6 0c0 1.379-1.122 2.5-2.5 2.5s-2.5-1.121-2.5-2.5c0-1.208.86-2.217 2-2.449v1.449c0 .276.224.5.5.5s.5-.224.5-.5v-1.449c1.14.232 2 1.241 2 2.449z"/><path d="m43.525 15.525c-.661.661-1.025 1.539-1.025 2.475s.364 1.814 1.025 2.475 1.54 1.025 2.475 1.025 1.814-.364 2.475-1.025 1.025-1.539 1.025-2.475c0-.935-.364-1.813-1.025-2.475-1.324-1.323-3.629-1.322-4.95 0zm4.243 4.243c-.944.945-2.591.945-3.535 0-.473-.472-.733-1.1-.733-1.768 0-.498.145-.973.415-1.378l1.025 1.025c.098.098.226.146.354.146s.256-.049.354-.146c.195-.195.195-.512 0-.707l-1.025-1.025c.404-.27.879-.415 1.377-.415.667 0 1.295.26 1.768.732.472.472.732 1.1.732 1.768s-.26 1.296-.732 1.768z"/><path d="m14.5 25.373c0-.481-.392-.873-.873-.873h-1.127v-1.5c0-.276-.224-.5-.5-.5s-.5.224-.5.5v1.5h-1.127c-.481 0-.873.392-.873.873v1.254c0 .481.392.873.873.873h1.127v4.5c0 .276.224.5.5.5s.5-.224.5-.5v-4.5h1.127c.481 0 .873-.392.873-.873zm-1 1.127h-3v-1h3z"/><path d="m12 45.5c.276 0 .5-.224.5-.5v-3.5h1.127c.481 0 .873-.392.873-.873v-1.254c0-.481-.392-.873-.873-.873h-1.127v-2.5c0-.276-.224-.5-.5-.5s-.5.224-.5.5v2.5h-1.127c-.481 0-.873.392-.873.873v1.254c0 .481.392.873.873.873h1.127v3.5c0 .276.224.5.5.5zm-1.5-6h3v1h-3z"/><path d="m52 24.5c-1.378 0-2.5 1.121-2.5 2.5s1.122 2.5 2.5 2.5 2.5-1.121 2.5-2.5-1.122-2.5-2.5-2.5zm0 4c-.827 0-1.5-.673-1.5-1.5s.673-1.5 1.5-1.5 1.5.673 1.5 1.5-.673 1.5-1.5 1.5z"/><path d="m52 31.5c-1.378 0-2.5 1.121-2.5 2.5s1.122 2.5 2.5 2.5 2.5-1.121 2.5-2.5-1.122-2.5-2.5-2.5zm0 4c-.827 0-1.5-.673-1.5-1.5s.673-1.5 1.5-1.5 1.5.673 1.5 1.5-.673 1.5-1.5 1.5z"/><path d="m52 38.5c-1.378 0-2.5 1.121-2.5 2.5s1.122 2.5 2.5 2.5 2.5-1.121 2.5-2.5-1.122-2.5-2.5-2.5zm0 4c-.827 0-1.5-.673-1.5-1.5s.673-1.5 1.5-1.5 1.5.673 1.5 1.5-.673 1.5-1.5 1.5z"/></svg>