<?xml version="1.0" encoding="iso-8859-1"?>
<!-- Generator: Adobe Illustrator 19.0.0, SVG Export Plug-In . SVG Version: 6.00 Build 0)  -->
<svg version="1.1" id="Capa_1" xmlns="http://www.w3.org/2000/svg" xmlns:xlink="http://www.w3.org/1999/xlink" x="0px" y="0px"
	 viewBox="0 0 512 512" style="enable-background:new 0 0 512 512;" xml:space="preserve">
<path style="fill:#00A5C7;" d="M288.697,288.699l-3.534,71.561l63.107-11.988l145.496-145.496c14.324-14.324,14.324-37.548,0-51.871
	l-33.636-33.636L288.697,288.699z"/>
<path style="fill:#BF4E57;" d="M288.697,288.699L117.265,460.13l33.636,33.636c14.324,14.324,37.548,14.324,51.871,0L348.269,348.27
	L288.697,288.699z"/>
<path style="fill:#42C3E2;" d="M309.221,18.237L163.728,163.73l37.903,112.999l112.999,37.903l145.493-145.493
	c14.329-14.329,14.329-37.55,0.007-51.871L361.092,18.23C346.771,3.908,323.55,3.908,309.221,18.237z"/>
<path style="fill:#DC5A64;" d="M163.728,163.73l150.901,150.901L169.137,460.124c-14.329,14.329-37.55,14.329-51.871,0.007
	l-99.037-99.037c-14.322-14.322-14.322-37.543,0.007-51.871L163.728,163.73z"/>
<path d="M298.493,84.097l-7.697,7.697c-2.929,2.929-2.929,7.678,0,10.606c2.853,2.852,7.694,2.913,10.606,0l7.697-7.697
	c2.929-2.929,2.929-7.678,0-10.606C306.171,81.168,301.422,81.168,298.493,84.097z"/>
<path d="M381.163,189.663c1.919,0,3.839-0.732,5.303-2.197l7.697-7.697c2.929-2.929,2.929-7.678,0-10.606
	c-2.929-2.929-7.678-2.929-10.606,0l-7.697,7.697c-2.929,2.929-2.929,7.678,0,10.606
	C377.324,188.93,379.243,189.663,381.163,189.663z"/>
<path d="M349.161,142.108c-3.381,0.226-6.775-1.112-9.335-3.673c-2.561-2.561-3.899-5.963-3.673-9.335
	c0.278-4.133-2.847-7.708-6.98-7.986c-4.144-0.289-7.708,2.848-7.986,6.98c-0.517,7.691,2.411,15.327,8.032,20.948
	c5.467,5.467,13.204,8.553,20.948,8.033c4.133-0.277,7.258-3.853,6.981-7.985C356.87,144.957,353.297,141.839,349.161,142.108z"/>
<path d="M465.423,111.874c0,0-98.968-98.968-99.037-99.037c-17.03-17.03-45.472-16.999-62.478,0.007L64.976,251.775
	c-2.929,2.929-2.929,7.678,0,10.606c2.929,2.929,7.678,2.929,10.606,0l88.135-88.135l140.296,140.296
	c0,0-140.172,140.171-140.191,140.189c-6.56,6.56-16.059,9.62-25.217,8.175c-6.056-0.955-11.709-3.859-16.055-8.176l-99.029-99.029
	c-11.374-11.374-11.371-29.885,0.007-41.264l31.034-31.034c2.929-2.929,2.929-7.678,0-10.606c-2.929-2.929-7.678-2.929-10.606,0
	l-31.034,31.034c-17.227,17.228-17.23,45.254-0.007,62.478l132.674,132.673c8.344,8.344,19.439,12.94,31.239,12.94
	s22.895-4.595,31.239-12.94L499.059,207.99c8.344-8.344,12.941-19.439,12.941-31.239c0-11.8-4.596-22.895-12.941-31.239
	L465.423,111.874z M197.461,488.375c-5.511,5.511-12.839,8.546-20.632,8.546s-15.122-3.035-20.632-8.546l-10.18-10.18
	c7.727-0.485,15.067-2.964,21.439-7.171c0.032-0.021,4.879-3.588,6.975-5.685l140.19-140.189l23.033,23.033L197.461,488.375z
	 M488.452,197.383L348.26,337.576l-23.033-23.033l30.306-30.307c2.929-2.929,2.929-7.678,0-10.606
	c-2.929-2.929-7.678-2.929-10.606,0l-30.306,30.307L174.325,163.641c0,0,140.069-140.068,140.19-140.189
	c11.257-11.257,30.014-11.256,41.263-0.007l99.037,99.037c5.51,5.51,8.544,12.836,8.543,20.629s-3.037,15.123-8.55,20.635
	l-89.016,89.017c-2.929,2.929-2.929,7.678,0,10.606c2.929,2.929,7.678,2.929,10.606,0l89.016-89.017
	c3.178-3.178,5.883-6.855,7.963-10.838c2.834-5.426,4.51-11.466,4.892-17.576l10.18,10.181c5.511,5.511,8.546,12.838,8.546,20.632
	S493.963,191.872,488.452,197.383z"/>
<g>
</g>
<g>
</g>
<g>
</g>
<g>
</g>
<g>
</g>
<g>
</g>
<g>
</g>
<g>
</g>
<g>
</g>
<g>
</g>
<g>
</g>
<g>
</g>
<g>
</g>
<g>
</g>
<g>
</g>
</svg>
