<?xml version="1.0" standalone="no"?>
<!DOCTYPE svg PUBLIC "-//W3C//DTD SVG 20010904//EN"
 "http://www.w3.org/TR/2001/REC-SVG-20010904/DTD/svg10.dtd">
<svg version="1.0" xmlns="http://www.w3.org/2000/svg"
 width="1280.000000pt" height="1088.000000pt" viewBox="0 0 1280.000000 1088.000000"
 preserveAspectRatio="xMidYMid meet">
<metadata>
Created by potrace 1.15, written by Peter Selinger 2001-2017
</metadata>
<g transform="translate(0.000000,1088.000000) scale(0.100000,-0.100000)"
fill="#000000" stroke="none">
<path d="M7490 8474 c-69 -7 -208 -16 -310 -19 -102 -3 -241 -12 -310 -21
-105 -13 -249 -15 -915 -12 -614 3 -798 7 -825 17 -56 20 -986 18 -1143 -3
-97 -13 -228 -16 -730 -16 -492 0 -630 -3 -702 -15 -119 -20 -454 -20 -561 -1
-44 8 -149 17 -234 21 -85 3 -189 10 -230 15 -109 13 -234 12 -248 -2 -18 -18
-17 -1919 1 -2004 9 -44 12 -234 12 -744 0 -503 -3 -704 -12 -757 -10 -53 -13
-261 -13 -792 0 -541 -3 -732 -12 -767 -12 -45 -12 -47 15 -68 l27 -22 1 -189
c0 -105 4 -199 8 -209 4 -11 30 -32 57 -46 42 -22 64 -48 151 -171 56 -79 120
-161 143 -182 l41 -39 227 6 c125 3 261 10 302 15 41 5 289 10 551 10 418 1
495 3 625 21 139 19 207 20 1003 20 835 0 854 0 886 -20 32 -20 32 -20 50 0
17 19 31 20 204 20 102 0 206 5 231 11 60 14 235 26 575 39 340 14 1389 7
1455 -9 59 -14 596 -14 692 0 40 5 170 14 288 19 184 7 235 13 354 39 145 33
286 52 286 40 0 -4 -16 -17 -35 -29 -39 -24 -45 -54 -14 -70 12 -7 97 -13 207
-15 103 -1 190 -3 194 -4 4 -1 14 -16 23 -35 9 -18 27 -38 41 -45 42 -19 102
-25 119 -11 19 16 10 30 -18 30 -12 0 -38 5 -58 10 -30 8 -40 18 -53 50 l-16
40 -167 1 c-93 1 -181 4 -198 8 l-30 7 30 19 c17 10 43 30 58 44 l28 26 227 2
c172 1 261 -3 367 -17 85 -12 227 -21 360 -23 128 -3 232 -9 248 -16 38 -15
116 -14 212 4 44 8 118 15 165 15 97 1 117 9 158 66 40 55 45 74 25 109 -14
24 -19 68 -24 235 -3 113 -12 237 -18 277 -16 99 -10 1789 7 1883 40 219 46
306 50 723 3 391 2 428 -18 555 -20 125 -21 166 -17 472 3 251 8 362 21 445
10 61 22 137 27 170 5 33 12 111 16 173 4 83 9 115 19 119 19 7 17 27 -5 64
-11 18 -27 61 -37 96 l-17 64 -125 97 c-68 53 -148 116 -178 140 -48 38 -60
43 -111 45 -32 1 -110 -6 -173 -17 -118 -19 -227 -17 -300 4 -19 6 -105 15
-190 20 -147 9 -313 26 -497 51 -49 7 -305 12 -625 14 -422 2 -572 6 -673 19
-165 20 -756 20 -945 0z m855 -95 c39 -6 336 -14 660 -18 454 -6 622 -12 730
-25 271 -32 311 -36 465 -46 85 -5 171 -14 190 -20 70 -23 272 -20 433 5 l48
7 -4 -273 c-2 -151 -10 -626 -16 -1057 -12 -749 -12 -784 5 -803 16 -18 17
-27 6 -90 -7 -38 -12 -124 -12 -192 0 -67 -9 -194 -20 -281 -29 -229 -29 -822
0 -1072 10 -95 19 -223 19 -286 0 -63 7 -154 16 -202 10 -60 15 -154 15 -291
0 -139 5 -228 15 -282 9 -47 15 -136 15 -224 l0 -146 -317 4 c-281 4 -397 10
-536 30 -43 6 -46 10 -123 143 -79 138 -138 255 -178 355 -21 50 -56 114 -82
148 -35 43 -53 80 -69 136 -12 42 -36 98 -53 125 -18 28 -32 56 -32 63 0 18
-28 30 -94 38 -35 4 -71 15 -88 28 -26 20 -47 22 -226 29 -108 4 -217 12 -242
17 -60 13 -2015 13 -2090 0 -30 -6 -266 -14 -525 -19 -315 -5 -513 -13 -600
-24 -104 -13 -247 -16 -715 -16 -322 -1 -607 -5 -635 -10 -27 -6 -183 -14
-345 -20 -162 -5 -331 -14 -375 -20 -98 -13 -244 -28 -393 -40 -62 -5 -122
-15 -135 -22 -12 -7 -60 -15 -107 -18 l-85 -5 -3 -35 c-3 -39 -54 -201 -84
-269 -11 -24 -37 -93 -59 -155 -22 -61 -46 -127 -54 -146 -8 -19 -14 -49 -15
-66 0 -17 -6 -50 -14 -72 -8 -23 -22 -105 -31 -184 -9 -79 -20 -146 -24 -151
-4 -4 -257 -6 -562 -5 l-554 3 -3 38 c-3 29 -9 40 -33 52 l-29 16 0 205 c0
181 -2 210 -19 247 -19 41 -19 69 -17 677 3 512 6 660 19 765 24 193 24 1335
0 1510 -14 103 -16 247 -18 1007 -2 640 1 890 9 896 6 5 79 3 166 -4 85 -7
196 -13 247 -13 50 -1 127 -8 170 -16 107 -20 525 -21 638 0 64 11 205 14 695
15 506 1 635 4 730 17 84 11 225 17 528 20 381 4 423 3 541 -16 121 -20 166
-21 917 -21 647 1 810 4 904 16 63 8 225 20 360 25 135 5 277 13 315 18 104
12 679 12 760 0z m2726 -224 c38 -31 69 -58 69 -60 0 -3 -36 -5 -79 -5 -56 0
-80 4 -84 13 -8 20 4 107 15 107 5 0 40 -25 79 -55z m-41 -131 c0 -30 -43
-184 -51 -184 -5 0 -9 43 -9 95 0 78 3 96 17 103 21 12 43 5 43 -14z m175 6
c8 -7 15 -21 15 -31 0 -18 -11 -24 -72 -34 -35 -7 -37 -6 -46 26 -13 47 2 62
50 56 22 -3 45 -11 53 -17z m39 -106 c8 -21 8 -74 -1 -74 -12 0 -83 52 -83 62
0 10 37 26 61 27 9 1 20 -6 23 -15z m-2 -176 c-9 -9 -12 -7 -12 12 0 19 3 21
12 12 9 -9 9 -15 0 -24z m-9 -108 c-3 -11 -9 -20 -14 -20 -10 0 -12 33 -3 43
12 12 22 -3 17 -23z m-266 -112 c-2 -24 -4 -7 -4 37 0 44 2 63 4 43 2 -21 2
-57 0 -80z m91 18 c-2 -15 -7 -28 -13 -29 -12 -2 -19 38 -10 60 9 25 27 1 23
-31z m154 -8 c2 -6 0 -39 -4 -72 -5 -34 -12 -88 -16 -120 -7 -61 -23 -81 -40
-49 -9 17 15 191 33 236 8 20 22 22 27 5z m-245 -160 c-3 -7 -5 -2 -5 12 0 14
2 19 5 13 2 -7 2 -19 0 -25z m78 -38 c3 -5 2 -10 -4 -10 -5 0 -13 5 -16 10 -3
6 -2 10 4 10 5 0 13 -4 16 -10z m-78 -127 c-2 -16 -4 -5 -4 22 0 28 2 40 4 28
2 -13 2 -35 0 -50z m103 40 c0 -20 -24 -11 -28 10 -2 12 1 15 12 11 9 -3 16
-13 16 -21z m115 -78 c-1 -58 -16 -65 -48 -23 -28 38 -17 80 21 76 25 -3 27
-6 27 -53z m-103 -170 c0 -5 -5 -11 -11 -13 -6 -2 -11 4 -11 13 0 9 5 15 11
13 6 -2 11 -8 11 -13z m72 -51 c30 -29 33 -49 34 -194 1 -156 -2 -180 -23
-180 -14 0 -85 75 -85 90 0 6 14 13 30 17 40 8 48 23 22 41 l-22 14 21 17 c19
15 20 20 8 64 -7 28 -21 55 -35 66 -28 22 -30 38 -7 63 20 22 37 23 57 2z
m-144 -118 c0 -18 -7 -39 -15 -46 -11 -9 -12 -17 -4 -31 6 -12 6 -25 0 -37 -6
-12 -5 -25 5 -42 18 -33 18 -90 0 -90 -31 0 -38 28 -34 138 2 73 7 114 17 125
21 26 31 20 31 -17z m101 -272 c12 -14 11 -16 -5 -13 -11 2 -21 10 -24 17 -5
17 13 15 29 -4z m9 -87 c0 -7 -4 -18 -9 -26 -8 -12 -12 -12 -25 -2 -16 14 -21
42 -10 54 9 9 44 -11 44 -26z m-116 -29 c-4 -6 -10 -5 -15 3 -14 22 -10 33 6
19 8 -7 12 -17 9 -22z m197 0 c15 -28 26 -288 12 -288 -15 0 -103 97 -103 114
0 32 13 46 41 46 35 0 39 23 9 55 -17 18 -18 26 -9 58 11 42 32 48 50 15z
m-197 -134 c4 -9 4 -19 2 -21 -8 -8 -26 8 -26 23 0 19 16 18 24 -2z m0 -110
c3 -9 6 -33 6 -55 0 -28 -4 -39 -15 -39 -12 0 -15 13 -15 55 0 53 11 72 24 39z
m151 -124 c-7 -11 -53 0 -66 16 -6 8 -9 21 -5 29 5 14 11 12 41 -11 19 -14 33
-30 30 -34z m-16 -49 c9 -6 11 -20 6 -50 -7 -41 -24 -52 -42 -28 -14 17 -25
66 -18 77 8 12 35 13 54 1z m-148 -27 c10 -12 10 -20 1 -35 -11 -17 -8 -25 18
-57 16 -20 30 -47 30 -61 0 -21 -3 -23 -31 -17 -17 3 -37 6 -44 6 -22 0 -26
31 -14 107 12 76 18 84 40 57z m229 -75 c0 -52 -3 -69 -14 -69 -37 0 -43 53
-15 127 16 41 29 15 29 -58z m0 -210 c0 -52 -4 -91 -11 -95 -6 -3 -24 6 -40
22 -36 34 -39 75 -6 97 19 13 20 18 10 36 -19 31 -16 38 17 33 l30 -4 0 -89z
m-176 -7 c16 -18 26 -35 23 -38 -10 -10 -122 44 -125 61 -2 9 -1 28 2 41 l7
25 32 -28 c18 -15 45 -43 61 -61z m-82 -67 c0 -5 -5 -11 -11 -13 -6 -2 -11 4
-11 13 0 9 5 15 11 13 6 -2 11 -8 11 -13z m77 -139 c-7 -7 -81 32 -95 50 -7 8
-9 24 -7 35 5 19 11 16 56 -30 28 -28 49 -53 46 -55z m136 69 c36 -16 36 -17
30 -58 -13 -84 -19 -91 -50 -57 -11 12 -15 28 -12 41 3 12 0 34 -8 49 -8 15
-11 30 -8 34 8 8 5 8 48 -9z m-197 -148 c51 -52 55 -71 11 -62 -25 6 -31 4
-36 -14 -3 -12 -13 -21 -24 -21 -15 0 -19 7 -19 33 0 45 11 107 19 107 4 0 26
-19 49 -43z m105 -5 c18 -16 24 -52 8 -52 -9 0 -71 66 -71 76 0 9 44 -8 63
-24z m90 -118 c-4 -115 -18 -143 -43 -84 -11 26 -10 33 4 49 10 11 16 35 16
65 0 34 4 46 13 43 8 -3 11 -25 10 -73z m-142 -14 c5 0 9 -7 9 -15 0 -21 -14
-19 -36 7 -18 20 -18 21 -1 15 10 -4 23 -7 28 -7z m-77 -50 c26 -39 32 -73 20
-105 -6 -14 -11 -12 -35 11 -25 24 -29 35 -29 81 0 29 4 53 9 53 4 0 20 -18
35 -40z m194 -164 c2 -14 -2 -26 -7 -26 -11 0 -81 101 -81 116 0 4 19 -9 43
-28 26 -22 43 -45 45 -62z m-88 2 c22 -40 16 -43 -22 -10 -18 15 -25 52 -10
52 5 0 19 -19 32 -42z m-114 -248 c30 -45 28 -54 -10 -44 -22 5 -26 11 -26 45
0 21 2 39 5 39 3 0 17 -18 31 -40z m176 13 c26 -25 39 -73 19 -73 -8 0 -61 81
-61 94 0 12 15 5 42 -21z m-173 -127 c7 -8 9 -25 6 -39 -5 -18 1 -33 23 -58
16 -19 32 -51 36 -71 6 -34 5 -38 -14 -38 -23 0 -24 -7 -10 -45 9 -23 8 -26
-6 -21 -8 3 -21 6 -28 6 -9 0 -17 33 -25 103 -7 56 -14 119 -17 140 -4 28 -2
37 9 37 8 0 20 -6 26 -14z m201 -115 c0 -41 -10 -39 -54 9 -28 31 -36 48 -36
78 l0 37 45 -47 c33 -35 45 -55 45 -77z m-6 -197 c9 -24 7 -28 -9 -14 -17 14
-20 30 -6 30 5 0 12 -7 15 -16z m-170 -30 c5 -14 4 -15 -9 -4 -17 14 -19 20
-6 20 5 0 12 -7 15 -16z m26 -135 c22 -29 39 -53 37 -55 -2 -2 -23 4 -46 14
-42 17 -59 46 -47 77 8 22 12 20 56 -36z m-4 -165 c-3 -9 -12 -14 -18 -12 -14
5 -30 67 -21 81 9 14 46 -51 39 -69z m-2131 21 c45 -8 143 -15 226 -15 l146 0
30 -47 c76 -119 254 -473 273 -544 17 -62 57 -172 101 -277 19 -48 17 -49
-133 -55 -79 -4 -188 -13 -243 -21 -66 -10 -181 -15 -340 -16 -132 0 -269 -5
-304 -10 -35 -6 -158 -15 -275 -21 -116 -5 -236 -14 -266 -19 -30 -5 -113 -14
-185 -20 -71 -5 -141 -12 -155 -16 -14 -3 -155 -10 -315 -15 -159 -5 -328 -13
-375 -18 -47 -5 -363 -10 -703 -10 -571 -1 -628 -3 -765 -22 -159 -23 -223
-22 -437 5 -173 22 -1152 22 -1380 0 -88 -9 -262 -18 -387 -21 -217 -5 -229
-4 -261 16 -32 19 -34 19 -51 3 -16 -16 -19 -15 -45 17 -34 41 -64 38 -59 -6
3 -26 0 -28 -37 -31 -60 -4 -67 5 -51 63 8 28 23 97 35 155 42 213 60 288 86
346 22 50 42 116 105 344 5 19 12 44 15 56 5 19 17 22 128 33 67 6 160 16 207
21 279 32 387 40 561 41 107 0 217 5 244 10 29 6 348 14 745 19 410 6 722 14
760 20 36 6 274 15 530 20 256 5 492 13 525 18 33 5 490 10 1015 10 793 1 969
-1 1035 -13z m2248 -26 c33 -27 37 -36 37 -75 0 -24 -4 -44 -8 -44 -7 0 -92
134 -92 145 0 14 30 2 63 -26z m-1635 -2 c6 -5 12 -14 12 -19 0 -5 13 -28 29
-51 16 -23 38 -75 49 -115 15 -52 35 -92 70 -140 28 -37 64 -102 81 -145 38
-96 91 -201 170 -337 34 -58 61 -110 61 -117 0 -16 -7 -16 -86 -2 -66 11 -68
13 -121 103 -21 35 -89 219 -103 277 -15 63 -45 130 -130 289 -155 289 -154
284 -87 274 23 -4 48 -11 55 -17z m1546 -133 c38 -90 39 -109 8 -81 -10 10
-26 17 -35 17 -14 0 -17 10 -17 49 0 27 -3 63 -7 81 -11 57 13 26 51 -66z
m-8004 31 c0 -21 -104 -371 -123 -415 -13 -30 -29 -75 -35 -100 -21 -86 -61
-275 -71 -339 -6 -35 -21 -84 -34 -110 -20 -37 -32 -49 -66 -60 -24 -7 -46
-10 -51 -5 -11 12 16 256 35 313 8 25 15 58 15 75 1 17 7 47 15 66 22 56 103
274 151 408 24 68 44 134 44 148 0 23 3 24 60 24 33 0 60 -2 60 -5z m8130
-161 c0 -21 -4 -33 -10 -29 -12 7 -38 67 -46 104 -5 25 -5 25 25 -7 23 -23 31
-42 31 -68z m-130 -43 c21 -45 21 -51 7 -65 -14 -15 -14 -21 4 -73 23 -67 24
-93 4 -93 -25 0 -17 -32 16 -66 l30 -31 -17 -43 c-15 -37 -15 -49 -5 -92 7
-27 11 -51 8 -54 -2 -3 -16 9 -31 26 -21 26 -26 42 -26 88 0 31 -7 89 -15 127
-16 75 -21 325 -7 325 5 0 19 -22 32 -49z m114 -57 c14 -5 16 -30 16 -169 0
-106 7 -213 20 -310 26 -192 16 -239 -31 -150 -23 43 -23 45 -5 58 18 13 18
17 -14 111 -31 93 -31 98 -17 135 19 46 16 106 -9 184 -18 57 -18 57 4 73 18
12 20 19 12 40 -15 37 -11 41 24 28z m-82 -562 c34 -51 70 -123 65 -128 -6 -7
-91 66 -99 85 -10 24 -9 81 1 81 4 0 20 -17 33 -38z m-1372 -99 c52 -23 51
-37 -2 -29 -24 4 -52 7 -63 6 -104 -6 -283 5 -271 17 9 9 121 20 213 22 59 1
94 -4 123 -16z m-490 -25 c0 -10 -87 -21 -107 -14 -13 5 -14 9 -5 15 15 9 112
9 112 -1z m726 -3 c16 -8 22 -15 14 -15 -18 1 -70 29 -54 30 7 0 25 -7 40 -15z
m-1363 -26 c22 -12 56 -49 57 -61 0 -4 -15 -8 -32 -10 -61 -6 -46 -31 76 -124
63 -49 115 -94 116 -100 0 -8 -36 -14 -107 -17 -60 -3 -155 -10 -213 -16 -58
-7 -179 -10 -270 -9 l-165 3 0 37 c0 30 -11 52 -59 113 -66 84 -112 123 -127
108 -7 -7 3 -32 27 -72 20 -34 34 -64 32 -67 -3 -2 -29 24 -59 58 -29 35 -59
69 -68 75 -8 7 -12 16 -8 19 3 4 75 12 159 20 84 7 178 19 208 25 30 7 134 15
230 19 96 4 176 7 178 8 2 1 13 -3 25 -9z m2017 -21 c22 -13 40 -26 40 -30 0
-13 -33 -9 -64 7 -15 8 -36 15 -45 15 -10 0 -26 7 -37 15 -34 26 59 19 106 -7z
m249 -17 c12 -16 21 -32 21 -35 0 -6 -89 27 -129 49 -25 14 -24 14 31 15 51 0
59 -3 77 -29z m-3096 -41 c-3 -12 14 -53 46 -108 28 -49 51 -92 51 -96 0 -15
-22 -2 -96 54 -43 33 -82 60 -86 60 -18 0 -20 -33 -4 -72 9 -23 13 -44 10 -47
-3 -3 -35 10 -71 28 -56 30 -63 36 -49 46 23 17 20 44 -6 54 -21 8 -20 10 20
35 23 14 42 33 42 40 0 16 27 22 102 25 41 1 46 -1 41 -19z m-193 3 c0 -5 -28
-25 -63 -47 l-62 -39 -120 6 c-127 7 -341 34 -363 46 -8 4 35 11 95 16 59 4
140 11 178 15 97 10 335 12 335 3z m2249 -17 c12 -13 8 -13 -25 -6 -21 5 -42
10 -46 10 -5 0 -8 5 -8 11 0 15 60 3 79 -15z m1200 10 c15 -8 33 -22 40 -30 8
-9 22 -16 31 -16 20 0 90 -76 90 -97 0 -9 -17 -13 -62 -13 -34 0 -100 -5 -146
-12 -76 -11 -85 -11 -93 5 -6 9 -19 17 -29 17 -20 0 -57 43 -41 48 5 2 26 -4
46 -12 20 -9 41 -13 46 -10 11 6 12 44 2 44 -5 0 -19 10 -33 21 l-25 20 25 -6
c14 -3 46 -15 72 -27 74 -33 104 -9 48 40 -16 15 -30 30 -30 34 0 12 28 9 59
-6z m-6645 -55 c15 -27 17 -37 8 -52 -18 -28 -15 -43 10 -54 24 -11 65 -62 56
-70 -3 -3 -38 20 -77 50 -69 54 -100 64 -108 38 -2 -6 5 -21 16 -32 27 -27 8
-27 -29 0 -17 13 -35 19 -46 15 -11 -4 -30 3 -53 22 -20 16 -46 34 -58 40 -32
17 -42 -7 -30 -69 5 -27 7 -52 3 -56 -3 -3 -40 26 -81 66 -41 40 -79 70 -85
66 -13 -8 -13 -41 1 -67 18 -33 1 -33 -40 0 -22 18 -48 32 -57 32 -18 0 -84
57 -84 72 0 20 199 36 439 34 l195 -1 20 -34z m86 9 c0 -36 -13 -39 -28 -6
-11 25 -7 36 15 36 8 0 13 -12 13 -30z m213 10 c6 -23 -6 -25 -67 -11 -67 16
-67 31 1 31 52 0 61 -3 66 -20z m1471 10 c-5 -5 -61 -19 -124 -30 -102 -17
-117 -18 -137 -5 -14 10 -48 15 -93 15 -69 0 -96 15 -42 23 61 9 406 7 396 -3z
m401 -1 c-62 -15 -243 -32 -260 -25 -8 3 -15 12 -15 21 0 13 22 15 158 14 119
-1 147 -3 117 -10z m270 -11 c6 -14 26 -28 53 -37 52 -16 50 -35 -4 -39 -21
-2 -45 -10 -52 -19 -7 -11 -36 -20 -75 -25 -34 -4 -75 -10 -92 -14 l-30 -7 28
31 c20 21 27 36 23 50 -6 18 0 22 41 30 29 7 53 19 62 31 18 27 34 27 46 -1z
m2870 1 c5 -5 -4 -9 -22 -9 -36 0 -63 9 -63 20 0 11 71 1 85 -11z m-190 1 c4
-6 -5 -10 -19 -10 -14 0 -26 5 -26 10 0 6 9 10 19 10 11 0 23 -4 26 -10z
m-6123 -76 c33 -30 65 -54 71 -54 7 0 30 -9 52 -20 l40 -20 -105 5 c-117 6
-116 5 -167 93 -22 36 -24 46 -12 53 25 16 61 -1 121 -57z m137 20 c12 -15 19
-29 17 -31 -6 -6 -106 50 -106 59 0 11 34 15 52 6 9 -4 26 -20 37 -34z m155
-17 c10 -32 16 -61 12 -64 -11 -11 -120 103 -111 116 4 7 23 11 43 9 35 -3 38
-5 56 -61z m-774 33 c6 -11 8 -25 5 -30 -10 -16 -103 -12 -137 6 -35 18 -28
31 22 37 82 9 99 7 110 -13z m170 4 c0 -9 -7 -14 -17 -12 -25 5 -28 28 -4 28
12 0 21 -6 21 -16z m-86 -13 c17 -19 15 -41 -4 -41 -5 0 -16 14 -25 30 -13 25
-13 30 -2 30 8 0 22 -9 31 -19z m1998 -43 c64 -69 72 -85 31 -65 -16 8 -62 22
-103 31 -132 30 -137 33 -137 66 l0 30 76 0 75 0 58 -62z m188 44 c20 -16 21
-19 6 -31 -9 -7 -16 -22 -16 -32 0 -11 -3 -19 -6 -19 -14 0 -114 76 -114 88 0
20 103 16 130 -6z m1470 3 c0 -14 -57 -54 -76 -55 -12 0 -32 9 -45 19 l-24 19
40 7 c22 4 45 8 50 10 17 6 55 5 55 0z m-4892 -17 c-3 -9 -27 -13 -73 -13 -46
0 -70 4 -72 13 -4 9 15 12 72 12 57 0 76 -3 73 -12z m326 -10 c9 -12 12 -26 8
-30 -9 -9 -139 10 -164 23 -37 20 -16 29 61 29 71 0 82 -2 95 -22z m126 2 c0
-22 -20 -26 -38 -8 -19 19 -14 28 13 28 18 0 25 -5 25 -20z m218 3 c6 -19 -43
-16 -59 3 -11 14 -9 15 21 12 18 -2 35 -9 38 -15z m129 11 c-3 -3 -12 -4 -19
-1 -8 3 -5 6 6 6 11 1 17 -2 13 -5z m3893 -34 c0 -15 -7 -20 -24 -20 -27 0
-41 14 -31 30 3 6 17 10 31 10 17 0 24 -5 24 -20z m2618 -7 c49 -25 55 -26 63
-10 12 20 48 22 73 4 16 -12 16 -13 -1 -29 -10 -9 -69 -27 -131 -39 -120 -25
-131 -24 -161 21 -15 23 -15 23 7 11 13 -7 35 -11 50 -9 28 3 33 22 17 61 -11
26 20 22 83 -10z m-5898 -4 c0 -6 -4 -7 -10 -4 -5 3 -10 11 -10 16 0 6 5 7 10
4 6 -3 10 -11 10 -16z m625 -39 c27 -28 48 -40 67 -40 32 0 104 -58 90 -72 -5
-5 -46 -8 -92 -6 l-83 3 -18 70 c-10 39 -19 73 -19 78 0 16 18 5 55 -33z
m3555 30 c-20 -13 -40 -13 -40 0 0 6 12 10 28 10 21 0 24 -2 12 -10z m160 -5
c0 -10 -10 -15 -29 -15 -32 0 -50 15 -29 23 27 11 58 7 58 -8z m-1287 -25 c14
-17 29 -20 97 -20 47 0 80 -4 80 -10 0 -6 -34 -10 -82 -10 -46 -1 -127 -5
-182 -10 -123 -11 -169 1 -75 19 35 7 80 21 99 32 44 23 42 23 63 -1z m777 4
c0 -9 9 -18 20 -21 44 -12 14 -20 -92 -26 -156 -9 -228 -9 -228 2 0 16 30 21
121 21 78 0 90 2 101 20 16 25 78 29 78 4z m-5274 -11 c3 -10 12 -33 20 -50 7
-18 10 -33 5 -33 -11 0 -81 80 -81 92 0 16 51 8 56 -9z m2474 -33 c38 -32 53
-39 76 -35 32 6 70 -17 59 -34 -9 -16 -170 -14 -183 2 -5 6 -13 33 -17 60 -9
59 1 60 65 7z m1720 22 c0 -31 -22 -42 -79 -42 -60 0 -131 16 -131 29 0 4 35
12 78 18 122 16 132 15 132 -5z m1871 -12 l24 -19 -22 -1 c-12 0 -27 9 -33 20
-14 26 1 26 31 0z m-1256 0 c-3 -5 -12 -10 -20 -10 -8 0 -17 5 -20 10 -4 6 5
10 20 10 15 0 24 -4 20 -10z m1439 -26 c3 -8 2 -14 -2 -14 -10 0 -32 22 -32
32 0 12 28 -2 34 -18z m-3914 -51 c0 -14 -36 -18 -43 -5 -3 4 -8 23 -12 42
l-7 35 31 -29 c17 -17 31 -36 31 -43z m1488 32 c-45 -41 -66 -44 -98 -10 -18
19 -20 26 -9 29 16 6 68 12 114 14 l30 1 -37 -34z m-1840 -10 c6 -3 12 -11 12
-20 0 -13 -18 -15 -112 -15 -61 0 -162 -7 -223 -16 l-112 -16 -52 26 c-29 15
-49 31 -45 37 4 7 53 8 148 4 77 -4 151 -3 163 2 21 8 195 6 221 -2z m882 -6
l25 -20 -30 3 c-19 2 -31 9 -33 21 -4 22 7 21 38 -4z m1048 4 c-2 -11 -14 -19
-33 -21 -30 -4 -30 -4 -11 17 23 26 49 28 44 4z m-3399 -33 c67 0 66 -16 -1
-23 -57 -5 -88 5 -88 29 0 11 4 12 19 4 11 -5 42 -10 70 -10z m851 -16 c12
-12 3 -14 -72 -14 -87 0 -113 10 -81 30 24 14 134 3 153 -16z m-1235 -16 c9
-14 11 -24 5 -26 -14 -5 -40 17 -40 34 0 21 17 17 35 -8z"/>
<path d="M3305 7943 c-16 -2 -98 -17 -181 -33 -150 -30 -154 -30 -499 -30
-311 0 -350 2 -367 17 -28 25 -65 4 -74 -43 -9 -50 5 -562 18 -644 5 -36 14
-369 19 -740 5 -371 10 -711 10 -755 2 -115 -18 -394 -32 -435 -6 -19 -15
-142 -19 -275 -7 -240 -13 -279 -45 -329 -25 -38 -8 -73 37 -78 31 -3 33 -6
51 -73 30 -111 41 -131 77 -139 55 -11 172 -6 245 10 41 9 169 19 305 24 129
5 267 14 305 19 39 6 194 10 345 11 204 0 317 5 440 19 102 12 238 20 355 20
105 1 217 7 250 13 42 8 551 13 1690 17 1060 4 1635 9 1645 16 10 6 373 12
1012 15 932 5 998 6 1015 22 16 16 17 51 19 400 1 293 6 409 18 492 14 93 16
225 16 890 0 652 3 793 15 851 11 53 15 141 15 356 0 255 -2 288 -17 300 -22
19 -145 17 -263 -4 -52 -9 -129 -22 -170 -28 -46 -8 -279 -15 -605 -19 -328
-5 -561 -12 -610 -20 -100 -15 -404 -8 -600 14 -77 8 -207 20 -290 26 -82 6
-231 20 -331 31 -160 17 -259 19 -875 19 -682 1 -742 3 -1004 35 -213 27 -304
29 -440 10 -104 -14 -175 -16 -442 -12 -185 3 -337 10 -363 16 -43 11 -609 23
-675 14z m685 -117 c164 -22 657 -22 835 0 123 16 140 16 271 -1 76 -9 173
-21 214 -26 41 -5 171 -12 288 -15 206 -6 212 -7 217 -28 2 -11 11 -190 20
-396 9 -206 21 -402 28 -435 14 -70 22 -1127 9 -1203 l-7 -47 -50 -2 c-163 -7
-438 -35 -625 -63 -85 -13 -767 -13 -775 0 -3 5 27 49 66 97 39 48 103 134
140 191 l69 104 0 142 c0 161 -15 259 -61 401 -38 117 -42 125 -132 230 -38
44 -96 123 -128 176 -34 55 -69 100 -83 107 -13 6 -71 23 -128 37 -57 14 -163
51 -237 81 l-135 54 -200 0 c-144 0 -222 -4 -276 -16 -86 -18 -238 -67 -290
-94 -60 -32 -181 -142 -251 -229 -56 -68 -69 -92 -74 -130 -4 -25 -13 -63 -22
-83 -12 -29 -14 -54 -9 -105 18 -170 25 -289 25 -426 1 -105 5 -158 15 -182
31 -73 202 -344 273 -432 69 -86 78 -93 149 -123 152 -63 217 -74 444 -75 218
0 293 9 415 50 93 32 305 46 805 55 345 6 396 9 490 29 58 12 170 26 250 31
80 5 172 16 205 25 66 17 101 19 109 7 3 -5 -4 -73 -15 -153 -13 -103 -19
-203 -19 -351 0 -145 -4 -228 -15 -278 -13 -63 -13 -74 0 -100 l15 -28 -623
-5 c-383 -4 -649 -10 -692 -17 -38 -6 -191 -15 -340 -20 -148 -5 -301 -14
-340 -19 -38 -6 -196 -10 -350 -11 -154 0 -309 -5 -345 -11 -36 -5 -171 -14
-300 -19 -142 -5 -263 -15 -305 -24 -83 -18 -161 -21 -171 -5 -4 7 -20 62 -36
123 -28 107 -29 119 -28 326 1 148 6 237 16 285 8 39 17 115 20 170 3 55 12
152 21 215 14 105 14 122 -1 201 -14 72 -16 173 -16 661 0 419 -4 617 -14 729
-8 85 -16 249 -18 364 l-3 210 390 6 c389 6 390 6 530 37 l140 31 265 -3 c162
-3 310 -10 380 -20z m2298 -100 c2 -27 -2 -87 -8 -135 -6 -47 -15 -192 -20
-321 -5 -129 -22 -368 -39 -530 -24 -229 -31 -343 -31 -507 0 -238 -24 -543
-43 -555 -7 -4 -61 -7 -120 -6 l-109 3 -1 600 c-2 416 -6 620 -14 665 -10 52
-44 702 -43 813 l0 27 213 -2 212 -3 3 -49z m692 44 c129 -15 377 -39 585 -55
110 -8 232 -20 270 -26 81 -13 527 -6 620 9 33 6 258 11 500 11 482 1 601 10
843 57 40 8 77 12 83 9 16 -10 11 -442 -6 -532 -12 -65 -15 -209 -16 -863 0
-487 -5 -808 -11 -845 -6 -33 -12 -239 -15 -457 -3 -297 -7 -399 -16 -407 -8
-6 -26 -7 -52 -1 -62 15 -131 12 -145 -5 -11 -13 -118 -15 -849 -15 -578 -1
-850 -4 -881 -12 -30 -7 -313 -12 -872 -15 l-828 -4 0 469 c0 419 2 471 16
476 9 3 541 6 1182 6 697 0 1183 4 1207 10 22 5 75 14 118 20 45 6 113 26 163
47 82 34 86 38 146 118 33 46 83 120 109 166 43 74 50 96 64 189 22 145 29
305 20 435 -7 105 -8 110 -39 138 -39 38 -264 210 -292 225 -47 25 -202 42
-377 42 l-177 0 -78 -39 c-119 -61 -215 -164 -281 -303 -106 -223 -111 -241
-111 -397 0 -202 15 -261 98 -370 35 -47 67 -92 69 -98 4 -10 -13 -13 -63 -13
-38 0 -152 -9 -254 -20 -161 -17 -256 -20 -725 -20 -311 0 -557 -4 -580 -10
-22 -5 -77 -10 -123 -10 l-83 0 6 48 c17 154 25 302 25 492 0 167 7 279 30
505 18 173 30 347 30 430 0 77 7 201 15 275 9 74 18 178 21 230 3 52 7 101 9
108 5 15 524 17 645 2z m-3860 -725 c0 -9 -80 -58 -86 -53 -7 8 48 46 84 57 1
1 2 -1 2 -4z m928 -176 c35 -13 26 -22 -15 -15 -57 10 -73 16 -73 27 0 11 44
5 88 -12z m-177 -134 c48 -17 108 -59 97 -70 -8 -8 -161 33 -184 49 -9 7 -14
18 -10 24 10 16 44 15 97 -3z m-400 -33 c12 -13 32 -303 22 -313 -5 -5 -72 -8
-159 -7 l-149 3 2 25 c6 95 22 198 33 215 7 11 33 37 59 58 46 38 46 39 116
32 38 -3 72 -9 76 -13z m735 -6 c15 -15 28 -56 17 -56 -12 0 -73 59 -73 71 0
12 40 2 56 -15z m4295 -31 c4 -27 9 -103 12 -167 l5 -118 -38 0 c-43 0 -298
28 -317 35 -21 7 -15 41 17 113 31 68 90 139 145 173 24 15 45 19 100 17 l70
-3 6 -50z m217 -1 c23 -8 55 -14 70 -14 18 0 60 -22 113 -57 67 -47 89 -68
112 -110 l28 -52 -15 -104 c-22 -164 -90 -292 -208 -396 -26 -23 -147 -53
-176 -43 -9 3 -12 53 -12 184 l0 181 166 -5 c162 -4 166 -4 180 18 12 17 12
27 3 48 -14 31 -28 34 -207 39 -74 3 -138 9 -143 14 -5 5 -12 80 -15 167 l-7
158 34 -7 c19 -4 53 -13 77 -21z m-5044 -13 c20 -18 117 -55 214 -80 34 -10
46 -19 62 -51 11 -22 20 -55 20 -74 0 -62 -12 -66 -191 -66 -189 0 -173 -14
-184 159 -6 91 -5 115 6 122 23 14 51 10 73 -10z m5360 -6 c11 -8 16 -15 10
-15 -5 0 -18 7 -28 15 -11 8 -16 15 -10 15 5 0 18 -7 28 -15z m-6034 -227 c0
-79 23 -171 82 -328 7 -19 28 -59 46 -89 32 -51 36 -71 12 -56 -18 11 -111
204 -141 294 -34 98 -41 221 -14 221 11 0 15 -11 15 -42z m1269 -151 c-1 -36
-2 -38 -9 -17 -12 36 -12 72 0 65 6 -3 10 -25 9 -48z m320 -57 c0 -23 -1 -23
-9 -5 -5 11 -8 40 -8 65 l0 45 9 -40 c4 -22 8 -51 8 -65z m3676 85 c33 -3 104
-11 157 -17 l97 -11 5 -61 c3 -34 7 -120 9 -193 5 -156 11 -150 -114 -128 -46
8 -88 15 -92 15 -5 0 -38 28 -74 63 -83 79 -133 175 -133 255 0 74 13 95 53
88 18 -3 59 -8 92 -11z m-4190 -72 c-9 -112 -20 -145 -65 -199 -49 -60 -88
-85 -47 -31 15 20 39 53 54 73 23 31 27 47 31 122 4 99 7 112 23 112 8 0 9
-22 4 -77z m-565 51 c12 -12 35 -306 26 -329 -7 -19 -15 -17 -132 26 -110 42
-171 100 -208 199 -35 95 -34 108 7 112 69 7 298 1 307 -8z m431 -1 c7 -7 10
-34 7 -70 -5 -67 -24 -99 -121 -200 -49 -50 -70 -64 -109 -73 -26 -7 -54 -10
-62 -7 -9 4 -15 40 -19 134 -4 70 -10 149 -13 175 -8 56 -16 54 168 53 90 0
141 -4 149 -12z m4140 -270 c12 -27 27 -51 33 -55 8 -5 7 -8 -1 -8 -19 0 -63
60 -63 86 0 34 5 30 31 -23z m-4566 -313 c3 -5 -3 -10 -14 -10 -12 0 -21 5
-21 10 0 6 6 10 14 10 8 0 18 -4 21 -10z m2635 -580 l0 -451 -157 3 -158 3 2
45 c2 25 7 169 12 320 8 245 29 473 46 500 3 6 41 11 83 11 42 1 91 5 107 9
71 18 65 60 65 -440z"/>
<path d="M7945 3869 c-22 -5 -93 -13 -158 -19 -124 -10 -171 -26 -187 -63 -15
-35 -43 -169 -42 -203 0 -18 11 -49 25 -70 64 -101 111 -116 335 -112 166 3
167 3 246 38 106 47 120 72 124 223 4 126 0 134 -81 165 -135 51 -181 59 -262
41z m184 -125 c66 -19 77 -40 62 -117 -14 -64 -26 -76 -104 -105 -49 -18 -80
-22 -180 -22 -149 0 -188 10 -223 55 -23 31 -25 38 -15 66 6 18 11 47 11 65 0
18 6 36 13 41 17 12 187 30 293 32 57 0 110 -5 143 -15z"/>
<path d="M3849 3763 c-9 -2 -35 -33 -58 -68 -40 -62 -41 -65 -41 -152 0 -171
47 -204 298 -211 97 -3 153 0 172 8 58 24 130 171 130 264 0 71 -6 83 -49 105
-43 22 -70 27 -266 46 -155 15 -159 16 -186 8z m285 -122 c54 -5 103 -14 109
-20 16 -16 -7 -96 -41 -146 l-28 -40 -115 0 c-62 0 -133 6 -156 13 -36 11 -44
18 -53 50 -15 56 -13 74 18 121 l27 43 70 -6 c39 -3 114 -10 169 -15z"/>
</g>
</svg>
