<?xml version="1.0" standalone="no"?>
<!DOCTYPE svg PUBLIC "-//W3C//DTD SVG 20010904//EN"
 "http://www.w3.org/TR/2001/REC-SVG-20010904/DTD/svg10.dtd">
<svg version="1.0" xmlns="http://www.w3.org/2000/svg"
 width="1280.000000pt" height="905.000000pt" viewBox="0 0 1280.000000 905.000000"
 preserveAspectRatio="xMidYMid meet">
<metadata>
Created by potrace 1.15, written by Peter Selinger 2001-2017
</metadata>
<g transform="translate(0.000000,905.000000) scale(0.100000,-0.100000)"
fill="#000000" stroke="none">
<path d="M3652 7858 c-28 -28 3 -83 33 -58 8 7 15 20 15 29 0 17 -18 41 -30
41 -3 0 -11 -5 -18 -12z"/>
<path d="M5790 7789 c-70 -21 -120 -80 -120 -143 0 -31 2 -30 -43 -11 -71 30
-120 17 -152 -40 -10 -16 -15 -17 -62 -5 -61 16 -77 11 -103 -33 -15 -25 -31
-36 -65 -45 -49 -13 -56 -25 -24 -43 41 -22 395 -43 735 -43 l331 -1 -24 -36
c-34 -51 -53 -164 -60 -355 -11 -292 12 -328 262 -419 184 -68 322 -144 445
-246 l60 -50 -25 -33 c-20 -27 -30 -32 -54 -28 -22 3 -33 -1 -43 -17 -7 -12
-21 -21 -31 -21 -24 0 -33 -28 -18 -53 12 -18 11 -19 -21 -14 -20 3 -39 0 -49
-9 -14 -12 -22 2 -72 129 -41 105 -57 161 -62 215 -7 67 -9 72 -31 72 -21 0
-24 -5 -24 -34 l0 -35 -112 54 c-92 44 -116 59 -128 85 -13 29 -17 31 -51 25
-27 -5 -51 0 -87 15 l-50 21 -4 98 c-5 135 -16 151 -104 151 -36 0 -75 -5 -86
-11 -19 -10 -20 -17 -14 -75 l7 -65 -33 15 c-18 7 -70 31 -115 51 l-83 38 -2
166 -3 166 -30 0 -30 0 3 -81 4 -81 -39 -6 c-21 -4 -75 -7 -120 -7 -52 0 -83
-4 -85 -11 -3 -9 -19 -7 -57 6 -70 23 -75 13 -8 -18 l54 -24 7 -113 c3 -62 5
-114 3 -116 -2 -2 -60 17 -128 42 -98 36 -506 173 -764 256 -39 13 -40 15 -43
61 -5 70 -29 63 -37 -10 -9 -86 -14 -103 -29 -103 -12 0 -13 -12 -9 -57 l6
-58 -22 20 -22 19 11 -28 c6 -16 9 -31 6 -33 -2 -2 -26 -1 -54 3 l-50 6 -26
81 c-26 79 -26 80 -7 101 19 21 24 41 22 84 -3 54 -81 82 -121 42 -19 -19 -19
-19 -39 6 -15 19 -21 48 -26 129 -4 58 -11 105 -16 105 -5 0 -6 -39 -3 -87 l6
-88 -62 -74 c-34 -40 -71 -93 -83 -117 -19 -39 -25 -44 -54 -44 -66 0 -133
-59 -133 -117 0 -13 -8 -24 -20 -28 -27 -9 -35 -48 -21 -107 18 -79 19 -78
-52 -78 -97 0 -95 -4 -99 205 -6 270 -15 281 -216 268 -118 -7 -127 -17 -126
-139 l0 -82 -84 -4 c-59 -2 -87 -7 -95 -18 -10 -12 -41 -15 -164 -15 l-151 -1
-6 29 c-3 16 -6 55 -6 87 0 46 -4 59 -17 65 -10 4 -84 10 -164 13 l-146 4 -6
-38 c-4 -22 -7 -103 -7 -182 0 -106 -3 -143 -12 -146 -7 -2 -68 -12 -135 -22
-105 -17 -124 -17 -142 -5 -17 11 -38 12 -101 5 -90 -11 -85 -15 -95 69 -6 48
-10 57 -28 57 -22 0 -22 29 0 -342 l6 -106 -79 -7 c-44 -3 -88 -7 -99 -8 -15
-2 -22 -13 -30 -56 l-10 -53 -136 -62 c-434 -198 -808 -476 -1022 -761 -64
-86 -147 -229 -137 -238 3 -2 133 -106 290 -232 157 -125 291 -233 298 -239
10 -9 8 -29 -9 -96 -56 -221 44 -399 256 -454 87 -23 92 -31 64 -102 -34 -86
-34 -267 -1 -374 65 -208 212 -362 396 -415 46 -14 82 -16 155 -12 53 3 106 9
118 12 16 5 23 2 28 -15 9 -30 62 -88 96 -106 40 -20 63 -18 98 12 l31 26 0
-44 c0 -27 9 -63 23 -90 l23 -46 -34 -4 c-30 -4 -35 -1 -52 33 -71 139 -280
82 -280 -76 0 -37 -4 -44 -49 -77 -27 -20 -63 -59 -82 -87 -30 -48 -35 -51
-73 -51 -82 0 -145 -71 -132 -148 9 -56 74 -112 129 -112 21 0 28 -9 47 -62
30 -84 63 -139 121 -202 l48 -53 -43 -45 c-142 -149 -74 -382 115 -396 32 -2
59 -8 59 -13 0 -4 -14 -47 -31 -94 -17 -47 -29 -88 -27 -90 8 -9 936 -435 946
-435 5 0 217 125 471 279 l462 278 255 -107 254 -108 211 119 210 120 44 -17
c98 -37 227 34 266 146 11 29 13 31 24 16 7 -9 29 -25 50 -35 l37 -18 -186
-107 c-102 -60 -186 -110 -186 -113 0 -2 24 9 53 25 28 16 120 66 202 109 128
68 159 81 211 86 67 5 146 36 181 69 13 12 25 20 27 17 2 -2 11 -29 19 -59 19
-66 78 -160 136 -215 23 -22 41 -48 41 -60 0 -32 44 -69 80 -66 57 3 65 2 140
-19 143 -41 287 -15 405 73 63 46 145 149 172 214 10 24 21 43 24 43 3 0 11
-11 17 -24 7 -15 37 -37 79 -58 63 -31 75 -33 164 -33 89 0 100 2 123 24 14
14 26 30 26 38 0 17 5 16 35 -3 13 -8 22 -21 19 -28 -8 -20 43 -73 81 -86 19
-6 48 -9 63 -5 21 4 55 -8 147 -54 316 -157 646 -265 935 -307 84 -12 157 -15
275 -11 182 5 282 28 410 95 130 69 252 213 305 364 20 57 48 82 36 32 -33
-133 -126 -296 -225 -394 -201 -200 -492 -247 -931 -151 -47 11 -87 18 -88 16
-8 -8 82 -46 161 -69 180 -52 384 -56 564 -11 263 67 453 238 554 499 32 83
68 231 69 279 0 15 1 27 3 27 1 0 26 -9 55 -20 29 -11 71 -20 93 -20 32 0 39
-3 31 -12 -40 -50 -15 -165 42 -192 28 -13 35 -23 40 -57 5 -30 18 -53 46 -82
36 -36 44 -39 78 -34 62 10 112 85 112 170 0 23 3 27 19 22 22 -7 46 18 37 40
-6 17 -37 20 -53 4 -7 -7 -14 -1 -22 19 -21 51 -57 77 -107 77 -26 0 -44 5
-44 11 0 6 -8 22 -19 35 l-18 24 49 44 c50 44 50 44 67 24 70 -90 165 -203
171 -203 18 0 915 526 988 580 52 38 49 52 -5 20 -227 -135 -957 -561 -963
-563 -8 -2 -110 126 -110 138 0 3 8 5 18 5 9 0 29 6 44 14 24 13 28 12 44 -5
9 -10 20 -19 24 -19 4 0 68 38 141 84 302 188 577 329 839 429 198 76 191 75
228 38 35 -35 83 -41 131 -17 40 21 101 92 108 126 6 35 7 35 63 15 51 -18
144 -20 191 -3 76 25 135 90 165 181 9 28 26 60 36 71 13 15 18 31 16 54 -4
30 -2 33 16 26 12 -3 55 -8 96 -11 73 -5 90 -1 193 42 14 6 17 1 17 -33 0 -28
7 -49 23 -68 20 -23 26 -25 46 -15 44 24 52 109 12 145 -17 16 -15 19 44 81
69 71 126 176 144 263 23 111 6 243 -44 342 l-25 50 27 11 c37 14 100 75 124
121 24 47 49 150 49 206 0 24 -7 76 -15 117 -14 68 -14 77 0 106 23 43 14 59
-35 59 -28 0 -52 8 -73 24 -42 31 -106 48 -155 40 l-40 -6 19 53 c23 69 23 97
0 158 -13 34 -17 64 -14 95 3 27 1 51 -5 59 -9 10 -7 19 4 35 21 30 39 27 54
-9 44 -106 140 -52 140 79 0 33 5 54 16 63 28 23 63 104 75 174 20 114 -7 266
-56 319 l-24 26 89 226 88 226 -29 49 c-49 83 -129 200 -185 271 -44 54 -54
74 -54 105 0 54 -11 67 -49 58 l-31 -7 0 52 c0 28 -5 60 -11 72 -14 26 -68 48
-118 48 -22 0 -42 4 -45 9 -3 4 -2 27 2 49 l7 41 87 -75 c48 -41 92 -74 98
-74 30 0 -9 41 -127 134 -59 45 -63 52 -63 89 l0 40 246 -6 c219 -5 246 -4
251 10 4 10 -3 24 -19 37 -14 12 -28 30 -30 41 -3 16 -12 20 -42 21 -25 0 -41
6 -48 17 -6 11 -22 17 -44 17 -24 0 -37 5 -41 18 -13 36 -56 72 -87 72 -41 0
-94 -33 -102 -64 -5 -20 -17 -27 -67 -40 -34 -9 -72 -19 -84 -22 -20 -6 -23
-3 -23 25 0 24 -4 31 -20 31 -16 0 -20 -7 -20 -35 0 -33 -1 -34 -29 -29 -23 5
-32 2 -40 -15 l-12 -21 -38 19 c-37 19 -38 22 -44 87 -4 36 -12 73 -18 80 -7
8 -31 19 -55 25 -40 10 -44 14 -44 43 0 17 -5 38 -10 46 -9 13 -12 12 -25 -4
-8 -11 -15 -29 -15 -40 0 -43 -13 -49 -71 -32 -105 29 -241 29 -345 0 -20 -5
-21 -1 -27 102 -4 59 -12 113 -18 120 -24 30 -225 46 -285 24 l-27 -11 7 -208
c5 -179 4 -210 -9 -221 -13 -11 -15 -7 -15 24 0 103 -144 119 -174 19 -8 -26
18 -93 36 -93 8 -1 5 -6 -6 -15 -60 -46 -67 13 -22 188 20 76 37 163 38 195 3
61 2 62 -54 47 -25 -6 -28 -5 -28 20 0 15 -4 24 -10 20 -5 -3 -10 -18 -10 -33
0 -25 -12 -33 -177 -109 -131 -61 -180 -80 -189 -72 -17 14 -124 24 -159 15
l-27 -7 7 -147 7 -147 -37 -18 c-21 -10 -39 -17 -40 -15 -8 10 -11 148 -3 156
13 13 -12 52 -34 52 -21 0 -25 -17 -27 -105 -1 -38 -5 -73 -9 -76 -4 -4 -49
-9 -100 -13 -84 -5 -93 -4 -90 11 2 9 36 34 76 56 67 36 86 57 62 72 -5 3 -38
-9 -72 -27 -35 -18 -66 -34 -69 -36 -4 -1 -9 15 -13 37 -5 34 -11 42 -34 47
-15 3 -42 10 -61 15 l-34 8 6 -88 7 -88 -65 -35 c-35 -20 -66 -33 -69 -30 -3
3 -6 22 -6 42 0 20 -2 39 -5 42 -3 2 -37 0 -76 -5 -54 -7 -73 -6 -79 3 -4 7
-11 48 -14 91 l-7 79 -75 0 c-63 0 -74 -2 -74 -17 0 -12 -9 -6 -31 20 -32 39
-62 47 -100 27 -15 -8 -23 -7 -36 5 -15 16 -27 16 -65 0 -11 -4 -18 0 -23 14
-18 58 -105 89 -154 55 -17 -12 -26 -13 -34 -5 -16 16 -52 14 -67 -3 -10 -13
-18 -11 -53 15 -42 30 -74 34 -119 14 -14 -6 -18 -2 -18 16 0 45 -47 127 -90
158 -138 100 -311 26 -354 -152 -5 -23 -12 -28 -34 -27 -57 4 -73 -1 -111 -35
-26 -23 -48 -35 -68 -35 -28 0 -31 4 -53 75 -24 78 -43 106 -60 89 -6 -6 -2
-36 10 -79 11 -39 20 -86 20 -105 0 -19 6 -47 14 -62 26 -49 41 -171 41 -335
l0 -163 36 0 c39 0 57 -11 82 -52 9 -14 26 -29 37 -33 17 -5 20 -15 20 -67 l0
-60 -42 7 c-93 14 -98 16 -98 39 0 38 -42 89 -87 106 -41 15 -41 15 -27 43 29
55 28 141 -5 337 -17 102 -50 261 -73 353 -65 267 -69 270 -363 275 -202 4
-346 -6 -504 -34 -47 -9 -112 -19 -144 -23 -106 -13 -141 -61 -158 -217 -23
-212 -23 -229 1 -279 28 -57 84 -100 159 -122 145 -41 321 -136 417 -225 52
-48 127 -148 148 -199 14 -33 14 -34 -26 -71 -42 -38 -42 -40 -26 -120 2 -11
-21 -33 -71 -68 -40 -28 -75 -49 -77 -48 -1 2 -4 21 -6 43 -3 37 -1 40 40 63
39 22 43 28 38 51 -21 84 -19 107 8 128 14 12 26 29 26 38 0 48 -151 180 -275
241 -60 30 -73 40 -64 51 9 10 8 17 -2 29 -12 15 -15 14 -31 -6 l-17 -22 -168
79 -167 78 -14 45 c-20 64 -19 253 2 385 22 143 30 161 82 191 93 55 199 73
617 109 296 25 351 35 328 58 -9 9 -79 12 -234 11 -246 0 -379 -15 -584 -64
-68 -16 -129 -27 -138 -24 -8 4 -15 17 -15 30 0 14 -10 30 -25 40 -23 15 -38
15 -75 0 -12 -5 -16 1 -18 21 -1 16 -10 34 -20 41 -16 13 -68 12 -103 -2 -12
-5 -18 3 -27 32 -15 48 -73 117 -121 141 -47 24 -117 33 -161 20z m4850 -576
c-1 -19 -16 -31 -29 -24 -7 5 -10 14 -7 20 8 12 36 15 36 4z m-87 -55 c-13
-29 -20 -33 -51 -33 l-37 0 -1 -59 -1 -59 -108 -54 c-59 -30 -109 -52 -111
-50 -3 2 -7 33 -10 68 l-6 64 164 76 c89 43 166 77 169 78 4 1 0 -14 -8 -31z
m852 -97 c44 -6 104 -15 133 -21 48 -11 52 -14 52 -41 0 -16 -1 -29 -3 -29 -1
0 -34 7 -72 15 -39 8 -118 15 -176 15 -100 0 -107 1 -112 21 -7 25 -27 16 -27
-12 0 -14 -7 -19 -25 -19 -21 0 -25 4 -22 25 4 33 6 34 73 44 82 12 89 12 179
2z m-6931 -51 l17 -35 -21 24 c-11 13 -20 30 -20 39 0 19 3 15 24 -28z m6876
-59 c-23 -13 -110 -22 -110 -11 0 8 35 14 100 18 18 1 21 -1 10 -7z m-3388
-71 c9 -30 20 -73 24 -95 6 -38 7 -39 16 -15 5 14 10 57 11 95 l0 70 441 -6
c402 -5 628 -18 647 -38 4 -3 9 -28 13 -55 l6 -48 -31 4 -30 5 6 -146 7 -146
-65 -37 c-37 -21 -69 -38 -72 -38 -3 0 -5 18 -5 40 0 29 -4 40 -15 40 -11 0
-15 -12 -15 -50 l0 -51 -62 -39 -63 -40 -5 103 c-3 56 -9 107 -13 114 -5 8
-25 10 -60 7 -92 -9 -97 -12 -97 -43 0 -25 -3 -28 -25 -23 -27 5 -65 -21 -65
-45 0 -16 -12 -17 -27 -2 -20 20 -67 6 -88 -27 l-20 -31 -115 -6 c-63 -3 -135
-2 -160 3 -25 5 -73 9 -108 10 -47 0 -64 4 -67 15 -3 8 -7 22 -10 30 -7 24
-35 6 -36 -24 l0 -26 -17 25 c-31 45 -61 70 -84 70 l-23 0 0 168 c0 92 -3 190
-8 219 l-8 52 37 7 c44 8 45 7 74 -103 13 -46 26 -86 30 -88 7 -5 3 66 -9 153
l-8 53 41 -3 c40 -3 41 -4 58 -58z m3226 43 c-2 -10 -10 -18 -18 -18 -8 0 -16
8 -18 18 -2 12 3 17 18 17 15 0 20 -5 18 -17z m398 5 c1 -2 6 -27 10 -57 l7
-53 -34 7 c-45 9 -48 13 -55 69 l-7 49 38 -6 c20 -3 39 -8 41 -9z m219 -80
c14 -6 25 -15 25 -19 0 -5 17 -13 39 -19 50 -13 57 -25 51 -86 l-5 -50 -72 39
-73 39 0 54 c0 30 2 54 5 54 2 0 16 -5 30 -12z m-8850 -4 c17 -4 20 -12 16
-51 l-3 -45 -45 6 c-25 3 -56 6 -69 6 -21 0 -24 5 -24 35 0 19 -4 35 -10 35
-5 0 -12 -16 -16 -35 -6 -32 -9 -35 -39 -35 -18 0 -47 3 -64 6 -27 6 -31 11
-31 40 0 23 5 34 18 37 25 7 243 8 267 1z m2893 -79 c3 -3 -34 -5 -81 -5 l-87
0 0 45 0 44 81 -39 c45 -22 84 -42 87 -45z m4990 50 c-2 -20 -16 -31 -66 -55
l-63 -30 -8 23 c-8 20 -3 25 57 55 37 17 70 32 75 32 5 0 7 -11 5 -25z m-1256
-172 c6 -84 4 -86 -79 -73 -32 6 -59 10 -60 10 -2 0 -3 18 -3 39 0 38 2 41 62
75 35 19 66 32 69 28 4 -4 9 -39 11 -79z m-6810 62 c11 -5 13 -20 7 -77 -5
-38 -10 -72 -12 -75 -5 -4 -88 26 -100 37 -5 4 -6 33 -2 64 l7 56 43 0 c24 0
50 -2 57 -5z m151 -11 c53 -9 49 -34 -5 -34 -57 0 -88 9 -88 26 0 15 31 18 93
8z m-613 -53 c0 -46 -1 -49 -31 -55 -17 -3 -74 -6 -125 -6 l-94 0 0 35 c0 38
-11 33 145 60 44 7 86 13 93 14 8 1 12 -15 12 -48z m3825 -11 c3 -5 -1 -10 -9
-10 -9 0 -16 5 -16 10 0 6 4 10 9 10 6 0 13 -4 16 -10z m-1345 -287 c0 -115
-6 -125 -41 -64 -27 47 -29 58 -29 158 l0 108 35 -60 c31 -55 34 -67 35 -142z
m1554 176 c-6 -11 -24 -2 -24 11 0 5 7 7 15 4 8 -4 12 -10 9 -15z m203 -107
c6 -27 -9 -42 -44 -42 -17 0 -23 -6 -23 -21 0 -14 -5 -19 -17 -17 -14 3 -19
15 -21 62 -5 86 -1 90 53 64 30 -15 48 -31 52 -46z m2533 15 c0 -33 -2 -34
-62 -52 -35 -9 -71 -20 -80 -22 -12 -4 -18 0 -18 10 0 13 130 95 153 97 4 0 7
-15 7 -33z m-192 -143 c-2 -2 -30 -6 -61 -10 -49 -6 -57 -4 -57 9 0 10 23 28
58 46 l57 29 3 -35 c2 -19 2 -37 0 -39z m-779 52 c6 -4 11 -37 11 -78 0 -68
-1 -70 -22 -65 -13 3 -51 11 -86 18 -34 6 -64 14 -66 18 -2 3 -7 33 -11 65
l-7 59 85 -5 c47 -3 90 -9 96 -12z m466 -14 c37 8 31 -16 -10 -41 -24 -14 -37
-30 -41 -51 -4 -17 -10 -32 -14 -35 -13 -8 -120 78 -120 97 0 19 15 24 25 8
17 -28 95 3 95 38 0 12 3 12 20 -3 12 -11 29 -16 45 -13z m-64 -193 c49 -45
49 -46 49 -108 l0 -64 -32 27 c-18 14 -52 38 -74 53 -44 29 -54 54 -54 136 l0
38 31 -18 c16 -10 52 -39 80 -64z m-3760 42 c12 -21 14 -32 6 -40 -19 -19 -25
-13 -29 29 -4 47 1 50 23 11z m1907 -43 c18 -50 19 -57 5 -62 -23 -9 -25 -4
-32 69 -8 74 -3 73 27 -7z m207 22 c3 -5 -3 -10 -14 -10 -12 0 -21 5 -21 10 0
6 6 10 14 10 8 0 18 -4 21 -10z m65 -9 c0 -12 -20 -25 -27 -18 -7 7 6 27 18
27 5 0 9 -4 9 -9z"/>
<path d="M8490 6638 c-30 -50 -21 -82 21 -76 19 2 25 11 32 47 7 33 5 46 -5
52 -21 14 -27 11 -48 -23z"/>
<path d="M2178 7741 c-72 -23 -164 -108 -174 -161 -6 -26 -9 -28 -40 -23 -41
7 -81 -17 -90 -53 -5 -20 -11 -24 -28 -20 -11 2 -32 8 -46 11 -20 5 -36 -3
-73 -31 -26 -21 -44 -40 -40 -44 12 -11 1156 -42 1388 -38 110 1 200 7 200 12
0 5 -21 20 -47 35 -42 24 -49 25 -82 13 -33 -12 -39 -11 -65 7 -30 22 -85 27
-111 11 -10 -6 -23 1 -48 31 -37 43 -68 49 -112 24 -35 -20 -37 -19 -60 25
-11 21 -30 48 -42 60 -38 35 -123 22 -182 -29 -17 -15 -19 -15 -30 3 -43 73
-77 114 -114 140 -36 25 -54 31 -110 33 -37 1 -79 -2 -94 -6z"/>
<path d="M9945 7534 c-35 -18 -61 -47 -80 -90 -13 -30 -17 -31 -58 -27 -38 5
-46 2 -63 -19 -15 -19 -27 -24 -50 -21 -21 3 -35 -1 -48 -16 -11 -12 -24 -21
-31 -21 -7 0 -20 -9 -29 -19 -17 -19 -17 -20 10 -38 26 -16 60 -18 379 -22
514 -5 565 -4 573 4 4 4 -11 22 -33 41 -37 33 -43 35 -92 30 -33 -4 -54 -2
-59 5 -4 6 -19 9 -37 5 -23 -5 -33 -2 -44 14 -15 21 -57 27 -68 10 -12 -19
-23 -10 -29 23 -10 51 -59 121 -99 140 -44 21 -103 22 -142 1z"/>
<path d="M7492 7528 c-16 -16 -15 -33 4 -48 22 -19 54 12 38 37 -14 22 -27 26
-42 11z"/>
<path d="M4118 7484 c-9 -18 -9 -30 -1 -42 22 -36 73 -21 73 22 0 48 -53 63
-72 20z"/>
<path d="M7605 7361 c-9 -16 3 -31 26 -31 14 0 19 6 17 17 -4 20 -33 29 -43
14z"/>
<path d="M10690 7330 c-22 -41 14 -84 45 -54 18 18 19 46 3 62 -18 18 -36 15
-48 -8z"/>
<path d="M3894 7296 c-11 -28 1 -51 25 -51 32 0 49 28 32 49 -17 20 -50 21
-57 2z"/>
<path d="M6080 7261 c-14 -26 -12 -132 3 -206 14 -68 20 -64 42 26 25 110 17
199 -20 199 -8 0 -19 -9 -25 -19z"/>
<path d="M5962 7174 c7 -65 36 -133 49 -113 12 19 11 81 -1 113 -5 14 -19 30
-31 36 -21 12 -22 11 -17 -36z"/>
<path d="M8784 7206 c-10 -26 0 -61 19 -64 21 -4 39 36 25 61 -11 21 -37 22
-44 3z"/>
<path d="M8870 7175 c-10 -12 -10 -18 0 -30 20 -25 55 -15 55 15 0 30 -35 40
-55 15z"/>
<path d="M801 7098 c-70 -20 -128 -73 -149 -137 -15 -43 -14 -77 2 -123 l14
-38 -28 0 c-35 0 -63 -26 -57 -52 4 -15 2 -18 -16 -12 -40 13 -50 9 -74 -26
-13 -19 -42 -43 -64 -52 -85 -37 -28 -49 101 -22 57 12 170 17 470 23 376 6
397 8 443 28 26 12 47 26 47 31 0 11 -52 32 -79 32 -9 1 -25 15 -36 33 -24 37
-64 47 -100 23 -30 -20 -35 -20 -35 -2 0 31 -47 68 -114 91 -68 23 -69 23 -86
75 -37 111 -129 160 -239 128z"/>
<path d="M1687 6616 c-12 -29 4 -47 37 -44 26 2 31 7 31 28 0 21 -5 26 -31 28
-21 2 -33 -2 -37 -12z"/>
<path d="M1510 6577 c-48 -24 -30 -107 24 -107 64 1 83 80 26 110 -23 12 -20
12 -50 -3z"/>
<path d="M1295 6456 c-192 -66 -435 -210 -471 -278 -16 -32 -18 -48 -4 -48 5
0 76 39 157 87 184 107 386 208 436 217 20 4 37 11 37 16 0 7 -62 30 -80 30
-3 0 -36 -11 -75 -24z"/>
<path d="M1126 2944 c-20 -20 -20 -27 2 -47 32 -29 92 -14 92 23 0 37 -65 53
-94 24z"/>
<path d="M1073 2825 c-134 -67 -166 -257 -64 -376 124 -145 329 -75 365 124
18 96 -39 212 -124 255 -58 29 -114 28 -177 -3z"/>
<path d="M11849 2737 c-102 -67 -107 -268 -10 -350 68 -56 159 -20 197 78 11
31 23 45 35 45 24 0 39 30 39 77 0 50 -25 86 -54 79 -16 -4 -25 2 -38 24 -20
36 -74 70 -109 70 -14 0 -41 -10 -60 -23z"/>
<path d="M11674 2375 c-33 -22 -47 -68 -42 -132 4 -48 10 -61 37 -85 39 -35
62 -35 102 0 28 25 32 36 41 115 8 67 7 91 -2 102 -8 10 -17 12 -24 6 -7 -6
-17 -6 -26 -1 -22 14 -63 12 -86 -5z"/>
<path d="M1389 2355 c-74 -40 -78 -199 -8 -249 96 -67 206 66 155 188 -28 66
-90 92 -147 61z"/>
<path d="M12009 2228 c-39 -63 -8 -158 51 -158 34 0 59 28 67 74 15 95 -72
157 -118 84z"/>
<path d="M12200 2036 c-7 -10 -10 -26 -6 -42 5 -19 12 -25 29 -22 18 2 22 9
22 38 0 39 -23 52 -45 26z"/>
<path d="M1186 2014 c-25 -25 -20 -71 9 -90 24 -16 27 -16 45 1 35 32 17 105
-25 105 -7 0 -21 -7 -29 -16z"/>
<path d="M9800 1668 c-38 -63 -18 -171 34 -184 60 -15 101 29 101 106 0 65
-28 104 -78 108 -32 3 -39 -1 -57 -30z"/>
<path d="M5095 1632 c-116 -54 -157 -194 -90 -308 92 -157 313 -102 343 86 5
30 12 62 16 71 8 19 -64 111 -110 140 -47 29 -111 33 -159 11z"/>
<path d="M9390 1501 c-13 -26 4 -64 27 -59 25 5 40 35 27 56 -16 25 -41 26
-54 3z"/>
<path d="M9666 1445 c-20 -20 -20 -35 -2 -60 19 -26 46 -13 46 23 0 40 -22 58
-44 37z"/>
<path d="M5351 1295 c-40 -34 -56 -84 -41 -130 14 -42 63 -85 96 -85 38 0 82
27 99 60 31 60 10 137 -45 165 -42 22 -74 19 -109 -10z"/>
<path d="M5172 1168 c-25 -25 -6 -68 30 -68 9 0 22 9 28 20 22 40 -26 80 -58
48z"/>
</g>
</svg>
