<?xml version="1.0" standalone="no"?>
<!DOCTYPE svg PUBLIC "-//W3C//DTD SVG 20010904//EN"
 "http://www.w3.org/TR/2001/REC-SVG-20010904/DTD/svg10.dtd">
<svg version="1.0" xmlns="http://www.w3.org/2000/svg"
 width="1280.000000pt" height="1280.000000pt" viewBox="0 0 1280.000000 1280.000000"
 preserveAspectRatio="xMidYMid meet">
<metadata>
Created by potrace 1.15, written by Peter Selinger 2001-2017
</metadata>
<g transform="translate(0.000000,1280.000000) scale(0.100000,-0.100000)"
fill="#000000" stroke="none">
<path d="M8130 11704 c-97 -41 -112 -52 -197 -137 -59 -58 -102 -111 -119
-144 l-26 -54 -36 23 c-21 12 -75 46 -121 75 -91 57 -105 60 -205 42 -45 -7
-84 -24 -145 -62 -83 -52 -84 -53 -131 -146 -57 -113 -70 -170 -70 -310 l0
-106 56 -83 c30 -46 54 -85 52 -87 -2 -2 -49 -10 -105 -19 -56 -8 -111 -19
-122 -25 -17 -10 -101 -124 -129 -177 -13 -24 -33 -142 -34 -193 0 -53 107
-155 239 -227 57 -31 106 -60 108 -65 3 -4 -22 -22 -55 -40 -57 -30 -64 -38
-117 -132 -65 -116 -81 -164 -90 -263 l-6 -71 -46 -16 c-25 -9 -71 -21 -101
-26 -192 -36 -519 -117 -785 -195 -162 -47 -299 -86 -410 -118 -86 -24 -335
-86 -510 -128 -71 -17 -170 -40 -220 -52 -49 -12 -98 -28 -107 -36 -22 -18
-23 -45 -4 -62 12 -9 21 -7 43 9 16 12 92 36 178 56 83 20 188 45 235 56 47
11 112 27 145 34 94 22 447 121 725 203 160 47 505 133 655 163 83 16 170 37
194 46 50 19 40 26 114 -76 30 -42 38 -47 162 -88 71 -24 146 -43 167 -43 21
0 38 -1 38 -3 0 -2 -11 -41 -25 -87 -14 -46 -25 -92 -25 -102 0 -10 -6 -18
-12 -18 -7 0 -74 -7 -148 -15 -239 -27 -392 -44 -535 -59 -167 -18 -377 -42
-495 -56 -47 -5 -164 -15 -260 -20 -169 -10 -295 -20 -505 -41 -207 -21 -271
-30 -323 -45 -46 -13 -53 -18 -50 -37 2 -18 11 -23 41 -25 21 -2 45 2 53 8 23
20 354 54 819 85 121 8 236 17 255 20 35 6 173 21 449 50 79 8 158 17 175 20
17 3 96 12 176 21 80 8 189 20 243 26 53 5 103 8 111 5 8 -3 17 -35 23 -84 6
-43 12 -85 14 -93 3 -12 -12 -16 -76 -22 -44 -3 -143 -11 -220 -17 -77 -7
-297 -16 -490 -21 -192 -5 -399 -14 -460 -19 -96 -8 -481 -79 -528 -97 -21 -8
-23 -40 -3 -47 8 -3 104 12 213 35 253 52 428 67 883 78 201 4 424 13 495 20
72 7 152 13 179 14 l50 1 57 -87 58 -86 147 -73 147 -73 193 11 c187 11 195
12 256 43 35 18 78 41 97 53 37 22 54 21 252 -15 64 -11 70 -10 230 33 l164
44 100 86 c168 145 173 151 281 354 l102 190 28 177 c16 98 33 178 39 178 5 0
66 18 135 41 101 33 155 58 277 131 170 102 151 78 229 288 l46 125 -6 126
c-10 203 -15 220 -112 401 -48 90 -96 175 -106 190 -21 31 -243 170 -315 198
-26 10 -94 26 -151 36 -100 17 -103 18 -97 41 5 22 -33 196 -56 255 -9 22
-192 195 -263 249 -11 9 -85 41 -164 72 l-142 57 -283 0 -282 0 -105 -46z
m777 -112 c129 -52 135 -56 245 -156 122 -110 137 -135 153 -254 11 -79 6 -82
-141 -82 -120 0 -126 -1 -233 -41 -62 -23 -122 -52 -136 -66 -45 -45 -85 -115
-85 -148 0 -50 29 -134 50 -145 10 -5 62 -10 116 -10 95 0 99 1 208 51 153 70
183 93 227 169 21 36 44 69 51 73 7 5 69 -2 143 -15 129 -24 131 -25 261 -102
l131 -77 89 -166 c94 -176 98 -188 113 -363 l8 -104 -51 -138 -51 -137 -74
-46 c-139 -86 -199 -116 -302 -150 -57 -19 -108 -35 -115 -35 -7 0 -14 25 -18
62 -4 34 -13 76 -21 93 -7 16 -64 81 -127 143 l-115 112 -102 0 c-56 0 -110
-4 -120 -10 -10 -5 -33 -46 -51 -90 -36 -90 -36 -102 15 -216 21 -47 30 -56
119 -108 120 -71 129 -74 226 -82 95 -8 90 10 55 -195 -24 -146 -24 -148 -100
-289 -42 -78 -86 -158 -99 -178 -20 -32 -215 -214 -250 -234 -7 -4 -71 -23
-142 -43 -104 -29 -139 -34 -179 -29 -89 12 -88 7 -34 119 58 120 77 194 61
230 -13 27 -117 85 -155 85 -36 0 -202 -86 -215 -112 -17 -33 -62 -169 -62
-187 0 -17 18 -54 51 -108 l20 -32 -58 -29 c-57 -29 -100 -36 -353 -56 -39 -3
-62 5 -170 58 -111 55 -129 67 -157 110 -23 34 -30 53 -24 64 12 24 3 42 -23
42 -35 0 -53 45 -66 165 l-12 110 31 98 c17 54 33 102 36 107 3 5 27 12 53 16
26 3 65 14 87 24 54 23 184 133 212 179 25 40 30 98 10 124 -15 22 -121 51
-157 43 -15 -2 -66 -31 -114 -63 -76 -50 -90 -65 -113 -113 -46 -95 -58 -107
-111 -115 -38 -5 -67 0 -152 28 -96 30 -108 37 -137 76 -27 35 -31 46 -22 62
12 24 -4 51 -27 42 -34 -13 3 127 59 224 45 76 52 83 118 117 38 20 75 36 81
36 21 0 48 33 48 60 0 39 -59 89 -195 165 -66 36 -140 85 -163 108 l-44 42 6
60 c4 42 16 75 38 112 61 100 63 101 164 113 88 11 93 10 159 -16 62 -25 70
-26 94 -13 20 11 27 24 29 52 3 34 -3 43 -56 100 -33 34 -83 97 -111 139 -47
71 -51 81 -51 138 0 87 25 184 68 265 33 62 44 74 101 107 40 23 83 39 116 43
51 7 53 6 152 -58 114 -74 132 -99 114 -163 -18 -63 -13 -86 34 -182 43 -89
47 -94 121 -142 108 -70 127 -69 210 16 l64 65 0 81 c0 76 -2 84 -35 133 -27
42 -47 58 -99 83 -35 17 -83 36 -105 42 -23 6 -41 15 -41 21 0 5 13 35 29 67
19 38 56 83 108 132 66 62 94 81 168 112 l90 38 250 -3 250 -2 132 -53z m-955
-439 c108 -48 139 -129 74 -192 -33 -32 -37 -33 -64 -22 -40 17 -64 44 -101
116 -25 48 -30 67 -25 97 6 35 9 37 33 32 14 -4 52 -18 83 -31z m1278 -158 c0
-19 -35 -67 -62 -88 -55 -40 -220 -110 -270 -115 -80 -8 -98 24 -52 90 22 32
42 44 128 77 86 34 113 40 179 40 42 1 77 -1 77 -4z m50 -1132 c94 -94 98
-100 104 -151 l7 -53 -72 7 c-59 6 -85 15 -152 52 -72 41 -82 51 -104 99 l-24
52 20 46 20 45 52 0 52 0 97 -97z m-1556 -342 c7 -11 -118 -118 -153 -132 -61
-24 -22 41 59 97 64 44 84 52 94 35z m778 -622 c26 -14 21 -39 -28 -143 -26
-54 -47 -84 -68 -97 -17 -10 -35 -18 -40 -16 -4 1 -19 21 -31 42 l-23 40 19
60 c17 57 22 62 76 92 67 36 68 36 95 22z"/>
<path d="M6773 10668 c-41 -20 -40 -58 0 -58 31 0 67 27 67 51 0 21 -30 25
-67 7z"/>
<path d="M6427 10094 c-137 -85 -187 -121 -187 -135 0 -11 6 -22 13 -25 16 -6
384 214 392 235 5 13 -11 41 -24 41 -4 0 -91 -52 -194 -116z"/>
<path d="M6770 10010 c0 -13 7 -20 20 -20 13 0 20 7 20 20 0 13 -7 20 -20 20
-13 0 -20 -7 -20 -20z"/>
<path d="M6488 9921 c-18 -15 -58 -36 -88 -46 -146 -46 -394 -153 -527 -226
-180 -99 -511 -264 -768 -381 -104 -48 -279 -130 -389 -182 -191 -92 -199 -95
-222 -79 -22 14 -23 17 -9 33 23 26 19 67 -10 86 -36 23 -134 15 -205 -18 -30
-15 -81 -34 -113 -43 -55 -16 -97 -46 -97 -70 0 -6 -18 -46 -39 -89 -40 -77
-40 -77 -25 -124 7 -26 14 -73 14 -105 0 -49 7 -72 51 -160 60 -119 111 -265
99 -287 -10 -20 4 -56 25 -64 9 -3 34 -3 54 0 34 5 39 4 44 -17 11 -40 8 -45
-33 -64 -73 -33 -95 -69 -109 -175 -6 -51 -16 -102 -22 -112 -14 -25 -83 -55
-187 -79 -73 -17 -91 -26 -140 -68 -32 -27 -102 -71 -157 -99 -61 -30 -125
-72 -163 -106 -35 -31 -88 -71 -118 -88 -35 -19 -71 -51 -96 -84 -22 -30 -62
-69 -88 -88 -52 -37 -259 -263 -275 -301 -6 -13 -33 -48 -62 -78 -57 -61 -68
-93 -61 -184 6 -72 33 -98 93 -90 23 4 49 9 58 13 16 6 17 -17 17 -324 0 -195
4 -351 11 -383 6 -30 14 -121 18 -204 5 -82 27 -276 50 -430 58 -392 75 -509
115 -795 40 -291 48 -341 62 -420 9 -47 25 -121 35 -165 13 -57 19 -118 19
-211 0 -111 4 -148 29 -245 16 -63 32 -147 36 -187 4 -40 18 -125 31 -190 30
-142 59 -331 73 -472 6 -58 15 -145 21 -195 5 -49 16 -155 24 -235 8 -80 26
-201 40 -270 16 -83 26 -169 28 -256 l3 -131 -61 -74 c-33 -41 -66 -84 -72
-96 -16 -30 -15 -98 2 -132 22 -41 98 -107 142 -121 21 -7 66 -30 100 -51 63
-38 165 -89 179 -89 4 0 51 -20 104 -44 53 -24 150 -58 217 -75 66 -17 142
-38 170 -47 52 -17 201 -28 559 -43 116 -4 226 -13 245 -20 75 -24 202 -14
470 38 281 55 501 137 700 263 92 58 354 268 369 296 5 9 41 53 80 97 83 94
124 170 147 277 16 74 16 78 -3 110 -15 26 -38 41 -118 75 -55 23 -104 44
-110 46 -6 2 -12 83 -16 198 -6 179 -9 205 -43 337 -29 118 -36 162 -36 243 0
75 -7 128 -30 221 -16 68 -34 164 -39 213 -5 50 -21 137 -36 195 -28 112 -46
232 -65 425 -6 66 -15 146 -21 178 -6 32 -12 84 -14 115 -2 31 -17 102 -34
157 -18 55 -41 161 -52 235 -11 74 -33 176 -48 225 -33 103 -51 259 -51 438 0
64 -4 149 -10 189 -5 40 -14 111 -19 158 -6 47 -15 117 -20 155 -5 39 -12 136
-14 217 l-4 146 34 -16 c24 -11 36 -13 44 -5 20 20 -1 50 -49 70 l-48 20 -12
74 c-7 41 -20 125 -28 188 -9 68 -26 144 -44 190 -21 57 -31 108 -40 206 -6
72 -13 137 -16 146 -3 12 4 18 23 22 42 10 122 64 135 92 9 20 5 41 -22 122
-41 126 -83 205 -121 227 -16 9 -56 56 -88 104 -54 81 -64 91 -146 137 -48 28
-116 74 -151 103 -96 79 -132 101 -193 118 -31 9 -77 29 -104 45 -26 16 -67
33 -91 39 -25 5 -80 25 -123 44 -43 19 -105 39 -138 46 -88 17 -93 19 -100 40
-4 11 -44 41 -92 67 -61 34 -93 59 -109 85 -24 38 -69 68 -101 68 -16 0 -19 8
-18 59 0 56 2 60 26 65 47 9 61 33 56 90 -9 90 -26 204 -37 245 -8 32 -7 58 6
123 12 57 15 107 11 164 l-6 81 132 63 c341 163 423 202 585 274 142 64 416
202 607 306 154 84 355 170 518 224 116 38 175 87 146 122 -16 20 -24 18 -61
-15z m-2273 -1074 c1 -90 5 -131 17 -158 21 -48 97 -100 154 -107 24 -2 49
-11 55 -18 6 -7 14 -53 18 -102 4 -49 11 -94 15 -100 5 -9 -19 -12 -93 -12
-54 0 -106 -3 -115 -6 -11 -4 -18 5 -26 37 -7 24 -36 92 -66 151 -31 63 -54
121 -54 140 0 17 -5 59 -10 92 -11 60 -10 63 24 126 23 42 43 67 58 72 13 3
23 6 23 7 0 1 0 -54 0 -122z m245 -28 c0 -78 -9 -97 -30 -60 -11 22 -14 144
-3 154 3 4 12 2 20 -4 9 -8 13 -37 13 -90z m-143 14 c-2 -16 -4 -5 -4 22 0 28
2 40 4 28 2 -13 2 -35 0 -50z m236 -866 c28 -30 61 -59 72 -65 32 -17 11 -25
-77 -29 -46 -2 -131 -16 -190 -30 -59 -15 -110 -24 -113 -21 -9 8 7 127 19
144 16 21 128 52 189 53 45 1 51 -2 100 -52z m293 -203 c74 -15 151 -37 183
-53 31 -16 79 -33 106 -40 28 -7 70 -25 95 -40 25 -16 77 -38 117 -50 61 -18
82 -31 143 -87 40 -36 99 -78 134 -95 35 -17 78 -44 97 -60 l34 -30 -45 6
c-101 14 -157 36 -207 81 -26 25 -58 47 -70 50 -14 4 -23 15 -25 32 -3 23 -16
34 -88 69 -47 23 -95 42 -108 42 -13 1 -36 8 -51 16 -37 19 -121 14 -135 -8
-9 -15 -13 -14 -44 5 -27 17 -44 20 -87 15 -49 -5 -55 -3 -81 24 -32 34 -69
36 -69 4 0 -30 -9 -33 -101 -29 -74 2 -90 6 -119 28 -40 31 -59 33 -78 6 -12
-17 -17 -18 -45 -8 -29 11 -34 10 -59 -14 -22 -21 -31 -24 -45 -15 -13 9 -21
7 -36 -6 -25 -23 -45 -22 -37 2 9 29 -20 47 -51 32 -19 -8 -30 -9 -40 0 -10 8
-32 3 -91 -19 -43 -17 -98 -37 -123 -46 -47 -17 -236 -160 -413 -314 -73 -63
-133 -105 -195 -136 l-91 -46 69 70 c39 38 70 74 70 79 0 5 28 25 61 42 34 18
87 57 118 87 39 38 90 71 166 109 61 30 128 72 150 93 32 31 54 42 110 55 39
9 99 27 134 41 104 42 406 114 480 115 36 1 77 5 91 9 38 12 39 12 176 -16z
m-291 -208 c18 -13 18 -14 -3 -25 -32 -17 -42 -13 -42 14 0 28 17 32 45 11z
m-685 -110 c0 -2 -19 -16 -41 -31 -23 -15 -38 -22 -34 -15 4 6 21 20 39 31 32
20 36 21 36 15z m1380 -127 c105 -19 204 -42 248 -60 40 -15 100 -33 134 -39
72 -13 150 -50 193 -90 17 -16 49 -36 72 -45 35 -14 44 -24 61 -68 34 -87 36
-97 15 -112 -28 -22 -69 -18 -85 8 -19 28 -150 103 -235 134 -36 13 -126 39
-199 58 l-133 35 -437 0 c-328 0 -459 -4 -528 -14 -50 -8 -149 -22 -221 -31
-401 -50 -473 -64 -603 -116 -69 -28 -142 -59 -163 -70 -48 -24 -280 -186
-296 -206 -11 -14 -76 -34 -155 -47 -35 -6 -38 -5 -38 17 0 78 348 311 640
428 41 16 98 41 125 54 62 29 256 75 319 75 52 0 160 25 275 65 53 18 97 25
150 26 42 0 108 6 146 13 42 8 164 13 305 14 220 1 246 -1 410 -29z m-710
-433 c0 -167 3 -186 30 -186 27 0 31 22 29 184 l-1 151 84 0 83 0 5 -110 c5
-102 7 -110 25 -110 19 0 20 8 23 113 l3 113 72 -3 c70 -3 72 -4 69 -28 -1
-14 4 -34 12 -45 12 -16 16 -17 30 -6 9 8 16 28 16 47 l0 34 126 0 c108 0 143
-4 247 -31 169 -43 277 -82 356 -129 37 -22 73 -40 79 -40 7 0 12 -3 12 -7 6
-255 20 -364 55 -452 14 -34 32 -116 44 -202 11 -79 23 -154 27 -166 8 -29 -4
-29 -74 -3 -29 11 -63 20 -76 20 -14 0 -70 9 -126 20 -73 14 -142 20 -245 20
-96 0 -163 5 -202 15 -71 19 -219 19 -298 1 -33 -8 -91 -17 -130 -21 -172 -16
-346 -59 -595 -147 -138 -48 -180 -58 -275 -65 -84 -5 -95 -9 -175 -54 -47
-27 -93 -49 -102 -49 -10 0 -19 12 -23 33 -4 17 -20 69 -36 115 l-29 84 0 449
0 450 33 14 c18 7 45 17 60 20 l27 7 0 -185 c0 -122 4 -195 12 -214 7 -16 14
-103 17 -203 6 -166 7 -175 26 -175 19 0 20 8 23 173 2 132 -1 185 -13 224
-21 71 -22 383 -1 391 8 3 46 9 85 13 l71 7 0 -204 c0 -212 18 -381 42 -405 8
-9 18 -10 28 -4 12 7 12 23 2 107 -7 54 -12 193 -12 309 l0 211 53 7 c28 3 67
6 85 6 l32 0 0 -167 c1 -231 25 -342 67 -301 15 15 15 24 -1 115 -21 129 -22
358 -2 366 8 3 42 9 75 13 l61 7 0 -39 c0 -71 19 -321 26 -338 8 -20 40 -21
48 0 3 8 2 70 -4 137 -5 67 -11 150 -13 184 l-3 62 45 9 c99 21 91 33 91 -142z
m-1010 -142 c0 -8 -4 -12 -10 -9 -5 3 -10 10 -10 16 0 5 5 9 10 9 6 0 10 -7
10 -16z m0 -67 c0 -29 -5 -36 -45 -55 -52 -25 -55 -26 -55 -12 0 5 18 22 40
36 22 14 42 35 45 45 9 28 15 23 15 -14z m-252 -9 c8 -2 2 -13 -18 -33 l-30
-29 0 40 c0 46 8 60 24 40 6 -8 17 -15 24 -18z m-93 -428 c3 -151 11 -306 17
-345 6 -38 14 -108 18 -155 3 -47 13 -107 21 -133 13 -47 13 -49 -11 -67 -33
-25 -129 -64 -138 -56 -3 4 -10 69 -13 144 -4 75 -12 169 -18 207 -6 39 -11
219 -11 402 0 366 -6 332 62 347 15 4 33 16 40 29 12 20 13 17 19 -38 4 -33
10 -184 14 -335z m92 302 c-31 -32 -33 -44 -12 -62 13 -11 22 -10 51 3 19 10
37 17 39 17 2 0 -21 -23 -51 -52 -48 -45 -54 -55 -49 -80 4 -17 2 -28 -4 -28
-6 0 -11 20 -11 49 0 26 -3 75 -6 109 l-7 60 29 5 c16 2 33 5 38 6 6 0 -2 -12
-17 -27z m253 -6 c0 -20 -4 -22 -25 -18 -25 4 -25 5 -9 23 23 25 34 24 34 -5z
m0 -89 c0 -32 -2 -33 -52 -44 -29 -6 -54 -10 -56 -8 -3 3 99 84 106 85 1 0 2
-15 2 -33z m0 -174 l0 -68 -37 -1 c-21 0 -54 -4 -73 -8 l-35 -8 39 33 c22 19
46 39 54 45 9 6 16 20 17 30 0 11 4 25 9 32 17 28 26 8 26 -55z m-211 36 c64
19 68 13 16 -25 -86 -61 -85 -61 -85 -8 0 41 2 45 15 34 12 -10 24 -10 54 -1z
m211 -197 l0 -59 -55 10 c-30 6 -55 13 -54 16 0 5 100 90 107 91 1 0 2 -26 2
-58z m-207 -8 l42 6 -42 -36 c-70 -58 -50 -90 43 -68 32 7 56 8 60 3 3 -5 1
-9 -5 -9 -6 0 -43 -16 -82 -35 -40 -19 -76 -35 -81 -35 -4 0 -8 43 -8 96 0 85
2 95 15 84 10 -8 30 -10 58 -6z m1883 -69 c34 -10 95 -15 197 -15 106 0 177
-6 245 -19 54 -11 117 -22 142 -26 66 -10 179 -54 190 -75 10 -18 14 -70 6
-70 -3 0 -40 15 -83 33 l-78 32 -365 3 c-226 2 -414 -1 -495 -8 -71 -7 -185
-14 -253 -16 -164 -5 -270 -19 -411 -54 -64 -16 -159 -34 -211 -40 -52 -6
-128 -20 -168 -31 -89 -24 -92 -24 -92 1 0 31 50 50 128 50 71 0 144 17 297
69 269 92 366 115 600 146 61 8 128 19 150 24 63 14 147 12 201 -4z m-1648
-163 c18 -59 33 -112 32 -117 0 -10 -51 -45 -64 -45 -4 0 -6 6 -5 13 5 39 2
40 -96 34 -52 -4 -95 -5 -95 -3 0 2 39 30 88 62 99 66 113 80 105 101 -5 13
-18 14 -72 9 l-66 -6 60 29 c33 16 65 30 70 30 6 0 25 -48 43 -107z m-208 -27
c0 -6 -62 -45 -72 -45 -5 0 -8 11 -8 25 0 23 4 25 40 25 22 0 40 -2 40 -5z
m2436 -59 c71 -19 186 -65 207 -84 14 -12 17 -32 17 -101 0 -47 5 -115 10
-151 24 -156 32 -238 40 -440 11 -269 22 -356 59 -467 16 -49 34 -134 41 -192
6 -57 25 -149 41 -205 16 -55 29 -104 29 -108 0 -4 -19 -17 -42 -29 -24 -12
-67 -39 -96 -61 -76 -57 -135 -80 -385 -153 -199 -58 -410 -132 -552 -195 -67
-30 -301 -79 -458 -96 -70 -7 -173 -25 -230 -40 -56 -14 -174 -36 -262 -49
-88 -13 -207 -35 -265 -49 -58 -13 -145 -32 -195 -40 -49 -9 -137 -25 -195
-36 -58 -11 -112 -20 -120 -20 -11 0 -23 31 -43 113 -22 92 -27 134 -27 237 0
98 -6 149 -25 235 -22 95 -61 333 -96 585 -17 129 -99 693 -105 731 -6 34 -3
38 129 165 127 122 140 131 204 151 37 11 113 37 168 58 166 61 353 112 480
129 66 8 154 24 195 35 141 37 255 52 465 62 116 6 239 14 275 18 118 14 679
12 736 -3z m-2386 -89 c0 -2 -21 -18 -46 -37 -46 -33 -60 -32 -66 5 -2 16 4
21 37 26 53 8 75 10 75 6z m-265 -287 c-21 -23 -35 -26 -35 -6 0 13 15 21 44
25 5 0 1 -8 -9 -19z m3123 -1529 c7 -49 -85 -96 -303 -156 -66 -18 -135 -44
-265 -100 -185 -80 -365 -136 -515 -160 -22 -3 -83 -19 -135 -34 -52 -16 -151
-36 -220 -46 -69 -10 -147 -21 -175 -26 -27 -4 -75 -8 -105 -8 -114 -1 -2 25
210 49 153 17 380 69 464 106 144 64 337 132 521 184 243 70 326 103 415 166
80 57 103 63 108 25z m16 -148 c3 -27 12 -111 21 -188 14 -134 32 -239 55
-315 10 -33 30 -159 45 -275 4 -27 20 -101 36 -164 23 -89 29 -135 29 -215 0
-76 6 -126 24 -196 44 -171 56 -265 56 -451 0 -124 4 -190 14 -224 15 -47 15
-48 -17 -90 -24 -33 -48 -50 -97 -71 -42 -18 -87 -48 -125 -84 -37 -35 -99
-77 -160 -110 -55 -29 -111 -60 -125 -70 -55 -39 -188 -98 -245 -110 -33 -6
-121 -31 -195 -55 -144 -46 -175 -52 -455 -86 -189 -23 -256 -22 -475 4 -101
13 -108 15 -163 57 -74 55 -97 96 -142 250 -37 128 -40 141 -94 415 -17 88
-36 183 -41 210 -6 28 -17 100 -25 160 -9 61 -22 144 -30 185 -26 135 -45 258
-50 317 -8 107 -35 275 -72 461 -10 50 -13 86 -7 91 5 5 68 21 140 35 72 14
170 40 219 56 69 23 106 30 168 30 123 0 489 61 548 91 9 4 60 15 114 24 119
19 319 84 520 169 83 35 177 72 210 81 151 44 275 87 285 101 20 23 27 16 34
-33z m-1945 -423 c-9 -5 -74 -21 -145 -35 -71 -14 -137 -27 -146 -29 -10 -3
-18 2 -18 10 0 17 59 33 180 49 125 16 150 17 129 5z m-376 -70 c-4 -5 -21
-12 -37 -16 -22 -5 -28 -4 -24 7 5 14 47 29 61 21 5 -2 5 -8 0 -12z m21 -92
c2 -13 9 -48 15 -78 6 -30 15 -80 20 -112 8 -56 8 -56 -15 -46 -31 15 -63 98
-71 185 l-6 73 26 0 c20 0 28 -6 31 -22z m-394 -73 c4 -2 10 -53 13 -112 4
-59 16 -148 27 -198 58 -248 72 -336 80 -495 5 -91 14 -183 19 -205 6 -22 11
-75 11 -118 0 -44 11 -132 25 -199 14 -66 25 -146 25 -177 0 -68 19 -103 44
-82 15 12 16 5 16 -82 0 -88 2 -98 26 -127 15 -17 25 -33 22 -35 -2 -2 -53 28
-113 68 -128 85 -122 70 -134 297 -4 76 -19 189 -33 260 -15 69 -33 202 -42
295 -16 163 -46 435 -66 595 -5 41 -20 125 -34 185 -36 158 -39 149 41 141 36
-4 69 -9 73 -11z m170 -29 c0 -11 -19 -15 -25 -6 -3 5 1 10 9 10 9 0 16 -2 16
-4z m123 -60 c4 -10 1 -13 -8 -9 -8 3 -12 9 -9 14 7 12 11 11 17 -5z m-159
-223 c9 -61 16 -131 15 -155 -1 -42 -1 -41 -19 27 -27 99 -60 282 -59 324 0
35 1 34 23 -24 13 -33 31 -110 40 -172z m48 205 c6 -17 -1 -38 -13 -38 -5 0
-9 11 -9 25 0 26 14 34 22 13z m38 -124 c-18 -33 -5 -55 39 -67 31 -8 32 -9
17 -26 -9 -10 -14 -25 -11 -32 6 -17 -20 -57 -30 -47 -4 4 -16 44 -26 89 -18
77 -18 83 -3 101 23 24 31 14 14 -18z m170 6 c0 -5 -5 -10 -11 -10 -5 0 -7 5
-4 10 3 6 8 10 11 10 2 0 4 -4 4 -10z m70 -95 c0 -25 0 -48 1 -52 0 -5 -7 -9
-16 -11 -23 -5 -31 27 -10 42 13 9 16 20 11 39 -4 16 -2 27 4 27 5 0 10 -20
10 -45z m-185 -175 c-17 -19 -17 -21 -1 -39 14 -15 18 -38 18 -103 l1 -83 39
-33 c21 -19 38 -38 38 -43 0 -8 -78 -2 -89 7 -3 3 -6 23 -31 208 -12 92 -9
105 29 106 11 0 10 -5 -4 -20z m215 -47 c1 -16 7 -64 16 -108 25 -136 44 -249
44 -267 0 -15 -9 -18 -48 -18 -69 0 -100 40 -47 60 40 15 33 53 -20 112 -25
28 -45 54 -45 58 0 4 16 12 36 17 55 13 65 36 30 72 l-28 30 22 35 c26 43 40
46 40 9z m-270 -543 c6 -63 15 -147 21 -186 19 -120 4 -116 -19 6 -12 63 -22
145 -22 182 0 36 -7 102 -15 145 -8 43 -14 103 -14 133 1 49 3 44 20 -55 10
-60 23 -162 29 -225z m105 190 c34 -35 25 -57 -15 -37 -16 8 -26 23 -28 40 -4
35 7 34 43 -3z m25 -157 c76 -54 77 -68 5 -59 -32 3 -62 9 -66 12 -11 7 -12
84 -1 84 5 0 33 -17 62 -37z m218 -18 c-2 -2 -17 -6 -33 -9 l-30 -6 28 11 c19
8 27 18 28 37 l2 27 4 -28 c3 -16 3 -30 1 -32z m-168 -172 c0 -7 -63 9 -82 21
-10 6 -18 19 -18 28 0 14 8 12 50 -14 28 -17 50 -33 50 -35z m76 47 c8 0 14
-4 14 -10 0 -15 -24 -12 -46 6 -17 14 -17 15 -1 10 10 -3 25 -6 33 -6z m133
-82 c1 -30 -10 -36 -28 -15 -8 10 -7 22 1 46 10 26 14 28 20 14 3 -10 7 -30 7
-45z m-245 -52 l29 -24 -22 -31 c-31 -43 -25 -77 12 -74 16 1 27 -1 25 -5 -2
-4 -17 -34 -33 -67 -28 -57 -30 -58 -33 -30 -1 17 -9 63 -17 104 -19 91 -19
151 -2 151 6 -1 25 -11 41 -24z m239 -49 c31 -10 37 -16 37 -39 l0 -27 -55 36
c-52 34 -75 63 -37 48 9 -3 34 -12 55 -18z m2576 -14 c22 -5 23 -10 18 -54 -8
-63 -49 -143 -106 -204 -26 -27 -62 -71 -80 -96 -31 -44 -79 -87 -231 -204
-237 -184 -454 -274 -835 -346 -55 -11 -133 -26 -173 -34 -91 -19 -132 -19
-202 0 -38 10 -108 15 -230 15 -122 0 -192 5 -230 15 -33 9 -101 15 -172 15
-64 0 -129 5 -145 11 -15 6 -86 26 -158 44 -153 39 -145 36 -260 87 -49 22
-112 49 -140 61 -27 12 -86 43 -129 69 -44 27 -87 48 -95 48 -9 0 -33 14 -54
31 -49 40 -48 70 1 128 l38 44 125 -82 c249 -164 367 -204 869 -297 133 -24
453 -30 597 -11 65 9 159 21 208 27 55 6 143 27 225 54 74 24 169 51 211 60
72 16 233 89 298 136 15 10 66 38 112 61 56 27 104 61 144 100 44 42 79 66
130 87 58 24 78 38 117 86 26 32 61 67 77 77 24 14 31 26 31 49 0 32 2 33 39
23z m-2514 -146 c4 -28 15 -77 25 -107 10 -30 28 -95 41 -144 12 -48 38 -113
56 -143 18 -31 33 -57 33 -59 0 -5 -74 27 -83 36 -5 4 -13 27 -18 51 -12 51
-25 69 -49 69 -10 0 -20 6 -23 13 -3 8 -30 30 -61 51 -47 31 -76 56 -64 56 2
0 25 -7 52 -15 27 -8 59 -15 72 -15 34 0 38 28 8 55 -22 20 -24 27 -14 39 13
17 6 34 -22 54 -15 11 -16 16 -5 33 11 18 8 24 -23 50 l-35 30 36 -6 c23 -4
39 -3 44 4 12 20 23 2 30 -52z m-195 -87 c8 -5 12 -12 9 -15 -8 -8 -39 5 -39
16 0 11 11 11 30 -1z m-102 -78 c2 -12 -1 -22 -7 -22 -6 0 -11 4 -11 9 0 5 -3
17 -7 27 -4 12 -2 15 8 12 8 -2 15 -14 17 -26z"/>
<path d="M5087 6994 c-13 -14 -8 -92 7 -97 23 -9 38 18 34 60 -3 36 -23 54
-41 37z"/>
<path d="M3675 5526 c-33 -9 -40 -16 -40 -36 0 -27 13 -29 88 -15 24 5 37 4
37 -3 0 -6 -17 -16 -37 -22 -102 -33 -343 -168 -423 -237 -48 -43 -50 -46 -50
-99 0 -29 12 -98 26 -151 40 -148 53 -221 54 -293 0 -36 9 -117 20 -180 12
-63 25 -142 31 -175 13 -79 42 -178 69 -240 12 -27 27 -75 35 -105 7 -30 20
-82 29 -115 9 -32 16 -80 16 -106 0 -25 7 -66 15 -89 8 -23 15 -75 15 -115 0
-96 10 -105 116 -105 172 -1 463 90 535 166 21 23 22 25 6 61 -8 21 -23 72
-32 113 -9 41 -34 147 -55 235 -22 88 -57 248 -79 355 -63 303 -99 453 -114
478 -3 4 -13 52 -22 107 -9 55 -30 141 -46 191 -20 62 -29 112 -29 156 0 69
-26 204 -43 226 -12 15 -69 14 -122 -2z m105 -211 c0 -55 8 -100 29 -167 16
-51 34 -124 41 -163 7 -38 27 -126 46 -195 19 -69 41 -159 50 -200 37 -171 44
-209 58 -280 17 -88 36 -170 76 -335 16 -66 38 -160 50 -210 11 -49 23 -99 26
-111 4 -16 -4 -25 -43 -46 -56 -31 -144 -64 -193 -73 -19 -3 -76 -15 -125 -26
-50 -11 -110 -19 -135 -17 l-45 3 -5 90 c-3 50 -11 103 -18 118 -7 16 -12 50
-12 77 0 59 -41 227 -80 324 -47 122 -110 436 -110 555 0 68 -21 195 -40 246
-6 16 -20 71 -32 122 -20 92 -20 95 -2 115 29 31 174 124 216 137 20 7 55 26
79 43 52 37 117 67 147 68 21 0 22 -4 22 -75z"/>
<path d="M5755 9770 c-4 -7 0 -19 8 -27 21 -21 70 -9 65 15 -4 20 -62 29 -73
12z"/>
<path d="M6604 9687 c-9 -25 0 -62 15 -62 22 0 38 32 25 52 -14 23 -33 28 -40
10z"/>
<path d="M5457 9584 c-16 -16 -7 -44 14 -44 15 0 20 5 17 22 -3 22 -19 33 -31
22z"/>
<path d="M5084 9405 c-9 -22 4 -35 36 -35 30 0 45 21 27 39 -16 16 -57 14 -63
-4z"/>
<path d="M6742 9168 c3 -20 9 -23 48 -23 39 0 45 3 48 23 3 20 0 22 -48 22
-48 0 -51 -2 -48 -22z"/>
<path d="M6327 9134 c-4 -4 -7 -16 -7 -26 0 -14 8 -18 36 -18 31 0 35 3 32 23
-2 15 -11 23 -28 25 -14 2 -29 0 -33 -4z"/>
<path d="M6042 9068 c-21 -21 -7 -68 20 -68 17 0 29 40 18 60 -12 23 -21 25
-38 8z"/>
</g>
</svg>
