<svg id="Layer_1" height="512" viewBox="0 0 512 512" width="512" xmlns="http://www.w3.org/2000/svg" data-name="Layer 1"><path d="m501 250h-37.513a6 6 0 0 0 0 12h37.513a6 6 0 0 0 0-12z"/><path d="m489.587 330.148-38.4-13.232a6 6 0 0 0 -3.909 11.346l38.4 13.232a6 6 0 0 0 3.909-11.346z"/><path d="m488.174 177.54-38.784 12.06a6 6 0 1 0 3.563 11.459l38.784-12.059a6 6 0 1 0 -3.563-11.459z"/><circle cx="256" cy="183.025" r="4"/><path d="m256 224.975a4 4 0 0 0 -4 4v100a4 4 0 0 0 8 0v-100a4 4 0 0 0 -4-4z"/><path d="m256 93c-90.174 0-163.536 73.121-163.536 163s73.362 163 163.536 163 163.536-73.121 163.536-163-73.362-163-163.536-163zm-71.381 58.736a126.737 126.737 0 0 0 -54.635 104.264 6 6 0 0 1 -12 0 138.738 138.738 0 0 1 59.816-114.135 6 6 0 0 1 6.823 9.871zm28.554-14.745c-3.653 1.325-7.29 2.841-10.81 4.5a6 6 0 0 1 -5.13-10.848c3.858-1.824 7.844-3.486 11.848-4.938a6 6 0 1 1 4.092 11.281zm58.827 191.984a16 16 0 0 1 -32 0v-100a16 16 0 0 1 32 0zm-16-129.95a16 16 0 1 1 16-16 16.018 16.018 0 0 1 -16 16z"/><path d="m54.513 256a6 6 0 0 0 -6-6h-37.513a6 6 0 0 0 0 12h37.513a6 6 0 0 0 6-6z"/><path d="m64.721 183.738-38.4-13.232a6 6 0 0 0 -3.909 11.346l38.4 13.232a6 6 0 0 0 3.909-11.346z"/><path d="m59.047 310.944-38.784 12.056a6 6 0 1 0 3.563 11.459l38.784-12.059a6 6 0 0 0 -3.563-11.459z"/></svg>