<?xml version="1.0"?>
<svg xmlns="http://www.w3.org/2000/svg" xmlns:xlink="http://www.w3.org/1999/xlink" xmlns:svgjs="http://svgjs.com/svgjs" version="1.1" width="512" height="512" x="0" y="0" viewBox="0 0 512 512" style="enable-background:new 0 0 512 512" xml:space="preserve" class=""><g><path xmlns="http://www.w3.org/2000/svg" d="m256 99c87 0 157.54 70.29 157.54 157s-70.54 157-157.54 157-157.54-70.29-157.54-157 70.54-157 157.54-157z" fill="#f34141cc" data-original="#e75163" style="" class=""/><path xmlns="http://www.w3.org/2000/svg" d="m266 228.97v100a10 10 0 0 1 -20 0v-100a10 10 0 0 1 20 0z" fill="#fcd248" data-original="#eadf53" style="" class=""/><circle xmlns="http://www.w3.org/2000/svg" cx="256" cy="183.03" fill="#fcd248" r="10" data-original="#eadf53" style="" class=""/><path xmlns="http://www.w3.org/2000/svg" d="m128.46 256c0-81.667 62.576-148.758 142.54-156.287-4.938-.465-9.94-.713-15-.713-87 0-157.54 70.29-157.54 157s70.54 157 157.54 157c5.06 0 10.062-.248 15-.713-79.964-7.529-142.54-74.62-142.54-156.287z" fill="#c64a5f" data-original="#c64a5f" style="" class=""/><g xmlns="http://www.w3.org/2000/svg" fill="#284268"><path d="m256 199.025a16 16 0 1 0 -16-16 16.018 16.018 0 0 0 16 16zm0-20a4 4 0 1 1 -4 4 4 4 0 0 1 4-4z" fill="#284268" data-original="#284268" style="" class=""/><path d="m240 328.975a16 16 0 0 0 32 0v-100a16 16 0 0 0 -32 0zm12-100a4 4 0 0 1 8 0v100a4 4 0 0 1 -8 0z" fill="#284268" data-original="#284268" style="" class=""/><path d="m199.8 142.073a5.962 5.962 0 0 0 2.561-.577c3.52-1.664 7.157-3.18 10.81-4.5a6 6 0 1 0 -4.092-11.281c-4 1.452-7.99 3.114-11.848 4.938a6 6 0 0 0 2.569 11.425z" fill="#284268" data-original="#284268" style="" class=""/><path d="m123.984 262a6 6 0 0 0 6-6 126.737 126.737 0 0 1 54.635-104.264 6 6 0 0 0 -6.823-9.871 138.738 138.738 0 0 0 -59.812 114.135 6 6 0 0 0 6 6z" fill="#284268" data-original="#284268" style="" class=""/><path d="m256 93a163.086 163.086 0 0 0 -103.2 36.657 6.012 6.012 0 0 0 -.494 8.924l.006.005a5.994 5.994 0 0 0 8.029.395 151.145 151.145 0 0 1 95.659-33.981c83.557 0 151.536 67.738 151.536 151s-67.979 151-151.536 151-151.536-67.738-151.536-151a149.842 149.842 0 0 1 29.289-89.137 5.993 5.993 0 1 0 -9.669-7.083 161.758 161.758 0 0 0 -31.62 96.22c0 89.879 73.362 163 163.536 163s163.536-73.121 163.536-163-73.362-163-163.536-163z" fill="#284268" data-original="#284268" style="" class=""/><path d="m501 250h-37.513a6 6 0 0 0 0 12h37.513a6 6 0 0 0 0-12z" fill="#284268" data-original="#284268" style="" class=""/><path d="m54.513 256a6 6 0 0 0 -6-6h-37.513a6 6 0 0 0 0 12h37.513a6 6 0 0 0 6-6z" fill="#284268" data-original="#284268" style="" class=""/><path d="m489.587 330.148-38.4-13.232a6 6 0 0 0 -3.909 11.346l38.4 13.232a6 6 0 0 0 3.909-11.346z" fill="#284268" data-original="#284268" style="" class=""/><path d="m64.721 183.738-38.4-13.232a6 6 0 0 0 -3.909 11.346l38.4 13.232a6 6 0 0 0 3.909-11.346z" fill="#284268" data-original="#284268" style="" class=""/><path d="m451.169 201.328a6.021 6.021 0 0 0 1.784-.272l38.784-12.056a6 6 0 1 0 -3.563-11.459l-38.784 12.059a6 6 0 0 0 1.779 11.731z" fill="#284268" data-original="#284268" style="" class=""/><path d="m59.047 310.944-38.784 12.056a6 6 0 1 0 3.563 11.459l38.784-12.059a6 6 0 0 0 -3.563-11.459z" fill="#284268" data-original="#284268" style="" class=""/></g></g></svg>
