<svg id="Layer_1" height="512" viewBox="0 0 512 512" width="512" xmlns="http://www.w3.org/2000/svg" xmlns:xlink="http://www.w3.org/1999/xlink" data-name="Layer 1"><linearGradient id="linear-gradient" gradientUnits="userSpaceOnUse" x1="256" x2="256" y1="329.556" y2="192.537"><stop offset=".322" stop-color="#a163f5"/><stop offset=".466" stop-color="#b074ee"/><stop offset=".752" stop-color="#d8a1dd"/><stop offset=".898" stop-color="#efbad3"/></linearGradient><linearGradient id="linear-gradient-3" x1="205.463" x2="205.463" xlink:href="#linear-gradient" y1="329.556" y2="192.537"/><linearGradient id="linear-gradient-4" x1="152.596" x2="152.596" xlink:href="#linear-gradient" y1="329.556" y2="192.537"/><linearGradient id="linear-gradient-6" x1="482.243" x2="482.243" xlink:href="#linear-gradient" y1="329.556" y2="192.537"/><linearGradient id="linear-gradient-7" x1="29.757" x2="29.757" xlink:href="#linear-gradient" y1="329.556" y2="192.537"/><linearGradient id="linear-gradient-8" x1="468.433" x2="468.433" xlink:href="#linear-gradient" y1="329.556" y2="192.537"/><linearGradient id="linear-gradient-9" x1="43.567" x2="43.567" xlink:href="#linear-gradient" y1="329.556" y2="192.537"/><linearGradient id="linear-gradient-10" x1="470.563" x2="470.563" xlink:href="#linear-gradient" y1="329.556" y2="192.537"/><linearGradient id="linear-gradient-11" x1="41.437" x2="41.437" xlink:href="#linear-gradient" y1="329.556" y2="192.537"/><path d="m256 199.025a16 16 0 1 0 -16-16 16.018 16.018 0 0 0 16 16zm0-20a4 4 0 1 1 -4 4 4 4 0 0 1 4-4z" fill="url(#linear-gradient)"/><path d="m240 328.975a16 16 0 0 0 32 0v-100a16 16 0 0 0 -32 0zm12-100a4 4 0 0 1 8 0v100a4 4 0 0 1 -8 0z" fill="url(#linear-gradient)"/><path d="m199.8 142.073a5.962 5.962 0 0 0 2.561-.577c3.52-1.664 7.157-3.18 10.81-4.5a6 6 0 1 0 -4.092-11.281c-4 1.452-7.99 3.114-11.848 4.938a6 6 0 0 0 2.569 11.425z" fill="url(#linear-gradient-3)"/><path d="m123.984 262a6 6 0 0 0 6-6 126.737 126.737 0 0 1 54.635-104.264 6 6 0 0 0 -6.823-9.871 138.738 138.738 0 0 0 -59.812 114.135 6 6 0 0 0 6 6z" fill="url(#linear-gradient-4)"/><path d="m256 93a163.086 163.086 0 0 0 -103.2 36.657 6.012 6.012 0 0 0 -.494 8.924l.006.005a5.994 5.994 0 0 0 8.029.395 151.145 151.145 0 0 1 95.659-33.981c83.557 0 151.536 67.738 151.536 151s-67.979 151-151.536 151-151.536-67.738-151.536-151a149.842 149.842 0 0 1 29.289-89.137 5.993 5.993 0 1 0 -9.669-7.083 161.758 161.758 0 0 0 -31.62 96.22c0 89.879 73.362 163 163.536 163s163.536-73.121 163.536-163-73.362-163-163.536-163z" fill="url(#linear-gradient)"/><path d="m501 250h-37.513a6 6 0 0 0 0 12h37.513a6 6 0 0 0 0-12z" fill="url(#linear-gradient-6)"/><path d="m54.513 256a6 6 0 0 0 -6-6h-37.513a6 6 0 0 0 0 12h37.513a6 6 0 0 0 6-6z" fill="url(#linear-gradient-7)"/><path d="m489.587 330.148-38.4-13.232a6 6 0 0 0 -3.909 11.346l38.4 13.232a6 6 0 0 0 3.909-11.346z" fill="url(#linear-gradient-8)"/><path d="m64.721 183.738-38.4-13.232a6 6 0 0 0 -3.909 11.346l38.4 13.232a6 6 0 0 0 3.909-11.346z" fill="url(#linear-gradient-9)"/><path d="m451.169 201.328a6.021 6.021 0 0 0 1.784-.272l38.784-12.056a6 6 0 1 0 -3.563-11.459l-38.784 12.059a6 6 0 0 0 1.779 11.731z" fill="url(#linear-gradient-10)"/><path d="m59.047 310.944-38.784 12.056a6 6 0 1 0 3.563 11.459l38.784-12.059a6 6 0 0 0 -3.563-11.459z" fill="url(#linear-gradient-11)"/></svg>