<?xml version="1.0" encoding="iso-8859-1"?>
<!-- Generator: Adobe Illustrator 19.0.0, SVG Export Plug-In . SVG Version: 6.00 Build 0)  -->
<svg version="1.1" id="Layer_1" xmlns="http://www.w3.org/2000/svg" xmlns:xlink="http://www.w3.org/1999/xlink" x="0px" y="0px"
	 viewBox="0 0 512 512" style="enable-background:new 0 0 512 512;" xml:space="preserve">
<g>
	<g>
		<path d="M310.335,161.959H201.665c-11.812,0-21.42,9.609-21.42,21.42c0,9.995,6.892,18.39,16.168,20.742l19.348,269.134
			C216.581,494.994,234.226,512,256,512c21.774,0,39.419-17.006,40.239-38.744l19.348-269.134
			c9.276-2.352,16.168-10.746,16.168-20.742C331.755,171.568,322.146,161.959,310.335,161.959z M280.596,472.272l-0.017,0.296
			c-0.451,13.323-11.248,23.759-24.579,23.759c-13.331,0-24.128-10.435-24.579-23.758l-0.005-0.148l-19.24-267.62h87.649
			L280.596,472.272z M310.335,189.127H201.665c-3.168,0-5.747-2.579-5.747-5.747c0-3.168,2.579-5.747,5.747-5.747h108.669
			c3.168,0,5.747,2.579,5.747,5.747C316.082,186.548,313.503,189.127,310.335,189.127z"/>
	</g>
</g>
<g>
	<g>
		<path d="M350.241,75.233c-4.534-19.977-15.371-38.139-31.013-51.68C301.684,8.364,279.229,0,256,0s-45.684,8.364-63.229,23.553
			c-15.641,13.541-26.479,31.702-31.013,51.68h-18.085v42.841h18.065c3.231,14.253,9.702,27.667,18.934,39.126l12.207-9.833
			c-6.979-8.663-12.067-18.658-14.982-29.294h156.206c-2.914,10.636-8.003,20.631-14.982,29.294l12.207,9.833
			c9.232-11.459,15.703-24.874,18.934-39.126h18.065V75.233H350.241z M203.031,35.403c14.695-12.723,33.507-19.73,52.969-19.73
			s38.274,7.007,52.969,19.73c12.199,10.561,20.909,24.469,25.122,39.829H177.908C182.122,59.873,190.832,45.964,203.031,35.403z
			 M352.653,102.4H159.347V90.906h193.306V102.4z"/>
	</g>
</g>
<g>
	<g>
		<path d="M256,219.951c-14.692,0-26.645,11.953-26.645,26.645v61.649c0,14.691,11.953,26.645,26.645,26.645
			c14.691,0,26.645-11.954,26.645-26.645v-61.649C282.645,231.904,270.691,219.951,256,219.951z M266.971,308.245
			c0,6.05-4.922,10.971-10.971,10.971c-6.05,0-10.971-4.921-10.971-10.971v-37.378c3.349,1.52,7.061,2.374,10.971,2.374
			c3.91,0,7.623-0.854,10.971-2.374V308.245z M256,257.567c-6.05,0-10.971-4.921-10.971-10.971c0-6.05,4.922-10.971,10.971-10.971
			c6.05,0,10.971,4.921,10.971,10.971C266.971,252.646,262.05,257.567,256,257.567z"/>
	</g>
</g>
<g>
</g>
<g>
</g>
<g>
</g>
<g>
</g>
<g>
</g>
<g>
</g>
<g>
</g>
<g>
</g>
<g>
</g>
<g>
</g>
<g>
</g>
<g>
</g>
<g>
</g>
<g>
</g>
<g>
</g>
</svg>
