<svg id="Capa_1" enable-background="new 0 0 511.961 511.961" height="512" viewBox="0 0 511.961 511.961" width="512" xmlns="http://www.w3.org/2000/svg"><g><path d="m292.519 221.626c6.246-6.248 6.22-16.436 0-22.659l-9.406-9.407c-6.154-6.15-16.334-6.324-22.66 0-2.036 2.036-53.994 53.994-56.245 56.245-6.249 6.249-6.25 16.41.001 22.659l9.406 9.407c6.249 6.249 16.411 6.248 22.659 0 20.172-20.172 36.488-36.487 56.245-56.245zm-32.708 11.494c-.238.235-.521.285-.718.285-.198 0-.484-.05-.724-.289l-9.406-9.406c-.384-.385-.385-1.06-.001-1.445l22.098-22.098c.192-.192.457-.289.723-.289s.53.097.723.289l9.406 9.407c.386.385.386 1.061 0 1.446zm-34.145 34.145c-.386.385-1.06.384-1.445 0l-9.406-9.407c-.386-.385-.386-1.061 0-1.446l22.856-22.856c.225.255.442.515.686.759l9.406 9.407c.243.243.503.462.758.688z"/><path d="m185.903 285.571-8.522 8.522c-2.93 2.929-2.93 7.677-.001 10.606 1.465 1.465 3.384 2.197 5.304 2.197 1.919 0 3.839-.732 5.303-2.197l8.522-8.522c2.93-2.929 2.93-7.677.001-10.606-2.93-2.928-7.679-2.929-10.607 0z"/><path d="m43.995 495.393c18.612 18.612 48.986 18.704 67.71.203l91.886-90.788c12.829-12.675 33.638-12.61 46.388.14 12.914 12.913 12.853 33.831-.14 46.668l-48.085 47.51c-2.946 2.911-2.975 7.66-.063 10.606 2.91 2.946 7.659 2.976 10.606.063l48.085-47.51c18.916-18.691 19.004-49.142.204-67.944-18.566-18.566-48.861-18.656-67.538-.203l-91.886 90.788c-12.874 12.722-33.761 12.659-46.561-.14-12.906-12.908-12.906-33.794.001-46.701l27.696-27.697c7.569 6.829 19.088 6.477 26.225-.658l19.477-19.478c9.994 5.633 22.665 4.423 31.446-3.503l86.819-78.386c3.074-2.776 3.316-7.519.54-10.593-2.775-3.075-7.519-3.315-10.593-.541l-86.819 78.386c-4.783 4.32-12.101 4.134-16.66-.425l-.134-.134c-.001-.002-.003-.003-.004-.005l-25.565-25.566c-.003-.003-.007-.006-.01-.009l-.129-.129c-4.558-4.558-4.745-11.876-.426-16.661l161.136-178.472c.441.532 59.698 59.789 60.23 60.234.013.01.023.023.036.033l-65.641 59.264c-3.074 2.776-3.316 7.519-.54 10.593 2.776 3.075 7.519 3.315 10.593.541l72.006-65.011c5.795-.324 11.188-2.722 15.306-6.839l9.372-9.372c3.186 1.236 6.602 1.894 10.119 1.902h.236c27.014 0 52.515-10.388 71.828-29.264 35.023-34.231 40.959-88.852 14.112-129.877-2.269-3.466-6.917-4.438-10.382-2.169-3.466 2.268-4.438 6.917-2.169 10.383 22.933 35.045 17.867 81.701-12.046 110.936-16.495 16.122-38.271 24.992-61.345 24.992-.066 0-.136 0-.202 0-3.588-.008-6.854-1.451-9.246-3.844l-74.501-74.501c-2.387-2.384-3.837-5.648-3.845-9.243-.054-23.527 9.078-45.646 25.714-62.281 30.768-30.768 78.819-33.924 113.132-9.322 3.364 2.414 8.052 1.642 10.466-1.725 2.413-3.367 1.641-8.052-1.726-10.465-40.311-28.905-96.544-25.031-132.48 10.903-19.477 19.478-30.169 45.375-30.106 72.922.008 3.516.666 6.93 1.902 10.114l-9.373 9.373c-4.244 4.245-6.501 9.72-6.823 15.289l-166.898 184.854c-7.98 8.84-9.087 21.538-3.503 31.446l-19.478 19.477c-7.197 7.197-7.401 18.752-.657 26.224l-27.697 27.697c-18.724 18.725-18.724 49.191 0 67.915zm235.664-362.295 7.689-7.69 69.324 69.324-7.69 7.69c-3.279 3.28-8.673 3.331-12.014.081-.029-.028-.061-.052-.089-.081l-57.22-57.22c-.01-.01-.019-.021-.029-.032-3.293-3.329-3.298-8.746.029-12.072zm-196.702 251.066 18.768-18.768 14.959 14.959-18.768 18.768c-1.582 1.582-4.155 1.582-5.739 0-3.434-3.434-5.791-5.792-9.22-9.22-1.584-1.582-1.584-4.156 0-5.739z"/></g></svg>