<?xml version="1.0" encoding="iso-8859-1"?>
<!-- Generator: Adobe Illustrator 19.0.0, SVG Export Plug-In . SVG Version: 6.00 Build 0)  -->
<svg version="1.1" id="Capa_1" xmlns="http://www.w3.org/2000/svg" xmlns:xlink="http://www.w3.org/1999/xlink" x="0px" y="0px"
	 viewBox="0 0 511 511" style="enable-background:new 0 0 511 511;" xml:space="preserve">
<g>
	<g>
		<path d="M479.491,495c-3.794,0-7.051-2.87-7.451-6.727L425.439,38.732c-0.429-4.43-4.066-7.732-8.466-7.732H94.026
			c-4.399,0-8.037,3.302-8.46,7.681L38.96,488.273c-0.427,4.12-4.107,7.117-8.233,6.687c-4.12-0.427-7.114-4.113-6.687-8.233
			L70.641,37.185c1.167-12.056,11.223-21.185,23.386-21.185h322.947c12.163,0,22.219,9.13,23.391,21.236l46.595,449.491
			c0.427,4.12-2.566,7.806-6.687,8.233C480.011,494.987,479.75,495,479.491,495z"/>
	</g>
	<g>
		<path d="M55.5,494.999h-48c-4.142,0-7.5-3.358-7.5-7.5s3.358-7.5,7.5-7.5h48c4.142,0,7.5,3.358,7.5,7.5
			S59.642,494.999,55.5,494.999z"/>
	</g>
	<g>
		<path d="M503.5,494.999h-48c-4.142,0-7.5-3.358-7.5-7.5s3.358-7.5,7.5-7.5h48c4.142,0,7.5,3.358,7.5,7.5
			S507.642,494.999,503.5,494.999z"/>
	</g>
	<g>
		<path d="M431.5,78.999h-352c-4.142,0-7.5-3.358-7.5-7.5s3.358-7.5,7.5-7.5h352c4.142,0,7.5,3.358,7.5,7.5
			S435.642,78.999,431.5,78.999z"/>
	</g>
	<g>
		<g>
			<path d="M311.5,302.999c-4.142,0-7.5-3.358-7.5-7.5v-240c0-4.142,3.358-7.5,7.5-7.5s7.5,3.358,7.5,7.5v240
				C319,299.642,315.642,302.999,311.5,302.999z"/>
		</g>
		<g>
			<path d="M375.5,302.999c-4.142,0-7.5-3.358-7.5-7.5v-240c0-4.142,3.358-7.5,7.5-7.5s7.5,3.358,7.5,7.5v240
				C383,299.642,379.642,302.999,375.5,302.999z"/>
		</g>
		<g>
			<g>
				<g>
					<path d="M391.5,414.999h-96c-12.958,0-23.5-10.542-23.5-23.5s10.542-23.5,23.5-23.5h96c12.958,0,23.5,10.542,23.5,23.5
						S404.458,414.999,391.5,414.999z M295.5,382.999c-4.687,0-8.5,3.813-8.5,8.5s3.813,8.5,8.5,8.5h96c4.687,0,8.5-3.813,8.5-8.5
						s-3.813-8.5-8.5-8.5H295.5z"/>
				</g>
			</g>
			<g>
				<path d="M391.5,382.999c-4.142,0-7.5-3.358-7.5-7.5v-64c0-4.687-3.813-8.5-8.5-8.5h-64c-4.687,0-8.5,3.813-8.5,8.5v64
					c0,4.142-3.358,7.5-7.5,7.5s-7.5-3.358-7.5-7.5v-64c0-12.958,10.542-23.5,23.5-23.5h64c12.958,0,23.5,10.542,23.5,23.5v64
					C399,379.642,395.642,382.999,391.5,382.999z"/>
			</g>
			<g>
				<path d="M295.5,358.999h-16c-4.142,0-7.5-3.358-7.5-7.5s3.358-7.5,7.5-7.5h16c4.142,0,7.5,3.358,7.5,7.5
					S299.642,358.999,295.5,358.999z"/>
			</g>
			<g>
				<path d="M407.5,358.999h-16c-4.142,0-7.5-3.358-7.5-7.5s3.358-7.5,7.5-7.5h16c4.142,0,7.5,3.358,7.5,7.5
					S411.642,358.999,407.5,358.999z"/>
			</g>
		</g>
	</g>
	<g>
		<g>
			<path d="M135.5,302.999c-4.142,0-7.5-3.358-7.5-7.5v-240c0-4.142,3.358-7.5,7.5-7.5s7.5,3.358,7.5,7.5v240
				C143,299.642,139.642,302.999,135.5,302.999z"/>
		</g>
		<g>
			<path d="M199.5,302.999c-4.142,0-7.5-3.358-7.5-7.5v-240c0-4.142,3.358-7.5,7.5-7.5s7.5,3.358,7.5,7.5v240
				C207,299.642,203.642,302.999,199.5,302.999z"/>
		</g>
		<g>
			<g>
				<g>
					<path d="M215.5,414.999h-96c-12.958,0-23.5-10.542-23.5-23.5s10.542-23.5,23.5-23.5h96c12.958,0,23.5,10.542,23.5,23.5
						S228.458,414.999,215.5,414.999z M119.5,382.999c-4.687,0-8.5,3.813-8.5,8.5s3.813,8.5,8.5,8.5h96c4.687,0,8.5-3.813,8.5-8.5
						s-3.813-8.5-8.5-8.5H119.5z"/>
				</g>
			</g>
			<g>
				<path d="M215.5,382.999c-4.142,0-7.5-3.358-7.5-7.5v-64c0-4.687-3.813-8.5-8.5-8.5h-64c-4.687,0-8.5,3.813-8.5,8.5v64
					c0,4.142-3.358,7.5-7.5,7.5s-7.5-3.358-7.5-7.5v-64c0-12.958,10.542-23.5,23.5-23.5h64c12.958,0,23.5,10.542,23.5,23.5v64
					C223,379.642,219.642,382.999,215.5,382.999z"/>
			</g>
			<g>
				<path d="M119.5,358.999h-16c-4.142,0-7.5-3.358-7.5-7.5s3.358-7.5,7.5-7.5h16c4.142,0,7.5,3.358,7.5,7.5
					S123.642,358.999,119.5,358.999z"/>
			</g>
			<g>
				<path d="M231.5,358.999h-16c-4.142,0-7.5-3.358-7.5-7.5s3.358-7.5,7.5-7.5h16c4.142,0,7.5,3.358,7.5,7.5
					S235.642,358.999,231.5,358.999z"/>
			</g>
		</g>
	</g>
</g>
<g>
</g>
<g>
</g>
<g>
</g>
<g>
</g>
<g>
</g>
<g>
</g>
<g>
</g>
<g>
</g>
<g>
</g>
<g>
</g>
<g>
</g>
<g>
</g>
<g>
</g>
<g>
</g>
<g>
</g>
</svg>
