<svg id="Capa_1" enable-background="new 0 0 512 512" height="512" viewBox="0 0 512 512" width="512" xmlns="http://www.w3.org/2000/svg"><g><path d="m494.398 456.593h-2.939l-13.437-289.191c-.193-4.137-3.716-7.346-7.84-7.144-4.138.192-7.337 3.702-7.145 7.84l13.405 288.495h-27.412l-18.908-407.011c-.187-4.002-3.485-7.152-7.492-7.152h-56.599v-27.43h71.979c10.048 0 18.283 7.861 18.748 17.898l4.66 100.25c.193 4.138 3.664 7.349 7.841 7.144 4.138-.192 7.336-3.702 7.144-7.84l-4.66-100.25c-.839-18.057-15.656-32.202-33.733-32.202h-364.02c-18.078 0-32.895 14.145-33.732 32.202l-19.717 424.391h-2.939c-9.706 0-17.602 7.897-17.602 17.602v20.203c0 9.706 7.896 17.602 17.602 17.602h60.61c9.706 0 17.602-7.896 17.602-17.602v-20.203c0-9.706-7.896-17.602-17.602-17.602h-.225l7.026-151.205c.192-4.138-3.006-7.648-7.144-7.84-4.119-.2-7.647 3.006-7.84 7.144l-7.059 151.901h-27.414l19.686-423.696c.465-10.036 8.7-17.897 18.748-17.897h71.978v27.43h-56.598c-4.007 0-7.306 3.149-7.492 7.152l-10.229 220.15c-.192 4.138 3.006 7.648 7.144 7.84 4.143.214 7.648-3.006 7.84-7.144l9.897-212.998h70.652v308.25h-12.202c-9.705 0-17.6 7.895-17.6 17.6v22.22c0 9.71 7.896 17.61 17.6 17.61h66.02c4.142 0 7.5-3.358 7.5-7.5s-3.358-7.5-7.5-7.5h-66.02c-1.434 0-2.6-1.171-2.6-2.61v-22.22c0-1.434 1.167-2.6 2.6-2.6h181.823.006.008 20.203c1.434 0 2.601 1.166 2.601 2.6v22.22c0 1.439-1.167 2.61-2.601 2.61h-101.02c-4.142 0-7.5 3.358-7.5 7.5s3.358 7.5 7.5 7.5h101.02c9.705 0 17.601-7.9 17.601-17.61v-22.22c0-9.705-7.896-17.6-17.601-17.6h-12.201v-308.25h70.651l18.544 399.163h-.224c-9.706 0-17.603 7.896-17.603 17.602v20.203c0 9.706 7.896 17.602 17.603 17.602h60.609c9.705 0 17.602-7.896 17.602-17.602v-20.203c-.001-9.705-7.897-17.602-17.603-17.602zm-413.585 17.602v20.203c0 1.435-1.167 2.602-2.602 2.602h-60.61c-1.435 0-2.602-1.167-2.602-2.602v-20.203c0-1.435 1.167-2.602 2.602-2.602h60.61c1.435 0 2.602 1.168 2.602 2.602zm270.218-431.765h-27.427v-27.43h27.427zm-147.635 0v-27.43h105.209v27.43zm-42.428-27.43h27.427v27.43h-27.427zm23.905 350.68 23.963-92.658c1.45-5.607 6.507-9.522 12.298-9.522h69.73c5.791 0 10.849 3.916 12.299 9.522l23.964 92.658zm144.945-49.501-12.133-46.913c-3.161-12.227-14.19-20.767-26.82-20.767h-69.73c-12.63 0-23.659 8.54-26.821 20.767l-12.132 46.91v-258.746h147.636zm167.182 178.219c0 1.435-1.167 2.602-2.602 2.602h-60.609c-1.435 0-2.603-1.167-2.603-2.602v-20.203c0-1.435 1.168-2.602 2.603-2.602h60.609c1.435 0 2.602 1.167 2.602 2.602z"/></g></svg>