<svg id="Capa_1" enable-background="new 0 0 512 512" height="512" viewBox="0 0 512 512" width="512" xmlns="http://www.w3.org/2000/svg"><g><path d="m88.502 41.002h334.996v429.998h-334.996z" fill="#fff" transform="matrix(-1 0 0 -1 512 512.003)"/><g fill="#fff7bf"><path d="m50.731 37.599h94.542v39.807h-94.542z" transform="matrix(.707 -.707 .707 .707 -11.956 86.139)"/><path d="m394.095 10.231h39.807v94.542h-39.807z" transform="matrix(.707 -.707 .707 .707 80.598 309.584)"/><path d="m366.727 434.597h94.542v39.807h-94.542z" transform="matrix(.707 -.707 .707 .707 -200.123 425.859)"/><path d="m78.098 407.229h39.807v94.542h-39.807z" transform="matrix(.707 -.707 .707 .707 -292.677 202.419)"/></g><g><circle cx="423.498" cy="256.001" r="10"/><path d="m231 176.502c0 5.522 4.477 10 10 10s10-4.478 10-10v-45c0-5.522-4.477-10-10-10s-10 4.478-10 10z"/><circle cx="241" cy="91.502" r="10"/><path d="m286 280.501c0-17.921-14.579-32.5-32.5-32.5-17.92 0-32.5 14.579-32.5 32.5s14.579 32.5 32.5 32.5 32.5-14.579 32.5-32.5zm-32.5 12.5c-6.893 0-12.5-5.607-12.5-12.5s5.607-12.5 12.5-12.5c6.892 0 12.5 5.607 12.5 12.5s-5.607 12.5-12.5 12.5z"/><path d="m279.5 393.001h80.999c5.522 0 10-4.478 10-10s-4.477-10-10-10h-80.999c-5.522 0-10 4.478-10 10s4.477 10 10 10z"/><path d="m141.501 383.001c0 5.522 4.477 10 10 10h82.999c5.523 0 10-4.478 10-10s-4.477-10-10-10h-82.999c-5.523 0-10 4.477-10 10z"/><path d="m151.501 433h104.499c5.522 0 10-4.478 10-10s-4.477-10-10-10h-104.499c-5.523 0-10 4.478-10 10s4.477 10 10 10z"/><path d="m440.418 399.93c-1.91-1.91-4.41-2.89-6.92-2.93v-96c0-5.51-4.49-10-10-10s-10 4.49-10 10v111.71l-48.289 48.29h-218.418l-48.289-48.29v-313.418l48.289-48.29h218.417l48.289 48.29v111.709c0 5.51 4.49 10 10 10s10-4.49 10-10v-96c2.51-.04 5.01-1.02 6.92-2.93l28.15-28.15c3.91-3.9 3.91-10.23 0-14.14l-66.849-66.85c-3.91-3.91-10.24-3.91-14.14 0l-28.07 28.07h-207.017l-28.07-28.07c-1.87-1.88-4.42-2.93-7.07-2.93s-5.19 1.05-7.07 2.93l-66.849 66.85c-3.91 3.91-3.91 10.24 0 14.14l28.15 28.15c1.83 1.84 4.32 2.89 6.92 2.93v281.999c-2.6.04-5.09 1.09-6.92 2.93l-28.15 28.15c-3.91 3.9-3.91 10.23 0 14.14l66.849 66.85c1.88 1.88 4.42 2.93 7.07 2.93s5.2-1.05 7.07-2.93l28.07-28.07h207.018l28.07 28.07c1.95 1.95 4.51 2.93 7.07 2.93s5.12-.98 7.07-2.93l66.849-66.85c3.91-3.91 3.91-10.24 0-14.14zm-45.77-375.787 52.709 52.71-14.01 14.01-52.709-52.71zm-330.006 52.709 52.709-52.71 14.01 14.01-52.709 52.71zm52.71 411.008-52.709-52.71 13.86-13.86.15-.15 52.709 52.71zm277.296 0-14.01-14.01 52.709-52.71.15.15 13.86 13.86z"/><path d="m151.001 81.502c-5.523 0-10 4.478-10 10v85c0 5.522 4.477 10 10 10s10-4.478 10-10v-34.5h30v34.5c0 5.522 4.477 10 10 10s10-4.478 10-10v-85c0-5.522-4.477-10-10-10s-10 4.478-10 10v30.5h-30v-30.5c0-5.522-4.477-10-10-10z"/><path d="m141.001 303.001c0 5.522 4.477 10 10 10s10-4.478 10-10v-25c0-5.514 4.486-10 10-10s10 4.486 10 10v25c0 5.522 4.477 10 10 10s10-4.478 10-10v-25c0-16.542-13.458-30-30-30-3.506 0-6.87.61-10 1.72v-32.72c0-5.522-4.477-10-10-10s-10 4.478-10 10z"/><path d="m291 216.501v-32.503c3.85 1.611 8.072 2.503 12.5 2.503 17.921 0 32.5-14.579 32.5-32.5s-14.579-32.5-32.5-32.5c-5.339 0-10.377 1.302-14.825 3.593-1.834-2.195-4.591-3.593-7.674-3.593-5.522 0-10 4.478-10 10v85c0 5.522 4.478 10 10 10 5.521 0 9.999-4.477 9.999-10zm12.499-74.999c6.892 0 12.5 5.607 12.5 12.5s-5.607 12.5-12.5 12.5-12.5-5.607-12.5-12.5c.001-6.893 5.608-12.5 12.5-12.5z"/><path d="m338.499 248.001c-5.339 0-10.377 1.302-14.825 3.593-1.834-2.195-4.591-3.593-7.674-3.593-5.522 0-10 4.478-10 10v85c0 5.522 4.477 10 10 10s10-4.478 10-10v-32.503c3.85 1.611 8.072 2.503 12.5 2.503 17.921 0 32.5-14.579 32.5-32.5s-14.58-32.5-32.501-32.5zm0 45c-6.893 0-12.5-5.607-12.5-12.5s5.607-12.5 12.5-12.5c6.892 0 12.5 5.607 12.5 12.5s-5.607 12.5-12.5 12.5z"/></g></g></svg>