<svg id="Capa_1" enable-background="new 0 0 512 512" height="512" viewBox="0 0 512 512" width="512" xmlns="http://www.w3.org/2000/svg"><g><path d="m504.26 212.66c-4.96-11.73-12.07-22.26-21.11-31.31-9.05-9.05-19.58-16.15-31.31-21.11-2.91-1.23-5.87-2.31-8.86-3.25-2.58-13.92-14.82-24.49-29.48-24.49s-26.9 10.57-29.48 24.49c-2.99.94-5.95 2.02-8.86 3.25-11.73 4.96-22.26 12.06-31.31 21.11-6.669 6.676-12.278 14.163-16.758 22.337l-32.092 1.025v-24.944c0-20.422-16.374-37.136-36.5-37.257h-.001c-.077 0-.152-.001-.229-.001-8.942 0-16.894 3.116-23.384 9.011-6.363-11.033-18.03-18.642-31.34-19.006-10.221-.279-19.878 3.487-27.196 10.606-2.5 2.433-4.616 5.147-6.319 8.076-6.737-5.715-15.198-8.721-24.917-8.623-12.495.098-23.486 6.834-29.711 16.876-6.353-5.313-14.335-8.141-23.346-7.942-20.433.358-37.057 17.415-37.057 38.021v22.575l-45.309 1.401c-5.4.167-9.691 4.593-9.691 9.995v55c0 5.402 4.291 9.828 9.691 9.995l45.583 1.409c2.179 18.393 17.567 33.072 36.179 33.581 9.867.261 19.198-3.228 26.416-9.868 6.683 8.759 17.012 14.552 28.584 14.868 9.86.28 19.198-3.227 26.416-9.868 6.683 8.759 17.012 14.552 28.584 14.868 10.22.299 19.878-3.486 27.196-10.606.463-.451.914-.912 1.351-1.382.437.47 1.823 1.82 2.059 2.039-7.465 6.606-12.059 16.328-12.059 27.464 0 15.981 16.472 28.5 37.5 28.5 24.245 0 43.446-6.879 58.7-21.028 10.312-9.566 18.756-22.358 26.023-39.53.543.569 1.07 1.15 1.628 1.708 9.05 9.04 19.58 16.15 31.31 21.11 2.91 1.23 5.87 2.31 8.86 3.25 2.58 13.92 14.82 24.49 29.48 24.49s26.9-10.57 29.48-24.49c7.73-2.42 15.16-5.8 22.11-10.08 2.27-1.41 3.86-3.61 4.48-6.21s.19-5.28-1.21-7.55c-1.84-2.98-5.02-4.76-8.53-4.76-1.84 0-3.65.51-5.23 1.49-3.55 2.19-7.27 4.08-11.1 5.66v-145.14c9.42 3.89 18.08 9.65 25.51 17.07 14.819 14.84 22.989 34.55 22.989 55.51v.25c-.02 5.52 4.45 10.02 9.97 10.03h.03c5.5 0 9.98-4.47 10-9.97v-.31c0-13.3-2.61-26.2-7.74-38.34zm-185.503 11.303c-2.492 8.738-3.757 17.791-3.757 27.037 0 9.252 1.266 18.309 3.762 27.052l-23.762-.795v-52.536zm-298.757 9.232 35-1.082v37.773l-35-1.082zm194.702 75.349c-3.415 3.322-7.933 5.064-12.701 4.949-9.375-.257-17.001-8.361-17.001-18.065v-68.428c0-5.522-4.477-10-10-10s-10 4.478-10 10v64c0 4.765-1.881 9.22-5.298 12.544-3.415 3.323-7.932 5.054-12.701 4.949-9.375-.257-17.001-8.361-17.001-18.065v-62.428c0-5.522-4.477-10-10-10s-10 4.478-10 10v58c0 4.765-1.881 9.22-5.298 12.544-3.415 3.322-7.931 5.072-12.701 4.949-9.375-.257-17.001-8.361-17.001-18.065v-95.898c0-9.771 7.81-17.856 17.409-18.025 4.707-.071 11.449.996 15.646 11.272 2.052 5.023 7.408 7.909 12.734 6.863 5.337-1.049 9.211-5.755 9.211-11.193 0-8.539 6.993-15.808 15.271-15.872 3.016-.048 12.211-.097 17.678 12.118 2.246 5.02 7.565 7.725 12.939 6.577 5.365-1.146 9.112-5.78 9.112-11.27 0-4.765 1.881-9.22 5.298-12.544 3.414-3.322 7.929-5.06 12.701-4.949 9.375.257 17.001 8.361 17.001 18.065v.264c0 5.489 3.748 10.125 9.115 11.273 5.361 1.145 10.678-1.549 12.922-6.554 3.883-8.657 9.349-13.045 16.248-13.045h.096c9.009.054 16.62 7.957 16.62 17.257v115.66c0 9.704-7.626 17.809-17.001 18.065-4.763.106-9.286-1.627-12.701-4.949-3.418-3.323-5.299-7.778-5.299-12.543v-64c0-5.522-4.477-10-10-10s-10 4.478-10 10v64c0 4.765-1.881 9.22-5.298 12.544zm42.798 50.956c-10.521 0-17.5-5.116-17.5-8.5 0-9.649 7.851-17.5 17.5-17.5.009 0 1.226-.026 1.316-.029 3.198-.099 6.05-.554 8.582-1.338 15.274-4.306 26.76-18.327 27.557-34.868l32.154 1.075c.317.579.655 1.144.984 1.715-15.034 42.692-35.103 59.445-70.593 59.445zm126-35.92c-9.42-3.89-18.08-9.65-25.51-17.07-14.82-14.84-22.99-34.56-22.99-55.51 0-20.96 8.17-40.67 22.99-55.51 7.43-7.42 16.09-13.18 25.51-17.07zm40 15.92c0 5.33-4.2 9.71-9.47 9.99-.17.01-.87.01-1.04 0-5.28-.27-9.49-4.65-9.49-9.99v-177c0-5.34 4.21-9.72 9.49-9.99.17-.01.85-.01 1.02 0 5.28.27 9.49 4.65 9.49 9.99z"/><circle cx="490.684" cy="294.32" r="10"/></g></svg>