<svg id="Capa_1" enable-background="new 0 0 551.13 551.13" height="512" viewBox="0 0 551.13 551.13" width="512" xmlns="http://www.w3.org/2000/svg"><path d="m275.565 551.13c-151.944 0-275.565-123.621-275.565-275.565s123.621-275.565 275.565-275.565 275.565 123.621 275.565 275.565-123.621 275.565-275.565 275.565zm0-516.684c-132.955 0-241.119 108.181-241.119 241.119s108.164 241.12 241.119 241.12 241.119-108.181 241.119-241.119-108.164-241.12-241.119-241.12z"/><path d="m275.565 413.348c-75.972 0-137.783-61.794-137.783-137.783s61.81-137.783 137.783-137.783 137.783 61.794 137.783 137.783-61.811 137.783-137.783 137.783zm0-241.12c-56.983 0-103.337 46.353-103.337 103.337s46.353 103.337 103.337 103.337 103.337-46.354 103.337-103.337-46.354-103.337-103.337-103.337z"/></svg>