<svg id="Capa_1" enable-background="new 0 0 512 512" height="512" viewBox="0 0 512 512" width="512" xmlns="http://www.w3.org/2000/svg"><path d="m427.921 470.311-82.26-320.672c-1.028-4.012-5.114-6.432-9.128-5.401-4.012 1.029-6.43 5.116-5.401 9.128l53.945 210.292h-106.425v-86.017h8.663c4.142 0 7.5-3.358 7.5-7.5s-3.358-7.5-7.5-7.5h-8.663v-25.406h12.703c4.142 0 7.5-3.358 7.5-7.5s-3.358-7.5-7.5-7.5h-12.703v-25.407h12.703c4.142 0 7.5-3.358 7.5-7.5s-3.358-7.5-7.5-7.5h-12.703v-25.406h12.703c4.142 0 7.5-3.358 7.5-7.5s-3.358-7.5-7.5-7.5h-12.703v-25.407h12.703c4.142 0 7.5-3.358 7.5-7.5s-3.358-7.5-7.5-7.5h-12.703v-25.405h12.703c4.142 0 7.5-3.358 7.5-7.5s-3.358-7.5-7.5-7.5h-12.703v-45.61h16.986l26.652 103.897c1.029 4.013 5.119 6.435 9.128 5.401 4.012-1.029 6.43-5.116 5.401-9.128l-28.097-109.534c-.85-3.317-3.84-5.636-7.264-5.636h-90.915c-3.425 0-6.416 2.321-7.266 5.639l-38.281 149.456-16.491-27.86c-1.013-1.712-2.665-2.951-4.592-3.445-1.928-.493-3.971-.202-5.683.811l-14.416 8.534-11.1-18.754c-2.108-3.564-6.709-4.744-10.274-2.634-3.565 2.109-4.744 6.709-2.634 10.274l11.1 18.755-14.402 8.524c-3.564 2.11-4.744 6.71-2.634 10.274l24.698 41.726c1.4 2.366 3.897 3.681 6.461 3.681 1.298 0 2.614-.337 3.813-1.047l14.405-8.526 7.972 13.468-14.625 57.097c-1.028 4.013 1.392 8.099 5.405 9.126.624.16 1.25.236 1.866.236 3.344 0 6.392-2.252 7.26-5.641l10.901-42.561 71.319 120.482v16.043h-106.422l15.409-60.068c1.029-4.012-1.389-8.099-5.401-9.128-4.013-1.03-8.099 1.389-9.128 5.401l-43.724 170.448c-.576 2.245-.082 4.63 1.339 6.461s3.608 2.902 5.926 2.902h9.673v24.826c0 4.142 3.358 7.5 7.5 7.5h60.61c4.142 0 7.5-3.358 7.5-7.5v-24.825h95.937c4.142 0 7.5-3.358 7.5-7.5s-3.358-7.5-7.5-7.5h-103.438-60.61-7.506l22.065-86.016h265.85l22.065 86.016h-8.516-60.61-34.196c-4.142 0-7.5 3.358-7.5 7.5s3.358 7.5 7.5 7.5h26.696v24.825c0 4.142 3.358 7.5 7.5 7.5h60.61c4.142 0 7.5-3.358 7.5-7.5v-24.825h10.683c2.317 0 4.505-1.071 5.926-2.902 1.42-1.832 1.915-4.217 1.338-6.462zm-266.295 9.364v17.325h-45.61v-17.325zm102.026-116.016h-3.378l-11.927-20.149v-328.51h15.305zm-135.995-176.454-17.058-28.817 28.817-17.058 17.058 28.818zm39.636 19.375 49.071-191.58h16.984v45.61h-12.703c-4.142 0-7.5 3.358-7.5 7.5s3.358 7.5 7.5 7.5h12.703v25.406h-12.703c-4.142 0-7.5 3.358-7.5 7.5s3.358 7.5 7.5 7.5h12.703v25.407h-12.703c-4.142 0-7.5 3.358-7.5 7.5s3.358 7.5 7.5 7.5h12.703v25.406h-12.703c-4.142 0-7.5 3.358-7.5 7.5s3.358 7.5 7.5 7.5h12.703v25.407h-12.703c-4.142 0-7.5 3.358-7.5 7.5s3.358 7.5 7.5 7.5h12.703v25.406h-8.663c-4.142 0-7.5 3.358-7.5 7.5s3.358 7.5 7.5 7.5h8.663v40.527zm227.681 290.42h-45.61v-17.325h45.61z"/></svg>