<svg id="Layer_1" enable-background="new 0 0 64 64" height="512" viewBox="0 0 64 64" width="512" xmlns="http://www.w3.org/2000/svg"><path d="m56.5 62.5h-49c-3.314 0-6-2.686-6-6v-49c0-3.314 2.686-6 6-6h49c3.314 0 6 2.686 6 6v49c0 3.314-2.686 6-6 6z" fill="#96aaf0"/><path d="m56.5 60.5h-49c-3.314 0-6-2.686-6-6v2c0 3.314 2.686 6 6 6h49c3.314 0 6-2.686 6-6v-2c0 3.314-2.686 6-6 6z" fill="#8296dc"/><path d="m56.5 1.5h-49c-3.314 0-6 2.686-6 6v2c0-3.314 2.686-6 6-6h49c3.314 0 6 2.686 6 6v-2c0-3.314-2.686-6-6-6z" fill="#a2baff"/><path d="m56.5 63h-49c-3.584 0-6.5-2.916-6.5-6.5v-49c0-3.584 2.916-6.5 6.5-6.5h49c3.584 0 6.5 2.916 6.5 6.5v49c0 3.584-2.916 6.5-6.5 6.5zm-49-61c-3.032 0-5.5 2.467-5.5 5.5v49c0 3.033 2.468 5.5 5.5 5.5h49c3.032 0 5.5-2.467 5.5-5.5v-49c0-3.033-2.468-5.5-5.5-5.5z" fill="#785ae6"/><path d="m7.5 22.5h4c1.105 0 2-.895 2-2v-2c0-1.105-.895-2-2-2h-4c-1.105 0-2 .895-2 2v2c0 1.105.895 2 2 2z" fill="#e678a0"/><path d="m7.5 31.5h4c1.105 0 2-.895 2-2v-2c0-1.105-.895-2-2-2h-4c-1.105 0-2 .895-2 2v2c0 1.105.895 2 2 2z" fill="#ffe885"/><path d="m7.5 40.5h4c1.105 0 2-.895 2-2v-2c0-1.105-.895-2-2-2h-4c-1.105 0-2 .895-2 2v2c0 1.105.895 2 2 2z" fill="#ffe885"/><path d="m7.5 49.5h4c1.105 0 2-.895 2-2v-2c0-1.105-.895-2-2-2h-4c-1.105 0-2 .895-2 2v2c0 1.105.895 2 2 2z" fill="#aad2ff"/><path d="m7.5 58.5h4c1.105 0 2-.895 2-2v-2c0-1.105-.895-2-2-2h-4c-1.105 0-2 .895-2 2v2c0 1.105.895 2 2 2z" fill="#aad2ff"/><path d="m11.5 23h-4c-1.379 0-2.5-1.122-2.5-2.5v-2c0-1.378 1.121-2.5 2.5-2.5h4c1.379 0 2.5 1.122 2.5 2.5v2c0 1.378-1.121 2.5-2.5 2.5zm-4-6c-.827 0-1.5.673-1.5 1.5v2c0 .827.673 1.5 1.5 1.5h4c.827 0 1.5-.673 1.5-1.5v-2c0-.827-.673-1.5-1.5-1.5z" fill="#785ae6"/><path d="m11.5 32h-4c-1.379 0-2.5-1.122-2.5-2.5v-2c0-1.378 1.121-2.5 2.5-2.5h4c1.379 0 2.5 1.122 2.5 2.5v2c0 1.378-1.121 2.5-2.5 2.5zm-4-6c-.827 0-1.5.673-1.5 1.5v2c0 .827.673 1.5 1.5 1.5h4c.827 0 1.5-.673 1.5-1.5v-2c0-.827-.673-1.5-1.5-1.5z" fill="#785ae6"/><path d="m11.5 41h-4c-1.379 0-2.5-1.122-2.5-2.5v-2c0-1.378 1.121-2.5 2.5-2.5h4c1.379 0 2.5 1.122 2.5 2.5v2c0 1.378-1.121 2.5-2.5 2.5zm-4-6c-.827 0-1.5.673-1.5 1.5v2c0 .827.673 1.5 1.5 1.5h4c.827 0 1.5-.673 1.5-1.5v-2c0-.827-.673-1.5-1.5-1.5z" fill="#785ae6"/><path d="m11.5 50h-4c-1.379 0-2.5-1.122-2.5-2.5v-2c0-1.378 1.121-2.5 2.5-2.5h4c1.379 0 2.5 1.122 2.5 2.5v2c0 1.378-1.121 2.5-2.5 2.5zm-4-6c-.827 0-1.5.673-1.5 1.5v2c0 .827.673 1.5 1.5 1.5h4c.827 0 1.5-.673 1.5-1.5v-2c0-.827-.673-1.5-1.5-1.5z" fill="#785ae6"/><path d="m11.5 59h-4c-1.379 0-2.5-1.122-2.5-2.5v-2c0-1.378 1.121-2.5 2.5-2.5h4c1.379 0 2.5 1.122 2.5 2.5v2c0 1.378-1.121 2.5-2.5 2.5zm-4-6c-.827 0-1.5.673-1.5 1.5v2c0 .827.673 1.5 1.5 1.5h4c.827 0 1.5-.673 1.5-1.5v-2c0-.827-.673-1.5-1.5-1.5z" fill="#785ae6"/><circle cx="9.5" cy="8.5" fill="#8d7bd4" r="4"/><circle cx="24.5" cy="8.5" fill="#8d7bd4" r="4"/><circle cx="39.5" cy="8.5" fill="#8d7bd4" r="4"/><circle cx="54.5" cy="8.5" fill="#8d7bd4" r="4"/><path d="m5.797 10.515c-.196 0-.384-.117-.463-.311-.222-.54-.334-1.114-.334-1.704 0-2.481 2.019-4.5 4.5-4.5.799 0 1.583.212 2.27.613.238.14.318.446.179.684-.14.239-.446.317-.685.179-.533-.311-1.143-.476-1.764-.476-1.93 0-3.5 1.57-3.5 3.5 0 .459.087.905.26 1.325.104.255-.018.547-.273.652-.062.026-.127.038-.19.038z" fill="#785ae6"/><path d="m9.5 13c-.609 0-1.2-.12-1.757-.356-.254-.108-.373-.402-.265-.656s.403-.371.655-.265c.433.184.892.277 1.367.277 1.93 0 3.5-1.57 3.5-3.5 0-.372-.058-.738-.173-1.088-.086-.262.058-.544.32-.63.262-.087.544.057.631.32.147.45.222.92.222 1.398 0 2.481-2.019 4.5-4.5 4.5z" fill="#785ae6"/><path d="m55.5 58.5h-36c-1.657 0-3-1.343-3-3v-36c0-1.657 1.343-3 3-3h36c1.657 0 3 1.343 3 3v36c0 1.657-1.343 3-3 3z" fill="#f0f0e6"/><path d="m16.5 28.5h42v2h-42z" fill="#dcdcdc"/><path d="m16.5 30.5h42v2h-42z" fill="#fffffa"/><path d="m16.5 44.5h42v2h-42z" fill="#fffffa"/><path d="m16.684 18.5h41.633c-.413-1.163-1.512-2-2.816-2h-36c-1.305 0-2.404.837-2.817 2z" fill="#fffffa"/><path d="m16.5 42.5h42v2h-42z" fill="#dcdcdc"/><path d="m58.316 56.5h-41.632c.413 1.163 1.512 2 2.816 2h36c1.304 0 2.403-.837 2.816-2z" fill="#dcdcdc"/><path d="m30.5 59c-.276 0-.5-.224-.5-.5v-42c0-.276.224-.5.5-.5s.5.224.5.5v42c0 .276-.224.5-.5.5z" fill="#c8c8c8"/><path d="m44.5 59c-.276 0-.5-.224-.5-.5v-42c0-.276.224-.5.5-.5s.5.224.5.5v42c0 .276-.224.5-.5.5z" fill="#c8c8c8"/><path d="m58.5 45h-42c-.276 0-.5-.224-.5-.5s.224-.5.5-.5h42c.276 0 .5.224.5.5s-.224.5-.5.5z" fill="#c8c8c8"/><path d="m58.5 31h-42c-.276 0-.5-.224-.5-.5s.224-.5.5-.5h42c.276 0 .5.224.5.5s-.224.5-.5.5z" fill="#c8c8c8"/><g fill="#785ae6"><path d="m55.5 59h-36c-1.93 0-3.5-1.57-3.5-3.5v-36c0-1.93 1.57-3.5 3.5-3.5h36c1.93 0 3.5 1.57 3.5 3.5v36c0 1.93-1.57 3.5-3.5 3.5zm-36-42c-1.379 0-2.5 1.122-2.5 2.5v36c0 1.378 1.121 2.5 2.5 2.5h36c1.379 0 2.5-1.122 2.5-2.5v-36c0-1.378-1.121-2.5-2.5-2.5z"/><path d="m20.797 10.515c-.196 0-.384-.117-.463-.311-.222-.54-.334-1.114-.334-1.704 0-2.481 2.019-4.5 4.5-4.5.799 0 1.583.212 2.27.613.238.14.318.446.179.684-.14.239-.446.317-.685.179-.533-.311-1.143-.476-1.764-.476-1.93 0-3.5 1.57-3.5 3.5 0 .459.087.905.26 1.325.104.255-.018.547-.273.652-.062.026-.127.038-.19.038z"/><path d="m24.5 13c-.609 0-1.2-.12-1.757-.356-.254-.108-.373-.402-.265-.656s.403-.371.655-.265c.433.184.892.277 1.367.277 1.93 0 3.5-1.57 3.5-3.5 0-.372-.058-.738-.173-1.088-.086-.262.058-.544.32-.63.263-.087.544.057.631.32.147.45.222.92.222 1.398 0 2.481-2.019 4.5-4.5 4.5z"/><path d="m35.797 10.515c-.196 0-.384-.117-.463-.311-.222-.54-.334-1.114-.334-1.704 0-2.481 2.019-4.5 4.5-4.5.799 0 1.583.212 2.27.613.238.14.318.446.179.684-.141.239-.445.317-.685.179-.533-.311-1.143-.476-1.764-.476-1.93 0-3.5 1.57-3.5 3.5 0 .459.087.905.26 1.325.104.255-.018.547-.273.652-.062.026-.127.038-.19.038z"/><path d="m39.5 13c-.609 0-1.2-.12-1.757-.356-.254-.108-.373-.402-.265-.656s.404-.371.655-.265c.433.184.892.277 1.367.277 1.93 0 3.5-1.57 3.5-3.5 0-.372-.058-.738-.173-1.088-.086-.262.058-.544.32-.63.261-.087.545.057.631.32.147.45.222.92.222 1.398 0 2.481-2.019 4.5-4.5 4.5z"/><path d="m50.797 10.515c-.196 0-.384-.117-.463-.311-.222-.54-.334-1.114-.334-1.704 0-2.481 2.019-4.5 4.5-4.5.799 0 1.583.212 2.27.613.238.14.318.446.179.684-.14.239-.445.317-.685.179-.533-.311-1.143-.476-1.764-.476-1.93 0-3.5 1.57-3.5 3.5 0 .459.087.905.26 1.325.104.255-.018.547-.273.652-.062.026-.127.038-.19.038z"/><path d="m54.5 13c-.609 0-1.2-.12-1.757-.356-.254-.108-.373-.402-.265-.656s.402-.371.655-.265c.433.184.892.277 1.367.277 1.93 0 3.5-1.57 3.5-3.5 0-.372-.058-.738-.173-1.088-.086-.262.058-.544.32-.63.262-.087.544.057.631.32.147.45.222.92.222 1.398 0 2.481-2.019 4.5-4.5 4.5z"/></g></svg>