<?xml version="1.0" encoding="iso-8859-1"?>
<!-- Generator: Adobe Illustrator 19.0.0, SVG Export Plug-In . SVG Version: 6.00 Build 0)  -->
<svg version="1.1" id="Capa_1" xmlns="http://www.w3.org/2000/svg" xmlns:xlink="http://www.w3.org/1999/xlink" x="0px" y="0px"
	 viewBox="0 0 512 512" style="enable-background:new 0 0 512 512;" xml:space="preserve">
<path style="fill:#EFEDEE;" d="M448.101,14.745H63.899C32.751,14.745,7.5,39.995,7.5,71.143v369.713
	c0,31.148,25.251,56.399,56.399,56.399h384.203c31.148,0,56.399-25.251,56.399-56.399V71.143
	C504.5,39.995,479.249,14.745,448.101,14.745z"/>
<path style="fill:#D2D2D2;" d="M35.5,440.856V71.143c0-31.148,25.251-56.398,56.399-56.398h-28C32.751,14.745,7.5,39.995,7.5,71.143
	v369.713c0,31.148,25.251,56.399,56.399,56.399h28C60.751,497.255,35.5,472.005,35.5,440.856z"/>
<path style="fill:#58B78C;" d="M250.474,60.826H84.483c-15.127,0-27.39,12.263-27.39,27.39v46.54c0,15.127,12.263,27.39,27.39,27.39
	h165.99c15.127,0,27.39-12.263,27.39-27.39v-46.54C277.864,73.089,265.601,60.826,250.474,60.826z"/>
<path style="fill:#1C9C61;" d="M77.093,134.756v-46.54c0-15.127,12.263-27.39,27.39-27.39h-20c-15.127,0-27.39,12.263-27.39,27.39
	v46.54c0,15.127,12.263,27.39,27.39,27.39h20C89.356,162.146,77.093,149.883,77.093,134.756z"/>
<path style="fill:#85CDEA;" d="M103.944,193.608H64.635c-6.865,0-12.43,5.565-12.43,12.43v39.309c0,6.865,5.565,12.43,12.43,12.43
	h39.309c6.865,0,12.43-5.565,12.43-12.43v-39.309C116.374,199.174,110.809,193.608,103.944,193.608z"/>
<path style="fill:#FD6F71;" d="M218.418,193.608h-39.309c-6.865,0-12.43,5.565-12.43,12.43v39.309c0,6.865,5.565,12.43,12.43,12.43
	h39.309c6.865,0,12.43-5.565,12.43-12.43v-39.309C230.848,199.174,225.283,193.608,218.418,193.608z"/>
<path style="fill:#EDBD4E;" d="M332.891,193.608h-39.309c-6.865,0-12.43,5.565-12.43,12.43v39.309c0,6.865,5.565,12.43,12.43,12.43
	h39.309c6.865,0,12.43-5.565,12.43-12.43v-39.309C345.321,199.174,339.756,193.608,332.891,193.608z"/>
<path style="fill:#FA9F6A;" d="M447.365,193.608h-39.309c-6.865,0-12.43,5.565-12.43,12.43v39.309c0,6.865,5.565,12.43,12.43,12.43
	h39.309c6.865,0,12.43-5.565,12.43-12.43v-39.309C459.795,199.174,454.23,193.608,447.365,193.608z"/>
<path style="fill:#EDBD4E;" d="M103.944,290.306H64.635c-6.865,0-12.43,5.565-12.43,12.43v39.309c0,6.865,5.565,12.43,12.43,12.43
	h39.309c6.865,0,12.43-5.565,12.43-12.43v-39.309C116.374,295.872,110.809,290.306,103.944,290.306z"/>
<path style="fill:#FA9F6A;" d="M218.418,290.306h-39.309c-6.865,0-12.43,5.565-12.43,12.43v39.309c0,6.865,5.565,12.43,12.43,12.43
	h39.309c6.865,0,12.43-5.565,12.43-12.43v-39.309C230.848,295.872,225.283,290.306,218.418,290.306z"/>
<path style="fill:#58B78C;" d="M332.891,290.306h-39.309c-6.865,0-12.43,5.565-12.43,12.43v39.309c0,6.865,5.565,12.43,12.43,12.43
	h39.309c6.865,0,12.43-5.565,12.43-12.43v-39.309C345.321,295.872,339.756,290.306,332.891,290.306z"/>
<path style="fill:#85CDEA;" d="M447.365,290.306h-39.309c-6.865,0-12.43,5.565-12.43,12.43v39.309c0,6.865,5.565,12.43,12.43,12.43
	h39.309c6.865,0,12.43-5.565,12.43-12.43v-39.309C459.795,295.872,454.23,290.306,447.365,290.306z"/>
<path style="fill:#FD6F71;" d="M103.944,387.005H64.635c-6.865,0-12.43,5.565-12.43,12.43v39.309c0,6.865,5.565,12.43,12.43,12.43
	h39.309c6.865,0,12.43-5.565,12.43-12.43v-39.309C116.374,392.57,110.809,387.005,103.944,387.005z"/>
<path style="fill:#EDBD4E;" d="M218.418,387.005h-39.309c-6.865,0-12.43,5.565-12.43,12.43v39.309c0,6.865,5.565,12.43,12.43,12.43
	h39.309c6.865,0,12.43-5.565,12.43-12.43v-39.309C230.848,392.57,225.283,387.005,218.418,387.005z"/>
<path style="fill:#85CDEA;" d="M332.891,387.005h-39.309c-6.865,0-12.43,5.565-12.43,12.43v39.309c0,6.865,5.565,12.43,12.43,12.43
	h39.309c6.865,0,12.43-5.565,12.43-12.43v-39.309C345.321,392.57,339.756,387.005,332.891,387.005z"/>
<path style="fill:#58B78C;" d="M447.365,387.005h-39.309c-6.865,0-12.43,5.565-12.43,12.43v39.309c0,6.865,5.565,12.43,12.43,12.43
	h39.309c6.865,0,12.43-5.565,12.43-12.43v-39.309C459.795,392.57,454.23,387.005,447.365,387.005z"/>
<circle style="fill:#596674;" cx="341.84" cy="111.49" r="27.611"/>
<circle style="fill:#58B78C;" cx="432.18" cy="111.49" r="27.611"/>
<path d="M512,440.856V71.143c0-35.234-28.665-63.898-63.898-63.898h-41.915c-4.142,0-7.5,3.358-7.5,7.5s3.358,7.5,7.5,7.5h41.915
	c26.963,0,48.898,21.936,48.898,48.898v369.713c0,26.963-21.936,48.899-48.898,48.899H63.898C36.936,489.755,15,467.819,15,440.856
	V71.143c0-26.962,21.936-48.898,48.898-48.898h312.288c4.142,0,7.5-3.358,7.5-7.5s-3.358-7.5-7.5-7.5H63.898
	C28.665,7.245,0,35.909,0,71.143v369.713c0,35.234,28.665,63.899,63.898,63.899h384.203C483.335,504.755,512,476.09,512,440.856z"/>
<path d="M285.364,134.756v-46.54c0-19.238-15.652-34.89-34.89-34.89H84.483c-19.238,0-34.89,15.651-34.89,34.89v46.54
	c0,19.238,15.652,34.89,34.89,34.89h165.99C269.712,169.646,285.364,153.994,285.364,134.756z M64.593,134.756v-46.54
	c0-10.967,8.923-19.89,19.89-19.89h165.99c10.967,0,19.89,8.922,19.89,19.89v46.54c0,10.967-8.923,19.89-19.89,19.89H84.483
	C73.516,154.646,64.593,145.723,64.593,134.756z"/>
<path d="M95.246,93.96c-4.142,0-7.5,3.358-7.5,7.5v13.073c0,4.142,3.358,7.5,7.5,7.5s7.5-3.358,7.5-7.5V101.46
	C102.746,97.319,99.388,93.96,95.246,93.96z"/>
<path d="M239.711,93.96c-4.142,0-7.5,3.358-7.5,7.5v13.073c0,4.142,3.358,7.5,7.5,7.5s7.5-3.358,7.5-7.5V101.46
	C247.211,97.319,243.853,93.96,239.711,93.96z"/>
<path d="M190.243,107.977c-3.118-2.726-7.857-2.408-10.583,0.711c-2.958,3.383-7.398,5.324-12.182,5.324s-9.224-1.94-12.181-5.324
	c-2.726-3.119-7.464-3.437-10.583-0.711s-3.437,7.464-0.711,10.583c5.807,6.642,14.363,10.452,23.475,10.452
	s17.668-3.809,23.475-10.452C193.679,115.442,193.361,110.703,190.243,107.977z"/>
<path d="M123.875,206.038c0-10.989-8.941-19.93-19.931-19.93H64.635c-10.99,0-19.93,8.94-19.93,19.93v39.309
	c0,10.99,8.94,19.931,19.93,19.931h39.309c10.99,0,19.931-8.941,19.931-19.931V206.038z M108.875,245.347
	c0,2.719-2.212,4.931-4.931,4.931H64.635c-2.718,0-4.93-2.212-4.93-4.931v-39.309c0-2.718,2.212-4.93,4.93-4.93h39.309
	c2.719,0,4.931,2.211,4.931,4.93V245.347z"/>
<path d="M238.348,206.038c0-10.989-8.94-19.93-19.93-19.93h-39.309c-10.99,0-19.93,8.94-19.93,19.93v39.309
	c0,10.99,8.94,19.931,19.93,19.931h39.309c10.99,0,19.93-8.941,19.93-19.931L238.348,206.038L238.348,206.038z M223.348,245.347
	c0,2.719-2.212,4.931-4.93,4.931h-39.309c-2.718,0-4.93-2.212-4.93-4.931v-39.309c0-2.718,2.212-4.93,4.93-4.93h39.309
	c2.718,0,4.93,2.211,4.93,4.93L223.348,245.347L223.348,245.347z"/>
<path d="M352.821,206.038c0-10.989-8.94-19.93-19.93-19.93h-39.309c-10.99,0-19.93,8.94-19.93,19.93v39.309
	c0,10.99,8.94,19.931,19.93,19.931h39.309c10.99,0,19.93-8.941,19.93-19.931V206.038z M337.821,245.347
	c0,2.719-2.212,4.931-4.93,4.931h-39.309c-2.718,0-4.93-2.212-4.93-4.931v-39.309c0-2.718,2.212-4.93,4.93-4.93h39.309
	c2.718,0,4.93,2.211,4.93,4.93V245.347z"/>
<path d="M388.125,206.038v39.309c0,10.99,8.941,19.931,19.931,19.931h39.309c10.99,0,19.93-8.941,19.93-19.931v-39.309
	c0-10.989-8.94-19.93-19.93-19.93h-39.309C397.066,186.109,388.125,195.049,388.125,206.038z M403.125,206.038
	c0-2.718,2.212-4.93,4.931-4.93h39.309c2.718,0,4.93,2.211,4.93,4.93v39.309c0,2.719-2.212,4.931-4.93,4.931h-39.309
	c-2.719,0-4.931-2.212-4.931-4.931V206.038z"/>
<path d="M123.875,302.737c0-10.989-8.941-19.93-19.931-19.93H64.635c-10.99,0-19.93,8.941-19.93,19.93v39.309
	c0,10.99,8.94,19.931,19.93,19.931h39.309c10.99,0,19.931-8.941,19.931-19.931V302.737z M108.875,342.045
	c0,2.719-2.212,4.931-4.931,4.931H64.635c-2.718,0-4.93-2.212-4.93-4.931v-39.309c0-2.719,2.212-4.93,4.93-4.93h39.309
	c2.719,0,4.931,2.211,4.931,4.93V342.045z"/>
<path d="M238.348,302.737c0-10.989-8.94-19.93-19.93-19.93h-39.309c-10.99,0-19.93,8.941-19.93,19.93v39.309
	c0,10.99,8.94,19.931,19.93,19.931h39.309c10.99,0,19.93-8.941,19.93-19.931L238.348,302.737L238.348,302.737z M223.348,342.045
	c0,2.719-2.212,4.931-4.93,4.931h-39.309c-2.718,0-4.93-2.212-4.93-4.931v-39.309c0-2.719,2.212-4.93,4.93-4.93h39.309
	c2.718,0,4.93,2.211,4.93,4.93L223.348,342.045L223.348,342.045z"/>
<path d="M352.821,302.737c0-10.989-8.94-19.93-19.93-19.93h-39.309c-10.99,0-19.93,8.941-19.93,19.93v39.309
	c0,10.99,8.94,19.931,19.93,19.931h39.309c10.99,0,19.93-8.941,19.93-19.931V302.737z M337.821,342.045
	c0,2.719-2.212,4.931-4.93,4.931h-39.309c-2.718,0-4.93-2.212-4.93-4.931v-39.309c0-2.719,2.212-4.93,4.93-4.93h39.309
	c2.718,0,4.93,2.211,4.93,4.93V342.045z"/>
<path d="M388.125,342.045c0,10.99,8.941,19.931,19.931,19.931h39.309c10.99,0,19.93-8.941,19.93-19.931v-39.309
	c0-10.989-8.94-19.93-19.93-19.93h-39.309c-10.99,0-19.931,8.941-19.931,19.93V342.045z M403.125,302.737
	c0-2.719,2.212-4.93,4.931-4.93h39.309c2.718,0,4.93,2.211,4.93,4.93v39.309c0,2.719-2.212,4.931-4.93,4.931h-39.309
	c-2.719,0-4.931-2.212-4.931-4.931V302.737z"/>
<path d="M103.944,379.505H64.635c-10.99,0-19.93,8.941-19.93,19.93v39.309c0,10.989,8.94,19.93,19.93,19.93h39.309
	c10.99,0,19.931-8.941,19.931-19.93v-39.309C123.875,388.446,114.934,379.505,103.944,379.505z M108.875,438.743
	c0,2.719-2.212,4.93-4.931,4.93H64.635c-2.718,0-4.93-2.211-4.93-4.93v-39.309c0-2.719,2.212-4.93,4.93-4.93h39.309
	c2.719,0,4.931,2.211,4.931,4.93V438.743z"/>
<path d="M218.417,379.505h-39.309c-10.99,0-19.93,8.941-19.93,19.93v39.309c0,10.989,8.94,19.93,19.93,19.93h39.309
	c10.99,0,19.93-8.941,19.93-19.93v-39.309C238.348,388.446,229.407,379.505,218.417,379.505z M223.348,438.743
	c0,2.719-2.212,4.93-4.93,4.93h-39.309c-2.718,0-4.93-2.211-4.93-4.93v-39.309c0-2.719,2.212-4.93,4.93-4.93h39.309
	c2.718,0,4.93,2.211,4.93,4.93L223.348,438.743L223.348,438.743z"/>
<path d="M293.583,458.674h39.309c10.99,0,19.93-8.941,19.93-19.93v-39.309c0-10.989-8.94-19.93-19.93-19.93h-39.309
	c-10.99,0-19.93,8.941-19.93,19.93v39.309C273.652,449.733,282.593,458.674,293.583,458.674z M288.652,399.435
	c0-2.719,2.212-4.93,4.93-4.93h39.309c2.718,0,4.93,2.211,4.93,4.93v39.309c0,2.719-2.212,4.93-4.93,4.93h-39.309
	c-2.718,0-4.93-2.211-4.93-4.93V399.435z"/>
<path d="M388.125,438.743c0,10.989,8.941,19.93,19.931,19.93h39.309c10.99,0,19.93-8.941,19.93-19.93v-39.309
	c0-10.989-8.94-19.93-19.93-19.93h-39.309c-10.99,0-19.931,8.941-19.931,19.93V438.743z M403.125,399.435
	c0-2.719,2.212-4.93,4.931-4.93h39.309c2.718,0,4.93,2.211,4.93,4.93v39.309c0,2.719-2.212,4.93-4.93,4.93h-39.309
	c-2.719,0-4.931-2.211-4.931-4.93V399.435z"/>
<path d="M376.951,111.486c0-19.36-15.75-35.11-35.111-35.11s-35.111,15.75-35.111,35.11s15.751,35.111,35.111,35.111
	S376.951,130.846,376.951,111.486z M341.84,131.597c-11.089,0-20.111-9.021-20.111-20.111c0-11.089,9.022-20.11,20.111-20.11
	s20.111,9.021,20.111,20.11S352.93,131.597,341.84,131.597z"/>
<path d="M467.295,111.486c0-19.36-15.75-35.11-35.111-35.11s-35.111,15.75-35.111,35.11s15.751,35.111,35.111,35.111
	S467.295,130.846,467.295,111.486z M412.073,111.486c0-11.089,9.022-20.11,20.111-20.11s20.111,9.021,20.111,20.11
	c0,11.09-9.021,20.111-20.111,20.111S412.073,122.575,412.073,111.486z"/>
<g>
</g>
<g>
</g>
<g>
</g>
<g>
</g>
<g>
</g>
<g>
</g>
<g>
</g>
<g>
</g>
<g>
</g>
<g>
</g>
<g>
</g>
<g>
</g>
<g>
</g>
<g>
</g>
<g>
</g>
</svg>
