<?xml version="1.0" encoding="iso-8859-1"?>
<!-- Generator: Adobe Illustrator 19.0.0, SVG Export Plug-In . SVG Version: 6.00 Build 0)  -->
<svg version="1.1" id="Capa_1" xmlns="http://www.w3.org/2000/svg" xmlns:xlink="http://www.w3.org/1999/xlink" x="0px" y="0px"
	 viewBox="0 0 512 512" style="enable-background:new 0 0 512 512;" xml:space="preserve">
<g>
	<g>
		<path d="M448.102,7.245h-41.915c-4.142,0-7.5,3.358-7.5,7.5c0,4.142,3.358,7.5,7.5,7.5h41.915
			c26.963,0,48.898,21.936,48.898,48.898v369.713c0,26.963-21.936,48.899-48.898,48.899H63.898
			C36.936,489.755,15,467.819,15,440.856V71.143c0-26.962,21.936-48.898,48.898-48.898h312.288c4.142,0,7.5-3.358,7.5-7.5
			c0-4.142-3.358-7.5-7.5-7.5H63.898C28.665,7.245,0,35.909,0,71.143v369.713c0,35.234,28.665,63.899,63.898,63.899h384.203
			c35.234,0,63.899-28.665,63.899-63.899V71.143C512,35.909,483.335,7.245,448.102,7.245z"/>
	</g>
</g>
<g>
	<g>
		<path d="M250.474,53.326H84.483c-19.238,0-34.89,15.651-34.89,34.89v46.54c0,19.238,15.652,34.89,34.89,34.89h165.99
			c19.239,0,34.891-15.652,34.891-34.89v-46.54C285.364,68.978,269.712,53.326,250.474,53.326z M270.363,134.756
			c0,10.967-8.923,19.89-19.89,19.89H84.483c-10.967,0-19.89-8.923-19.89-19.89v-46.54c0-10.967,8.923-19.89,19.89-19.89h165.99
			c10.967,0,19.89,8.922,19.89,19.89V134.756z"/>
	</g>
</g>
<g>
	<g>
		<path d="M95.246,93.96c-4.142,0-7.5,3.358-7.5,7.5v13.073c0,4.142,3.358,7.5,7.5,7.5c4.142,0,7.5-3.358,7.5-7.5V101.46
			C102.746,97.319,99.388,93.96,95.246,93.96z"/>
	</g>
</g>
<g>
	<g>
		<path d="M239.711,93.96c-4.142,0-7.5,3.358-7.5,7.5v13.073c0,4.142,3.358,7.5,7.5,7.5c4.142,0,7.5-3.358,7.5-7.5V101.46
			C247.211,97.319,243.853,93.96,239.711,93.96z"/>
	</g>
</g>
<g>
	<g>
		<path d="M190.243,107.977c-3.118-2.726-7.857-2.408-10.583,0.711c-2.958,3.383-7.398,5.324-12.182,5.324
			c-4.784,0-9.224-1.94-12.181-5.324c-2.726-3.119-7.464-3.437-10.583-0.711s-3.437,7.464-0.711,10.583
			c5.807,6.642,14.363,10.452,23.475,10.452s17.668-3.809,23.475-10.452C193.679,115.442,193.361,110.703,190.243,107.977z"/>
	</g>
</g>
<g>
	<g>
		<path d="M103.944,186.108H64.635c-10.99,0-19.93,8.94-19.93,19.93v39.309c0,10.99,8.94,19.931,19.93,19.931h39.309
			c10.99,0,19.931-8.941,19.931-19.931v-39.309C123.875,195.049,114.934,186.108,103.944,186.108z M108.875,245.347
			c0,2.719-2.212,4.931-4.931,4.931H64.635c-2.718,0-4.93-2.212-4.93-4.931v-39.309c0-2.718,2.212-4.93,4.93-4.93h39.309
			c2.719,0,4.931,2.211,4.931,4.93V245.347z"/>
	</g>
</g>
<g>
	<g>
		<path d="M218.418,186.108h-39.309c-10.99,0-19.93,8.94-19.93,19.93v39.309c0,10.99,8.94,19.931,19.93,19.931h39.309
			c10.99,0,19.93-8.941,19.93-19.931v-39.309C238.348,195.049,229.408,186.108,218.418,186.108z M223.348,245.347
			c0,2.719-2.212,4.931-4.93,4.931h-39.309c-2.718,0-4.93-2.212-4.93-4.931v-39.309c0-2.718,2.212-4.93,4.93-4.93h39.309
			c2.718,0,4.93,2.211,4.93,4.93V245.347z"/>
	</g>
</g>
<g>
	<g>
		<path d="M332.891,186.108h-39.309c-10.99,0-19.93,8.94-19.93,19.93v39.309c0,10.99,8.94,19.931,19.93,19.931h39.309
			c10.99,0,19.93-8.941,19.93-19.931v-39.309C352.821,195.049,343.881,186.108,332.891,186.108z M337.821,245.347
			c0,2.719-2.212,4.931-4.93,4.931h-39.309c-2.718,0-4.93-2.212-4.93-4.931v-39.309c0-2.718,2.212-4.93,4.93-4.93h39.309
			c2.718,0,4.93,2.211,4.93,4.93V245.347z"/>
	</g>
</g>
<g>
	<g>
		<path d="M447.365,186.108h-39.309c-10.99,0.001-19.931,8.941-19.931,19.93v39.309c0,10.99,8.941,19.931,19.931,19.931h39.309
			c10.99,0,19.93-8.941,19.93-19.931v-39.309C467.295,195.049,458.355,186.108,447.365,186.108z M452.295,245.347
			c0,2.719-2.212,4.931-4.93,4.931h-39.309c-2.719,0-4.931-2.212-4.931-4.931v-39.309c0-2.718,2.212-4.93,4.931-4.93h39.309
			c2.718,0,4.93,2.211,4.93,4.93V245.347z"/>
	</g>
</g>
<g>
	<g>
		<path d="M103.944,282.807H64.635c-10.99,0-19.93,8.941-19.93,19.93v39.309c0,10.99,8.94,19.931,19.93,19.931h39.309
			c10.99,0,19.931-8.941,19.931-19.931v-39.309C123.875,291.748,114.934,282.807,103.944,282.807z M108.875,342.045
			c0,2.719-2.212,4.931-4.931,4.931H64.635c-2.718,0-4.93-2.212-4.93-4.931v-39.309c0-2.719,2.212-4.93,4.93-4.93h39.309
			c2.719,0,4.931,2.211,4.931,4.93V342.045z"/>
	</g>
</g>
<g>
	<g>
		<path d="M218.418,282.807h-39.309c-10.99,0-19.93,8.941-19.93,19.93v39.309c0,10.99,8.94,19.931,19.93,19.931h39.309
			c10.99,0,19.93-8.941,19.93-19.931v-39.309C238.348,291.748,229.408,282.807,218.418,282.807z M223.348,342.045
			c0,2.719-2.212,4.931-4.93,4.931h-39.309c-2.718,0-4.93-2.212-4.93-4.931v-39.309c0-2.719,2.212-4.93,4.93-4.93h39.309
			c2.718,0,4.93,2.211,4.93,4.93V342.045z"/>
	</g>
</g>
<g>
	<g>
		<path d="M332.891,282.807h-39.309c-10.99,0-19.93,8.941-19.93,19.93v39.309c0,10.99,8.94,19.931,19.93,19.931h39.309
			c10.99,0,19.93-8.941,19.93-19.931v-39.309C352.821,291.748,343.881,282.807,332.891,282.807z M337.821,342.045
			c0,2.719-2.212,4.931-4.93,4.931h-39.309c-2.718,0-4.93-2.212-4.93-4.931v-39.309c0-2.719,2.212-4.93,4.93-4.93h39.309
			c2.718,0,4.93,2.211,4.93,4.93V342.045z"/>
	</g>
</g>
<g>
	<g>
		<path d="M447.365,282.806h-39.309c-10.99,0-19.931,8.941-19.931,19.93v39.309c0,10.99,8.941,19.931,19.931,19.931h39.309
			c10.99,0,19.93-8.941,19.93-19.931v-39.309C467.295,291.747,458.355,282.806,447.365,282.806z M452.295,342.046
			c0,2.719-2.212,4.931-4.93,4.931h-39.309c-2.719,0-4.931-2.212-4.931-4.931v-39.309c0-2.719,2.212-4.93,4.931-4.93h39.309
			c2.718,0,4.93,2.211,4.93,4.93V342.046z"/>
	</g>
</g>
<g>
	<g>
		<path d="M103.944,379.505H64.635c-10.99,0-19.93,8.941-19.93,19.93v39.309c0,10.989,8.94,19.93,19.93,19.93h39.309
			c10.99,0,19.931-8.941,19.931-19.93v-39.309C123.875,388.446,114.934,379.505,103.944,379.505z M108.875,438.743
			c0,2.719-2.212,4.93-4.931,4.93H64.635c-2.718,0-4.93-2.211-4.93-4.93v-39.309c0-2.719,2.212-4.93,4.93-4.93h39.309
			c2.719,0,4.931,2.211,4.931,4.93V438.743z"/>
	</g>
</g>
<g>
	<g>
		<path d="M218.417,379.505h-39.309c-10.99,0-19.93,8.941-19.93,19.93v39.309c0,10.989,8.94,19.93,19.93,19.93h39.309
			c10.99,0,19.93-8.941,19.93-19.93v-39.309C238.348,388.446,229.407,379.505,218.417,379.505z M223.348,438.743
			c0,2.719-2.212,4.93-4.93,4.93h-39.309c-2.718,0-4.93-2.211-4.93-4.93v-39.309c0-2.719,2.212-4.93,4.93-4.93h39.309
			c2.718,0,4.93,2.211,4.93,4.93V438.743z"/>
	</g>
</g>
<g>
	<g>
		<path d="M332.892,379.505h-39.309c-10.99,0-19.93,8.941-19.93,19.93v39.309c-0.001,10.989,8.94,19.93,19.93,19.93h39.309
			c10.99,0,19.93-8.941,19.93-19.93v-39.309C352.822,388.446,343.882,379.505,332.892,379.505z M337.821,438.744
			c0,2.719-2.212,4.93-4.93,4.93h-39.309c-2.718,0-4.93-2.211-4.93-4.93v-39.309c0-2.719,2.212-4.93,4.93-4.93h39.309
			c2.718,0,4.93,2.211,4.93,4.93V438.744z"/>
	</g>
</g>
<g>
	<g>
		<path d="M447.365,379.504h-39.309c-10.99,0-19.931,8.941-19.931,19.93v39.309c0,10.989,8.941,19.93,19.931,19.93h39.309
			c10.99,0,19.93-8.941,19.93-19.93v-39.309C467.295,388.445,458.355,379.504,447.365,379.504z M452.295,438.744
			c0,2.719-2.212,4.93-4.93,4.93h-39.309c-2.719,0-4.931-2.211-4.931-4.93v-39.309c0-2.719,2.212-4.93,4.931-4.93h39.309
			c2.718,0,4.93,2.211,4.93,4.93V438.744z"/>
	</g>
</g>
<g>
	<g>
		<path d="M341.84,76.376c-19.361,0-35.111,15.75-35.111,35.11c0,19.36,15.751,35.111,35.111,35.111s35.111-15.751,35.111-35.111
			C376.951,92.126,361.201,76.376,341.84,76.376z M341.84,131.597c-11.089,0-20.111-9.021-20.111-20.111
			c0-11.089,9.022-20.11,20.111-20.11s20.111,9.021,20.111,20.11C361.951,122.575,352.93,131.597,341.84,131.597z"/>
	</g>
</g>
<g>
	<g>
		<path d="M432.184,76.376c-19.361,0-35.111,15.75-35.111,35.11c0,19.36,15.751,35.111,35.111,35.111s35.111-15.751,35.111-35.111
			C467.295,92.126,451.545,76.376,432.184,76.376z M432.184,131.597c-11.09,0-20.111-9.022-20.111-20.111
			c0-11.089,9.022-20.11,20.111-20.11s20.111,9.021,20.111,20.11C452.295,122.576,443.274,131.597,432.184,131.597z"/>
	</g>
</g>
<g>
</g>
<g>
</g>
<g>
</g>
<g>
</g>
<g>
</g>
<g>
</g>
<g>
</g>
<g>
</g>
<g>
</g>
<g>
</g>
<g>
</g>
<g>
</g>
<g>
</g>
<g>
</g>
<g>
</g>
</svg>
