<svg id="Capa_1" enable-background="new 0 0 512 512" height="512" viewBox="0 0 512 512" width="512" xmlns="http://www.w3.org/2000/svg"><g><path d="m471.367 0h-382.6c-4.143 0-7.5 3.358-7.5 7.5s3.357 7.5 7.5 7.5h382.6c14.134 0 25.632 11.499 25.632 25.632v364.468c0 14.134-11.498 25.633-25.632 25.633h-9.067v-9.067c0-4.142-3.357-7.5-7.5-7.5s-7.5 3.358-7.5 7.5v9.067h-34.7v-9.067c0-4.142-3.357-7.5-7.5-7.5s-7.5 3.358-7.5 7.5v9.067h-34.7v-9.067c0-4.142-3.357-7.5-7.5-7.5s-7.5 3.358-7.5 7.5v9.067h-307.267c-14.134 0-25.632-11.499-25.632-25.633v-364.468c0-14.133 11.498-25.632 25.632-25.632h18.134c4.143 0 7.5-3.358 7.5-7.5s-3.358-7.5-7.5-7.5h-18.134c-22.404 0-40.632 18.228-40.632 40.632v430.735c0 22.405 18.228 40.633 40.632 40.633h430.734c22.404 0 40.632-18.228 40.632-40.632v-430.736c0-22.404-18.227-40.632-40.632-40.632zm-406.667 497v-17.633c0-.276.225-.5.5-.5h17.133c.275 0 .5.224.5.5v17.633zm66.267 0v-17.633c0-.276.225-.5.5-.5h17.133c.275 0 .5.224.5.5v17.633zm66.266 0v-17.633c0-.276.225-.5.5-.5h17.134c.275 0 .5.224.5.5v17.633zm274.134 0h-241v-17.633c0-8.547-6.953-15.5-15.5-15.5h-17.134c-8.547 0-15.5 6.953-15.5 15.5v17.633h-18.133v-17.633c0-8.547-6.953-15.5-15.5-15.5h-17.133c-8.547 0-15.5 6.953-15.5 15.5v17.633h-18.134v-17.633c0-8.547-6.953-15.5-15.5-15.5h-17.133c-8.547 0-15.5 6.953-15.5 15.5v17.633h-9.067c-14.134 0-25.632-11.499-25.632-25.632v-34.768c6.997 5.705 15.921 9.134 25.632 9.134h430.734c9.711 0 18.634-3.429 25.632-9.134v34.768c0 14.133-11.498 25.632-25.632 25.632z"/><path d="m363.4 97.834h99.967c8.547 0 15.5-6.953 15.5-15.5v-33.7c0-8.547-6.953-15.5-15.5-15.5h-99.967c-8.547 0-15.5 6.953-15.5 15.5v33.7c0 8.546 6.953 15.5 15.5 15.5zm-.5-49.201c0-.276.225-.5.5-.5h99.967c.275 0 .5.224.5.5v33.7c0 .276-.225.5-.5.5h-99.967c-.275 0-.5-.224-.5-.5z"/><path d="m130.967 164.6c0-8.547-6.953-15.5-15.5-15.5h-33.7c-8.547 0-15.5 6.953-15.5 15.5v33.7c0 8.547 6.953 15.5 15.5 15.5h33.7c8.547 0 15.5-6.953 15.5-15.5zm-15 33.7c0 .276-.225.5-.5.5h-33.7c-.275 0-.5-.224-.5-.5v-33.7c0-.276.225-.5.5-.5h33.7c.275 0 .5.224.5.5z"/><path d="m213.8 164.6c0-8.547-6.953-15.5-15.5-15.5h-33.7c-8.547 0-15.5 6.953-15.5 15.5v33.7c0 8.547 6.953 15.5 15.5 15.5h33.7c8.547 0 15.5-6.953 15.5-15.5zm-15 33.7c0 .276-.225.5-.5.5h-33.7c-.275 0-.5-.224-.5-.5v-33.7c0-.276.225-.5.5-.5h33.7c.275 0 .5.224.5.5z"/><path d="m247.434 213.8h33.699c8.547 0 15.5-6.953 15.5-15.5v-33.7c0-8.547-6.953-15.5-15.5-15.5h-33.699c-8.547 0-15.5 6.953-15.5 15.5v33.7c0 8.547 6.953 15.5 15.5 15.5zm-.5-49.2c0-.276.225-.5.5-.5h33.699c.275 0 .5.224.5.5v33.7c0 .276-.225.5-.5.5h-33.699c-.275 0-.5-.224-.5-.5z"/><path d="m130.967 247.433c0-8.547-6.953-15.5-15.5-15.5h-33.7c-8.547 0-15.5 6.953-15.5 15.5v33.7c0 8.547 6.953 15.5 15.5 15.5h33.7c8.547 0 15.5-6.953 15.5-15.5zm-15 33.7c0 .276-.225.5-.5.5h-33.7c-.275 0-.5-.224-.5-.5v-33.7c0-.276.225-.5.5-.5h33.7c.275 0 .5.224.5.5z"/><path d="m213.8 247.433c0-8.547-6.953-15.5-15.5-15.5h-33.7c-8.547 0-15.5 6.953-15.5 15.5v33.7c0 8.547 6.953 15.5 15.5 15.5h33.7c8.547 0 15.5-6.953 15.5-15.5zm-15 33.7c0 .276-.225.5-.5.5h-33.7c-.275 0-.5-.224-.5-.5v-33.7c0-.276.225-.5.5-.5h33.7c.275 0 .5.224.5.5z"/><path d="m231.934 281.133c0 8.547 6.953 15.5 15.5 15.5h33.699c8.547 0 15.5-6.953 15.5-15.5v-33.7c0-8.547-6.953-15.5-15.5-15.5h-33.699c-8.547 0-15.5 6.953-15.5 15.5zm15-33.7c0-.276.225-.5.5-.5h33.699c.275 0 .5.224.5.5v33.7c0 .276-.225.5-.5.5h-33.699c-.275 0-.5-.224-.5-.5z"/><path d="m115.467 314.767h-33.7c-8.547 0-15.5 6.953-15.5 15.5v33.7c0 8.547 6.953 15.5 15.5 15.5h33.7c8.547 0 15.5-6.953 15.5-15.5v-33.7c0-8.547-6.953-15.5-15.5-15.5zm.5 49.2c0 .276-.225.5-.5.5h-33.7c-.275 0-.5-.224-.5-.5v-33.7c0-.276.225-.5.5-.5h33.7c.275 0 .5.224.5.5z"/><path d="m198.3 314.767h-33.7c-8.547 0-15.5 6.953-15.5 15.5v33.7c0 8.547 6.953 15.5 15.5 15.5h33.7c8.547 0 15.5-6.953 15.5-15.5v-33.7c0-8.547-6.953-15.5-15.5-15.5zm.5 49.2c0 .276-.225.5-.5.5h-33.7c-.275 0-.5-.224-.5-.5v-33.7c0-.276.225-.5.5-.5h33.7c.275 0 .5.224.5.5z"/><path d="m231.934 363.967c0 8.547 6.953 15.5 15.5 15.5h33.699c8.547 0 15.5-6.953 15.5-15.5v-33.7c0-8.547-6.953-15.5-15.5-15.5h-33.699c-8.547 0-15.5 6.953-15.5 15.5zm15-33.7c0-.276.225-.5.5-.5h33.699c.275 0 .5.224.5.5v33.7c0 .276-.225.5-.5.5h-33.699c-.275 0-.5-.224-.5-.5z"/><path d="m33.133 139.467v249.633c0 12.958 10.542 23.5 23.5 23.5h192.65c4.143 0 7.5-3.358 7.5-7.5s-3.357-7.5-7.5-7.5h-192.65c-4.687 0-8.5-3.813-8.5-8.5v-249.633c0-4.687 3.813-8.5 8.5-8.5h249.634c4.686 0 8.5 3.813 8.5 8.5v249.633c0 4.687-3.814 8.5-8.5 8.5h-26.983c-4.143 0-7.5 3.358-7.5 7.5s3.357 7.5 7.5 7.5h26.983c12.958 0 23.5-10.542 23.5-23.5v-249.633c0-12.958-10.542-23.5-23.5-23.5h-249.634c-12.958 0-23.5 10.542-23.5 23.5z"/><path d="m347.9 181.733c0 8.547 6.953 15.5 15.5 15.5h99.967c8.547 0 15.5-6.953 15.5-15.5v-50.267c0-8.547-6.953-15.5-15.5-15.5h-99.967c-8.547 0-15.5 6.953-15.5 15.5zm15-50.266c0-.276.225-.5.5-.5h99.967c.275 0 .5.224.5.5v50.267c0 .276-.225.5-.5.5h-99.967c-.275 0-.5-.224-.5-.5z"/><path d="m405.1 164.1h16.567c4.143 0 7.5-3.358 7.5-7.5s-3.357-7.5-7.5-7.5h-16.567c-4.143 0-7.5 3.358-7.5 7.5s3.357 7.5 7.5 7.5z"/><path d="m380.25 215.367c-13.271 0-24.066 10.796-24.066 24.066s10.796 24.067 24.066 24.067 24.066-10.796 24.066-24.067c0-13.27-10.795-24.066-24.066-24.066zm0 33.133c-4.999 0-9.066-4.067-9.066-9.067 0-4.999 4.067-9.066 9.066-9.066s9.066 4.067 9.066 9.066c0 5-4.067 9.067-9.066 9.067z"/><path d="m446.517 215.367c-13.271 0-24.066 10.796-24.066 24.066s10.796 24.067 24.066 24.067 24.066-10.796 24.066-24.067c0-13.27-10.796-24.066-24.066-24.066zm0 33.133c-4.999 0-9.066-4.067-9.066-9.067 0-4.999 4.067-9.066 9.066-9.066s9.066 4.067 9.066 9.066c0 5-4.067 9.067-9.066 9.067z"/><path d="m380.25 281.633c-13.271 0-24.066 10.796-24.066 24.067s10.796 24.066 24.066 24.066 24.066-10.796 24.066-24.066-10.795-24.067-24.066-24.067zm0 33.134c-4.999 0-9.066-4.067-9.066-9.066s4.067-9.067 9.066-9.067 9.066 4.067 9.066 9.067c0 4.998-4.067 9.066-9.066 9.066z"/><path d="m446.517 281.633c-13.271 0-24.066 10.796-24.066 24.067s10.796 24.066 24.066 24.066 24.066-10.796 24.066-24.066-10.796-24.067-24.066-24.067zm0 33.134c-4.999 0-9.066-4.067-9.066-9.066s4.067-9.067 9.066-9.067 9.066 4.067 9.066 9.067c0 4.998-4.067 9.066-9.066 9.066z"/><path d="m380.25 347.9c-13.271 0-24.066 10.796-24.066 24.067s10.796 24.066 24.066 24.066 24.066-10.796 24.066-24.066-10.795-24.067-24.066-24.067zm0 33.133c-4.999 0-9.066-4.067-9.066-9.066 0-5 4.067-9.067 9.066-9.067s9.066 4.067 9.066 9.067c0 4.999-4.067 9.066-9.066 9.066z"/><path d="m446.517 347.9c-13.271 0-24.066 10.796-24.066 24.067s10.796 24.066 24.066 24.066 24.066-10.796 24.066-24.066-10.796-24.067-24.066-24.067zm0 33.133c-4.999 0-9.066-4.067-9.066-9.066 0-5 4.067-9.067 9.066-9.067s9.066 4.067 9.066 9.067c0 4.999-4.067 9.066-9.066 9.066z"/><path d="m280.85 33.133c-4.143 0-7.5 3.358-7.5 7.5v1.986c-9.608 3.16-16.566 12.212-16.566 22.864s6.958 19.704 16.566 22.864v1.987c0 4.142 3.357 7.5 7.5 7.5s7.5-3.358 7.5-7.5v-1.987c9.608-3.16 16.567-12.211 16.567-22.864s-6.959-19.704-16.567-22.864v-1.986c0-4.142-3.358-7.5-7.5-7.5zm0 41.417c-4.999 0-9.066-4.067-9.066-9.066 0-5 4.067-9.067 9.066-9.067 5 0 9.067 4.067 9.067 9.067 0 4.998-4.067 9.066-9.067 9.066z"/><path d="m214.583 33.133c-4.143 0-7.5 3.358-7.5 7.5v1.986c-9.608 3.16-16.566 12.212-16.566 22.864s6.958 19.704 16.566 22.864v1.987c0 4.142 3.357 7.5 7.5 7.5s7.5-3.358 7.5-7.5v-1.987c9.608-3.16 16.567-12.211 16.567-22.864s-6.959-19.704-16.567-22.864v-1.986c0-4.142-3.357-7.5-7.5-7.5zm0 41.417c-4.999 0-9.066-4.067-9.066-9.066 0-5 4.067-9.067 9.066-9.067 5 0 9.067 4.067 9.067 9.067 0 4.998-4.067 9.066-9.067 9.066z"/><path d="m148.316 33.133c-4.143 0-7.5 3.358-7.5 7.5v1.986c-9.608 3.16-16.566 12.212-16.566 22.864s6.958 19.704 16.566 22.864v1.987c0 4.142 3.357 7.5 7.5 7.5s7.5-3.358 7.5-7.5v-1.987c9.608-3.16 16.566-12.212 16.566-22.864s-6.958-19.704-16.566-22.864v-1.986c0-4.142-3.357-7.5-7.5-7.5zm0 41.417c-4.999 0-9.066-4.067-9.066-9.066 0-5 4.067-9.067 9.066-9.067s9.066 4.067 9.066 9.067c.001 4.998-4.067 9.066-9.066 9.066z"/><path d="m57.983 65.483c0 10.652 6.958 19.704 16.566 22.864v1.987c0 4.142 3.357 7.5 7.5 7.5s7.5-3.358 7.5-7.5v-1.987c9.608-3.16 16.566-12.212 16.566-22.864s-6.958-19.704-16.566-22.864v-1.986c0-4.142-3.357-7.5-7.5-7.5s-7.5 3.358-7.5 7.5v1.986c-9.607 3.16-16.566 12.213-16.566 22.864zm24.067 9.067c-4.999 0-9.066-4.067-9.066-9.066 0-5 4.067-9.067 9.066-9.067s9.066 4.067 9.066 9.067c0 4.998-4.067 9.066-9.066 9.066z"/></g></svg>