<?xml version="1.0" encoding="iso-8859-1"?>
<!-- Generator: Adobe Illustrator 19.0.0, SVG Export Plug-In . SVG Version: 6.00 Build 0)  -->
<svg version="1.1" id="Capa_1" xmlns="http://www.w3.org/2000/svg" xmlns:xlink="http://www.w3.org/1999/xlink" x="0px" y="0px"
	 viewBox="0 0 480 480" style="enable-background:new 0 0 480 480;" xml:space="preserve">
<path style="fill:#D4D4D4;" d="M120,8h240c17.673,0,32,14.327,32,32v368c0,17.673-14.327,32-32,32H120c-17.673,0-32-14.327-32-32V40
	C88,22.327,102.327,8,120,8z"/>
<path style="fill:#C7C7C7;" d="M91.08,421.496C96.3,432.765,107.581,439.983,120,440h240c17.673,0,32-14.327,32-32V75.2
	C326.768,249.088,167.936,370.72,91.08,421.496L91.08,421.496z"/>
<circle style="fill:#737373;" cx="240" cy="288" r="120"/>
<path style="fill:#DE4C3C;" d="M240,384c-53.019,0-96-42.981-96-96s42.981-96,96-96s96,42.981,96,96
	C335.943,340.996,292.996,383.943,240,384z M240,208c-44.183,0-80,35.817-80,80s35.817,80,80,80s80-35.817,80-80
	C319.952,243.837,284.163,208.048,240,208z"/>
<circle style="fill:#666666;" cx="240" cy="88" r="48"/>
<g>
	<circle style="fill:#737373;" cx="240" cy="88" r="16"/>
	<path style="fill:#737373;" d="M112,32h16v16h-16V32z"/>
	<path style="fill:#737373;" d="M352,32h16v16h-16V32z"/>
	<path style="fill:#737373;" d="M112,400h16v16h-16V400z"/>
	<path style="fill:#737373;" d="M352,400h16v16h-16V400z"/>
</g>
<circle style="fill:#DEDEDE;" cx="240" cy="288" r="32"/>
<g>
	<path style="fill:#737373;" d="M120,440h32v32h-32V440z"/>
	<path style="fill:#737373;" d="M328,440h32v32h-32V440z"/>
</g>
<g>
	<path style="fill:#87CED9;" d="M48,296H16c-4.418,0-8-3.582-8-8s3.582-8,8-8h32c4.418,0,8,3.582,8,8S52.418,296,48,296z"/>
	<path style="fill:#87CED9;" d="M48,240c-2.122,0-4.156-0.844-5.656-2.344l-24-24c-3.069-3.178-2.981-8.243,0.197-11.312
		c3.1-2.994,8.015-2.994,11.115,0l24,24c3.124,3.125,3.123,8.19-0.002,11.314C52.154,239.157,50.121,240,48,240z"/>
	<path style="fill:#87CED9;" d="M24,376c-4.418-0.001-7.999-3.583-7.998-8.002c0-2.121,0.843-4.154,2.342-5.654l24-24
		c3.178-3.07,8.242-2.982,11.312,0.196c2.995,3.1,2.995,8.016,0,11.116l-24,24C28.156,375.156,26.122,376,24,376z"/>
	<path style="fill:#87CED9;" d="M464,296h-32c-4.418,0-8-3.582-8-8s3.582-8,8-8h32c4.418,0,8,3.582,8,8S468.418,296,464,296z"/>
	<path style="fill:#87CED9;" d="M432,240c-4.418-0.001-7.999-3.583-7.998-8.002c0-2.121,0.843-4.155,2.342-5.654l24-24
		c3.178-3.07,8.242-2.982,11.312,0.196c2.994,3.1,2.994,8.015,0,11.116l-24,24C436.156,239.156,434.122,240,432,240L432,240z"/>
	<path style="fill:#87CED9;" d="M456,376c-2.122,0-4.156-0.844-5.656-2.344l-24-24c-3.07-3.178-2.982-8.242,0.196-11.312
		c3.1-2.995,8.016-2.995,11.116,0l24,24c3.124,3.125,3.123,8.19-0.002,11.314C460.155,375.157,458.121,376,456,376z"/>
</g>
<path d="M112,447.2V480h48v-32h160v32h48v-32.8c18.611-3.827,31.976-20.199,32-39.2V40c-0.026-22.08-17.92-39.974-40-40H120
	C97.92,0.026,80.026,17.92,80,40v368C80.024,427.001,93.389,443.373,112,447.2z M144,464h-16v-16h16V464z M352,464h-16v-16h16V464z
	 M96,40c0-13.255,10.745-24,24-24h240c13.255,0,24,10.745,24,24v368c0,13.255-10.745,24-24,24H120c-13.255,0-24-10.745-24-24V40z"/>
<path d="M240,416c70.692,0,128-57.308,128-128s-57.308-128-128-128s-128,57.308-128,128C112.084,358.658,169.342,415.916,240,416z
	 M240,176c61.856,0,112,50.144,112,112s-50.144,112-112,112s-112-50.144-112-112C128.066,226.172,178.172,176.066,240,176z"/>
<path d="M240,384c53.019,0,96-42.981,96-96s-42.981-96-96-96s-96,42.981-96,96C144.057,340.996,187.004,383.943,240,384z M240,208
	c44.183,0,80,35.817,80,80s-35.817,80-80,80s-80-35.817-80-80C160.048,243.837,195.837,208.048,240,208z"/>
<path d="M240,144c30.928,0,56-25.072,56-56s-25.072-56-56-56s-56,25.072-56,56C184.035,118.913,209.087,143.965,240,144z M240,48
	c22.091,0,40,17.909,40,40s-17.909,40-40,40s-40-17.909-40-40C200.026,65.92,217.92,48.026,240,48z"/>
<path d="M240,112c13.255,0,24-10.745,24-24s-10.745-24-24-24c-13.255,0-24,10.745-24,24S226.745,112,240,112z M240,80
	c4.418,0,8,3.582,8,8s-3.582,8-8,8s-8-3.582-8-8S235.582,80,240,80z"/>
<path d="M112,32h16v16h-16V32z"/>
<path d="M352,32h16v16h-16V32z"/>
<path d="M112,400h16v16h-16V400z"/>
<path d="M352,400h16v16h-16V400z"/>
<path d="M240,328c22.091,0,40-17.909,40-40s-17.909-40-40-40s-40,17.909-40,40C200.026,310.08,217.92,327.974,240,328z M240,264
	c13.255,0,24,10.745,24,24s-10.745,24-24,24c-13.255,0-24-10.745-24-24S226.745,264,240,264z"/>
<path d="M16,296h32c4.418,0,8-3.582,8-8s-3.582-8-8-8H16c-4.418,0-8,3.582-8,8S11.582,296,16,296z"/>
<path d="M42.344,237.656c3.178,3.069,8.243,2.981,11.312-0.197c2.994-3.1,2.994-8.015,0-11.115l-24-24
	c-3.178-3.069-8.243-2.981-11.312,0.197c-2.994,3.1-2.994,8.015,0,11.115L42.344,237.656z"/>
<path d="M29.656,373.656l24-24c3.07-3.178,2.982-8.242-0.196-11.312c-3.1-2.994-8.016-2.994-11.116,0l-24,24
	c-3.178,3.07-3.266,8.134-0.196,11.312c3.07,3.178,8.134,3.266,11.312,0.196C29.526,373.788,29.592,373.723,29.656,373.656z"/>
<path d="M432,296h32c4.418,0,8-3.582,8-8s-3.582-8-8-8h-32c-4.418,0-8,3.582-8,8S427.582,296,432,296z"/>
<path d="M432,240c2.122,0,4.156-0.844,5.656-2.344l24-24c3.069-3.178,2.982-8.243-0.196-11.312c-3.1-2.994-8.015-2.994-11.116,0
	l-24,24c-3.124,3.125-3.123,8.19,0.002,11.314C427.846,239.157,429.879,240,432,240z"/>
<path d="M450.344,373.656c3.178,3.07,8.242,2.982,11.312-0.196c2.995-3.1,2.995-8.016,0-11.116l-24-24
	c-3.178-3.07-8.242-2.982-11.312,0.196c-2.995,3.1-2.995,8.016,0,11.116L450.344,373.656z"/>
<g>
</g>
<g>
</g>
<g>
</g>
<g>
</g>
<g>
</g>
<g>
</g>
<g>
</g>
<g>
</g>
<g>
</g>
<g>
</g>
<g>
</g>
<g>
</g>
<g>
</g>
<g>
</g>
<g>
</g>
</svg>
