<?xml version="1.0" encoding="UTF-8" standalone="no"?>
<!DOCTYPE svg PUBLIC "-//W3C//DTD SVG 1.1//EN" "http://www.w3.org/Graphics/SVG/1.1/DTD/svg11.dtd">
<svg version="1.1" xmlns="http://www.w3.org/2000/svg" xmlns:xlink="http://www.w3.org/1999/xlink" preserveAspectRatio="xMidYMid meet" viewBox="0 0 640 640" width="480" height="480"><defs><path d="M160 0C130.56 0.03 106.7 23.89 106.67 53.33C106.67 102.4 106.67 494.93 106.67 544C106.7 569.33 124.52 591.16 149.33 596.27C149.33 599.18 149.33 613.76 149.33 640L213.33 640L213.33 597.33L426.67 597.33L426.67 640L490.67 640C490.67 613.76 490.67 599.18 490.67 596.27C515.48 591.16 533.3 569.33 533.33 544C533.33 494.93 533.33 102.4 533.33 53.33C533.3 23.89 509.44 0.03 480 0C416 0 192 0 160 0ZM170.67 618.67L170.67 597.33L192 597.33L192 618.67L170.67 618.67ZM448 618.67L448 597.33L469.33 597.33L469.33 618.67L448 618.67ZM480 576C448 576 192 576 160 576C142.33 576 128 561.67 128 544C128 494.93 128 102.4 128 53.33C128 35.66 142.33 21.33 160 21.33C192 21.33 448 21.33 480 21.33C497.67 21.33 512 35.66 512 53.33C512 86.04 512 249.6 512 544C502.45 565.33 491.78 576 480 576Z" id="aioyCl7SO"></path><path d="M149.33 384C149.45 478.21 225.79 554.55 320 554.67C414.26 554.67 490.67 478.26 490.67 384C490.67 289.74 414.26 213.33 320 213.33C225.74 213.33 149.33 289.74 149.33 384ZM170.67 384C170.75 301.56 237.56 234.75 320 234.67C402.47 234.67 469.33 301.53 469.33 384C469.33 466.47 402.47 533.33 320 533.33C237.53 533.33 170.67 466.47 170.67 384Z" id="ackKkAmC7"></path><path d="M192 384C192.08 454.66 249.34 511.92 320 512C390.69 512 448 454.69 448 384C448 313.31 390.69 256 320 256C249.31 256 192 313.31 192 384ZM213.33 384C213.4 325.12 261.12 277.4 320 277.33C378.91 277.33 426.67 325.09 426.67 384C426.67 442.91 378.91 490.67 320 490.67C261.09 490.67 213.33 442.91 213.33 384Z" id="a8dwXdGwRF"></path><path d="M245.33 117.33C245.38 158.55 278.78 191.95 320 192C361.24 192 394.67 158.57 394.67 117.33C394.67 76.1 361.24 42.67 320 42.67C278.76 42.67 245.33 76.1 245.33 117.33ZM266.67 117.33C266.7 87.89 290.56 64.03 320 64C349.45 64 373.33 87.88 373.33 117.33C373.33 146.79 349.45 170.67 320 170.67C290.55 170.67 266.67 146.79 266.67 117.33Z" id="j2xSZzLKsc"></path><path d="M288 117.33C288 135.01 302.33 149.33 320 149.33C337.67 149.33 352 135.01 352 117.33C352 99.66 337.67 85.33 320 85.33C302.33 85.33 288 99.66 288 117.33ZM309.33 117.33C309.33 111.44 314.11 106.67 320 106.67C325.89 106.67 330.67 111.44 330.67 117.33C330.67 123.22 325.89 128 320 128C314.11 128 309.33 123.22 309.33 117.33Z" id="acYorGxR2"></path><path d="M170.67 42.67C170.67 42.67 170.67 42.67 170.67 42.67C170.67 55.47 170.67 62.58 170.67 64C170.67 64 170.67 64 170.67 64C157.87 64 150.76 64 149.33 64C149.33 64 149.33 64 149.33 64C149.33 51.2 149.33 44.09 149.33 42.67C149.33 42.67 149.33 42.67 149.33 42.67C162.13 42.67 169.24 42.67 170.67 42.67Z" id="auVJMCNzq"></path><path d="M490.67 42.67C490.67 42.67 490.67 42.67 490.67 42.67C490.67 55.47 490.67 62.58 490.67 64C490.67 64 490.67 64 490.67 64C477.87 64 470.76 64 469.33 64C469.33 64 469.33 64 469.33 64C469.33 51.2 469.33 44.09 469.33 42.67C469.33 42.67 469.33 42.67 469.33 42.67C482.13 42.67 489.24 42.67 490.67 42.67Z" id="biniYXohy"></path><path d="M170.67 533.33C170.67 533.33 170.67 533.33 170.67 533.33C170.67 546.13 170.67 553.24 170.67 554.67C170.67 554.67 170.67 554.67 170.67 554.67C157.87 554.67 150.76 554.67 149.33 554.67C149.33 554.67 149.33 554.67 149.33 554.67C149.33 541.87 149.33 534.76 149.33 533.33C149.33 533.33 149.33 533.33 149.33 533.33C162.13 533.33 169.24 533.33 170.67 533.33Z" id="b5hh01fgud"></path><path d="M490.67 533.33C490.67 533.33 490.67 533.33 490.67 533.33C490.67 546.13 490.67 553.24 490.67 554.67C490.67 554.67 490.67 554.67 490.67 554.67C477.87 554.67 470.76 554.67 469.33 554.67C469.33 554.67 469.33 554.67 469.33 554.67C469.33 541.87 469.33 534.76 469.33 533.33C469.33 533.33 469.33 533.33 469.33 533.33C482.13 533.33 489.24 533.33 490.67 533.33Z" id="c484KlpczT"></path><path d="M266.67 384C266.7 413.44 290.56 437.3 320 437.33C349.45 437.33 373.33 413.45 373.33 384C373.33 354.55 349.45 330.67 320 330.67C290.55 330.67 266.67 354.55 266.67 384ZM288 384C288 366.33 302.33 352 320 352C337.67 352 352 366.33 352 384C352 401.67 337.67 416 320 416C302.33 416 288 401.67 288 384Z" id="e1BQrz5DTq"></path></defs><g><g><g><use xlink:href="#aioyCl7SO" opacity="1" fill="#000000" fill-opacity="1"></use><g><use xlink:href="#aioyCl7SO" opacity="1" fill-opacity="0" stroke="#000000" stroke-width="1" stroke-opacity="0"></use></g></g><g><use xlink:href="#ackKkAmC7" opacity="1" fill="#000000" fill-opacity="1"></use><g><use xlink:href="#ackKkAmC7" opacity="1" fill-opacity="0" stroke="#000000" stroke-width="1" stroke-opacity="0"></use></g></g><g><use xlink:href="#a8dwXdGwRF" opacity="1" fill="#000000" fill-opacity="1"></use><g><use xlink:href="#a8dwXdGwRF" opacity="1" fill-opacity="0" stroke="#000000" stroke-width="1" stroke-opacity="0"></use></g></g><g><use xlink:href="#j2xSZzLKsc" opacity="1" fill="#000000" fill-opacity="1"></use><g><use xlink:href="#j2xSZzLKsc" opacity="1" fill-opacity="0" stroke="#000000" stroke-width="1" stroke-opacity="0"></use></g></g><g><use xlink:href="#acYorGxR2" opacity="1" fill="#000000" fill-opacity="1"></use><g><use xlink:href="#acYorGxR2" opacity="1" fill-opacity="0" stroke="#000000" stroke-width="1" stroke-opacity="0"></use></g></g><g><use xlink:href="#auVJMCNzq" opacity="1" fill="#000000" fill-opacity="1"></use><g><use xlink:href="#auVJMCNzq" opacity="1" fill-opacity="0" stroke="#000000" stroke-width="1" stroke-opacity="0"></use></g></g><g><use xlink:href="#biniYXohy" opacity="1" fill="#000000" fill-opacity="1"></use><g><use xlink:href="#biniYXohy" opacity="1" fill-opacity="0" stroke="#000000" stroke-width="1" stroke-opacity="0"></use></g></g><g><use xlink:href="#b5hh01fgud" opacity="1" fill="#000000" fill-opacity="1"></use><g><use xlink:href="#b5hh01fgud" opacity="1" fill-opacity="0" stroke="#000000" stroke-width="1" stroke-opacity="0"></use></g></g><g><use xlink:href="#c484KlpczT" opacity="1" fill="#000000" fill-opacity="1"></use><g><use xlink:href="#c484KlpczT" opacity="1" fill-opacity="0" stroke="#000000" stroke-width="1" stroke-opacity="0"></use></g></g><g><use xlink:href="#e1BQrz5DTq" opacity="1" fill="#000000" fill-opacity="1"></use><g><use xlink:href="#e1BQrz5DTq" opacity="1" fill-opacity="0" stroke="#000000" stroke-width="1" stroke-opacity="0"></use></g></g></g></g></svg>