<?xml version="1.0" standalone="no"?>
<!DOCTYPE svg PUBLIC "-//W3C//DTD SVG 20010904//EN"
 "http://www.w3.org/TR/2001/REC-SVG-20010904/DTD/svg10.dtd">
<svg version="1.0" xmlns="http://www.w3.org/2000/svg"
 width="1280.000000pt" height="1090.000000pt" viewBox="0 0 1280.000000 1090.000000"
 preserveAspectRatio="xMidYMid meet">
<metadata>
Created by potrace 1.15, written by Peter Selinger 2001-2017
</metadata>
<g transform="translate(0.000000,1090.000000) scale(0.100000,-0.100000)"
fill="#000000" stroke="none">
<path d="M4441 10882 c-16 -29 13 -3911 39 -5222 5 -261 14 -929 20 -1485 20
-1931 38 -2434 90 -2520 44 -73 46 -121 41 -800 -2 -395 5 -584 31 -735 11
-69 32 -120 49 -120 35 0 173 88 386 247 72 54 151 107 175 119 24 12 63 31
88 43 60 29 187 123 408 304 132 109 182 155 182 171 0 11 -4 217 -10 456 -5
239 -14 662 -20 940 -27 1306 -70 2329 -105 2505 -52 256 -83 927 -140 3045
l-26 954 -136 271 c-599 1194 -891 1715 -1016 1821 -34 29 -43 30 -56 6z"/>
<path d="M8267 10841 c-140 -129 -328 -480 -363 -676 -13 -75 -17 -83 -58
-120 -79 -70 -216 -311 -494 -863 l-200 -397 -6 -215 c-4 -118 -15 -564 -26
-990 -36 -1413 -54 -1935 -85 -2470 -18 -299 -30 -429 -50 -525 -36 -177 -78
-1117 -105 -2375 -6 -267 -15 -669 -20 -895 -6 -225 -10 -420 -10 -431 0 -16
50 -62 183 -171 278 -227 410 -323 447 -323 19 0 131 -75 316 -212 132 -98
237 -163 280 -174 21 -5 24 -1 38 48 42 146 71 662 64 1133 -5 339 -1 392 35
461 49 93 88 1797 127 5489 14 1277 27 2184 42 2805 17 713 17 877 -2 915 -23
46 -50 43 -113 -14z"/>
<path d="M3900 10471 c-105 -36 -246 -101 -795 -366 -495 -239 -831 -395
-1345 -628 -901 -408 -1206 -560 -1359 -679 -89 -70 -99 -95 -111 -290 -17
-297 -74 -1953 -100 -2943 -5 -209 -14 -555 -20 -770 -24 -896 -30 -1217 -35
-1715 -8 -749 -21 -933 -75 -1035 -43 -82 -55 -191 -54 -495 1 -484 33 -533
401 -614 89 -20 168 -36 174 -36 7 0 -42 55 -108 123 -223 227 -216 179 -217
1517 -1 1135 1 1160 96 1390 149 355 166 464 218 1390 83 1462 216 2554 340
2800 48 94 76 184 115 365 74 343 108 428 219 544 83 87 211 164 571 341 729
360 949 431 1103 354 105 -52 149 -143 261 -535 79 -278 126 -413 151 -437 54
-52 108 -271 169 -684 89 -601 137 -1143 161 -1793 10 -274 24 -371 60 -431
28 -45 46 -168 61 -418 11 -193 7 -570 -7 -628 -11 -49 -22 -44 -309 143 -250
162 -388 230 -625 304 -244 76 -469 102 -631 71 -109 -20 -179 -21 -179 -2 0
23 53 55 177 107 138 58 189 91 211 138 16 33 23 37 100 57 112 28 194 86 358
249 152 152 226 252 325 436 76 143 98 179 136 220 45 49 93 311 113 608 16
233 -6 350 -90 492 -208 350 -547 586 -850 591 -89 1 -306 -11 -335 -19 -11
-3 48 64 130 149 83 84 174 188 203 230 151 220 202 455 127 585 -56 97 -260
270 -344 293 -68 18 -169 -27 -269 -119 -48 -44 -48 -61 1 -61 117 0 355 -234
385 -377 35 -168 -101 -415 -298 -542 -116 -75 -333 -124 -446 -101 -63 13
-79 8 -63 -22 18 -33 93 -59 199 -69 153 -14 318 -73 393 -138 43 -38 46 -54
15 -76 -31 -21 -14 -31 73 -39 125 -13 268 -64 294 -106 13 -21 -4 -23 -93
-11 -186 26 -348 13 -512 -41 -341 -110 -658 -402 -776 -714 -106 -280 -104
-739 3 -935 58 -108 213 -219 355 -255 89 -23 148 -15 248 34 47 23 144 58
215 78 164 46 228 80 327 173 135 126 335 392 413 546 60 120 75 198 75 395 0
238 -24 382 -76 451 -59 77 -94 195 -64 214 19 12 76 -29 161 -114 107 -108
144 -178 158 -301 15 -126 53 -240 81 -240 5 0 24 16 43 37 l35 36 13 -24 c19
-32 19 -280 0 -374 -33 -173 -100 -384 -157 -497 -28 -54 -80 -118 -98 -118
-23 0 -65 -55 -106 -139 -48 -97 -104 -156 -228 -238 -153 -102 -348 -192
-539 -249 -70 -21 -121 -28 -253 -34 -170 -9 -228 -19 -255 -46 -49 -49 12
-74 223 -87 89 -6 162 -13 162 -17 0 -3 -64 -23 -142 -44 -79 -20 -150 -40
-158 -43 -8 -4 50 -12 130 -18 152 -13 232 -26 315 -52 65 -20 125 -51 125
-63 0 -6 -33 -10 -77 -10 -144 0 -251 -33 -228 -69 21 -35 164 -70 285 -71
234 -1 646 -149 788 -284 60 -56 62 -95 4 -117 -36 -14 -105 6 -247 73 -272
127 -418 162 -675 162 -142 0 -194 -5 -277 -22 -241 -52 -426 -144 -631 -316
-122 -102 -173 -130 -234 -128 -59 1 -84 -19 -93 -75 -16 -103 -52 -241 -97
-372 -98 -293 -113 -394 -112 -771 0 -254 3 -315 23 -440 54 -353 140 -596
245 -699 34 -34 59 -47 112 -62 38 -10 87 -19 109 -19 51 0 65 -14 65 -61 0
-32 4 -39 34 -53 89 -42 321 -66 640 -66 467 0 653 45 854 206 231 185 448
512 517 779 40 157 56 457 45 867 -6 210 0 233 45 187 57 -56 95 -261 95 -510
0 -262 -20 -385 -85 -521 -19 -40 -35 -84 -35 -99 0 -44 34 -74 78 -70 57 5
104 356 105 786 1 276 -10 319 -159 617 -106 212 -149 309 -180 413 -43 139
-12 162 88 67 81 -76 204 -241 260 -349 88 -167 126 -297 172 -598 28 -178 47
-252 75 -286 43 -54 66 1 82 196 12 135 22 170 34 113 4 -18 16 -54 27 -80 21
-48 43 -64 85 -59 18 2 23 -4 30 -36 12 -55 7 -421 -7 -581 -25 -278 -60 -420
-150 -597 -212 -420 -646 -875 -910 -956 -86 -26 -142 -59 -158 -92 -30 -62
-199 -111 -492 -142 -365 -39 -578 -6 -865 135 -326 160 -606 394 -769 642
-119 182 -193 253 -212 203 -11 -29 40 -110 245 -385 106 -142 250 -294 294
-310 81 -30 117 -52 147 -89 100 -124 478 -298 809 -371 569 -126 1360 178
1853 712 177 192 246 263 252 257 15 -14 27 -176 33 -419 6 -284 -6 -425 -46
-542 -60 -174 -160 -268 -302 -285 -27 -3 -47 -8 -45 -11 27 -27 655 -81 725
-62 16 4 28 17 34 36 15 47 20 1238 8 1715 -25 975 -44 1792 -91 4069 -61
2920 -108 4098 -166 4188 -38 58 -128 66 -254 23z m-1495 -3200 c150 -93 213
-234 203 -458 -6 -127 -25 -188 -68 -223 -93 -74 -117 -104 -125 -155 -10 -68
-34 -112 -92 -166 -126 -118 -327 -186 -523 -177 -75 4 -108 10 -152 30 -106
49 -200 159 -202 237 -1 54 40 110 127 175 74 55 145 126 167 166 7 12 18 58
26 101 8 47 24 95 39 119 48 75 153 130 250 130 94 0 175 51 235 147 39 62 65
93 79 93 3 0 20 -8 36 -19z m191 -3352 c57 -27 106 -83 149 -169 38 -75 117
-163 173 -192 23 -13 41 -35 60 -75 26 -56 27 -65 27 -223 0 -209 -32 -369
-122 -610 -70 -186 -135 -311 -191 -365 -141 -134 -328 -227 -532 -264 -36 -7
-109 -33 -165 -60 -55 -27 -110 -52 -123 -55 -37 -12 -87 12 -169 80 -82 68
-114 84 -136 65 -29 -24 -220 165 -312 308 -95 150 -100 251 -11 251 47 1 109
33 144 76 71 86 101 191 112 400 13 231 45 339 123 417 96 96 238 106 466 32
69 -22 126 -35 149 -33 35 3 38 5 49 53 16 65 37 91 98 125 69 38 87 75 79
162 -5 48 -3 72 6 83 18 21 76 19 126 -6z"/>
<path d="M8693 10486 c-47 -21 -60 -51 -72 -156 -47 -414 -74 -1283 -141
-4525 -6 -269 -15 -708 -20 -975 -21 -1007 -31 -1463 -55 -2410 -37 -1469 -39
-1629 -26 -1768 13 -142 28 -187 68 -203 36 -14 316 -6 516 16 151 16 203 28
193 44 -3 5 -51 28 -106 51 -165 70 -229 148 -268 327 -14 66 -17 136 -16 466
0 234 4 391 10 397 6 6 90 -67 234 -203 485 -457 591 -532 895 -630 859 -277
1369 -167 2048 438 126 112 333 360 429 515 48 77 16 118 -55 72 -28 -19 -77
-79 -77 -95 0 -20 -63 -133 -104 -186 -65 -84 -229 -238 -343 -323 -253 -189
-513 -318 -727 -362 -153 -32 -518 -15 -771 35 -143 28 -188 45 -242 90 -27
22 -73 51 -103 65 -30 15 -88 42 -128 61 -186 89 -521 424 -723 725 -130 192
-204 397 -260 713 -19 106 -23 167 -24 335 0 190 2 210 24 278 25 76 58 120
112 148 16 8 33 13 38 10 4 -3 11 -40 15 -83 7 -93 23 -116 54 -82 36 38 83
166 128 349 52 213 90 324 156 455 189 378 503 671 864 806 125 47 285 79 397
79 82 0 197 17 241 35 118 50 28 105 -170 105 -48 0 -84 4 -84 10 0 35 211 94
396 110 71 6 136 14 144 17 18 7 -11 20 -127 59 -46 16 -83 31 -83 35 0 3 53
9 118 13 175 11 235 32 212 76 -22 40 -47 45 -245 45 -187 0 -192 1 -277 31
-177 63 -363 185 -580 381 -198 179 -337 357 -438 558 -87 175 -113 271 -114
420 0 145 17 199 94 289 59 68 85 116 96 171 16 90 126 269 233 378 106 109
207 159 381 187 95 15 178 38 186 52 4 6 -7 21 -25 35 -37 29 -40 57 -6 79 20
13 39 15 104 9 83 -7 132 6 145 40 9 25 87 55 158 61 105 9 186 33 218 66 17
16 30 36 30 44 0 18 -4 18 -43 -2 -25 -14 -50 -16 -132 -11 -257 15 -461 138
-584 352 -56 98 -89 238 -71 306 29 108 223 307 353 362 26 11 47 26 47 33 0
22 -51 62 -126 99 -100 49 -154 48 -250 -4 -91 -51 -200 -164 -245 -256 -28
-57 -33 -78 -32 -134 1 -123 54 -265 153 -412 68 -100 220 -245 350 -332 63
-43 105 -77 95 -77 -11 0 -118 7 -240 16 -288 22 -361 14 -490 -50 -233 -116
-464 -342 -566 -552 -61 -127 -80 -206 -86 -370 -6 -156 8 -265 52 -419 72
-246 222 -568 332 -710 83 -106 302 -321 426 -419 211 -164 315 -220 494 -267
98 -25 123 -40 105 -62 -19 -23 -123 -36 -367 -47 -231 -10 -334 -24 -475 -65
-193 -55 -349 -137 -555 -291 -153 -114 -269 -187 -292 -182 -29 5 -42 48 -53
178 -8 89 -8 166 0 277 14 186 30 257 71 298 16 17 29 36 29 42 0 7 -22 31
-50 54 -57 48 -63 74 -26 108 13 12 29 41 35 64 32 122 61 405 91 912 62 1031
190 1929 291 2041 26 28 88 196 149 404 118 404 196 574 290 636 59 39 100 35
227 -24 59 -28 167 -76 238 -107 482 -209 999 -459 1133 -548 96 -65 145 -122
176 -210 14 -40 53 -189 87 -332 57 -243 88 -353 153 -534 140 -388 240 -1239
321 -2721 49 -910 71 -1057 197 -1344 53 -121 85 -235 106 -380 15 -107 17
-203 15 -831 -3 -1128 -24 -1447 -109 -1622 -31 -65 -73 -102 -177 -156 l-82
-42 45 -3 c25 -2 96 4 159 13 268 39 346 95 386 280 22 99 31 526 16 724 -15
188 -23 236 -55 304 -14 28 -29 81 -35 117 -18 116 -31 379 -31 635 0 1015
-96 4114 -165 5335 -17 293 -20 324 -41 391 -33 105 -161 182 -731 440 -730
330 -1463 668 -2127 979 -712 333 -826 375 -913 336z"/>
<path d="M10480 7811 c-30 -10 -84 -33 -120 -51 -51 -26 -78 -34 -124 -35 -54
-1 -61 -3 -88 -35 -31 -38 -126 -227 -153 -305 -24 -72 -45 -173 -45 -225 0
-25 11 -105 25 -179 14 -74 25 -167 25 -208 0 -125 32 -173 315 -480 241 -261
352 -353 424 -353 47 0 109 -29 133 -62 69 -97 282 -89 496 18 108 54 215 147
250 218 97 194 90 769 -12 992 -107 233 -437 530 -729 656 -159 69 -287 85
-397 49z m-56 -561 c14 -5 56 -38 94 -72 81 -75 163 -121 250 -141 121 -28
194 -99 345 -335 69 -109 140 -190 170 -194 46 -6 58 -84 36 -233 -7 -45 -19
-85 -31 -100 -35 -44 -113 -60 -293 -59 -251 1 -347 33 -470 158 -198 200
-349 545 -333 762 11 154 122 256 232 214z"/>
<path d="M10505 4805 c-168 -22 -289 -70 -462 -182 -48 -31 -124 -73 -168 -94
-74 -35 -83 -43 -124 -106 -56 -85 -211 -390 -278 -548 -115 -269 -129 -369
-111 -804 7 -167 13 -300 15 -295 1 5 7 133 13 284 11 293 21 393 45 478 27
91 44 66 75 -111 11 -62 29 -213 40 -337 33 -358 62 -479 156 -660 55 -103
191 -300 268 -386 276 -309 947 -433 1449 -268 43 15 80 24 83 22 5 -5 -87
-69 -131 -91 -58 -29 -176 -67 -236 -76 -69 -11 -99 -32 -99 -68 0 -34 57 -56
141 -56 77 1 102 12 146 63 32 37 95 80 229 158 90 52 144 110 144 155 0 49
13 63 45 49 41 -19 62 -14 104 23 22 20 49 35 63 35 14 0 51 -18 82 -41 32
-23 60 -39 62 -36 3 3 1 22 -5 44 -25 87 -9 206 49 370 90 254 127 583 109
963 -13 280 -49 459 -129 650 -26 63 -58 156 -70 205 -20 80 -21 96 -11 149 7
32 10 60 7 63 -2 3 -21 0 -40 -7 -28 -9 -45 -9 -73 1 -65 20 -145 64 -228 125
-284 205 -414 271 -635 319 -106 23 -384 28 -525 10z m-135 -845 c0 -6 -25
-44 -55 -84 -30 -40 -55 -78 -55 -84 0 -8 13 -7 41 3 102 36 187 6 229 -80 23
-47 23 -71 4 -187 -6 -35 -4 -38 17 -38 12 0 79 19 148 41 100 33 145 43 221
46 109 6 155 -4 223 -47 98 -62 142 -175 156 -399 14 -224 40 -278 213 -447
62 -62 128 -125 146 -140 l33 -29 -101 -125 c-175 -216 -316 -347 -358 -333
-27 10 -65 -10 -123 -63 -74 -68 -127 -93 -195 -94 -72 0 -109 14 -373 139
-247 117 -305 155 -394 260 -72 84 -122 163 -187 296 -108 222 -170 462 -170
658 0 166 39 266 125 327 79 55 123 106 135 152 29 110 71 152 206 203 96 37
114 41 114 25z"/>
</g>
</svg>
