<svg height="512" viewBox="0 0 512 512" width="512" xmlns="http://www.w3.org/2000/svg"><g><path d="m396 56h-76v-20a28.031 28.031 0 0 0 -28-28h-72a28.031 28.031 0 0 0 -28 28v20h-76a28.031 28.031 0 0 0 -28 28v28a8 8 0 0 0 8 8h16v356a28.031 28.031 0 0 0 28 28h232a28.031 28.031 0 0 0 28-28v-356h16a8 8 0 0 0 8-8v-28a28.031 28.031 0 0 0 -28-28zm-188-20a12.01 12.01 0 0 1 12-12h72a12.01 12.01 0 0 1 12 12v20h-96zm176 440a12.01 12.01 0 0 1 -12 12h-232a12.01 12.01 0 0 1 -12-12v-356h256zm24-372h-304v-20a12.01 12.01 0 0 1 12-12h280a12.01 12.01 0 0 1 12 12z"/><path d="m240 464h32a8 8 0 0 0 8-8v-304a8 8 0 0 0 -8-8h-32a8 8 0 0 0 -8 8v304a8 8 0 0 0 8 8zm8-304h16v288h-16z"/><path d="m160 464h32a8 8 0 0 0 8-8v-304a8 8 0 0 0 -8-8h-32a8 8 0 0 0 -8 8v304a8 8 0 0 0 8 8zm8-304h16v288h-16z"/><path d="m320 464h32a8 8 0 0 0 8-8v-304a8 8 0 0 0 -8-8h-32a8 8 0 0 0 -8 8v304a8 8 0 0 0 8 8zm8-304h16v288h-16z"/></g></svg>