<?xml version="1.0" encoding="iso-8859-1"?>
<!-- Generator: Adobe Illustrator 19.0.0, SVG Export Plug-In . SVG Version: 6.00 Build 0)  -->
<svg version="1.1" id="Layer_1" xmlns="http://www.w3.org/2000/svg" xmlns:xlink="http://www.w3.org/1999/xlink" x="0px" y="0px"
	 viewBox="0 0 294.949 294.949" style="enable-background:new 0 0 294.949 294.949;" xml:space="preserve">
<g>
	<g>
		<g>
			<path style="fill:#4EFFBB;" d="M287.909,57.897H33.056c-3.862,0-7.012,3.122-7.012,7.012v191.174c0,3.889,3.15,7.012,7.012,7.012
				H287.91c3.889,0,7.039-3.122,7.039-7.012V64.91C294.948,61.021,291.798,57.897,287.909,57.897z"/>
		</g>
		<g>
			<g id="XMLID_7_">
				<g>
					<path style="fill:#302C58;" d="M102.791,118.568c8.792,0,15.913,7.121,15.913,15.886s-7.121,15.913-15.913,15.913
						s-15.94-7.148-15.94-15.913S93.999,118.568,102.791,118.568z"/>
					<path style="fill:#222051;" d="M268.904,38.866V230.04c0,3.889-3.15,7.012-7.039,7.012H7.012C3.15,237.051,0,233.93,0,230.04
						V38.866c0-3.889,3.15-7.012,7.012-7.012h254.854C265.754,31.854,268.904,34.977,268.904,38.866z M254.854,223.029V45.877
						h-38.892H14.051v177.151h167.757L254.854,223.029L254.854,223.029z"/>
					<path style="fill:#222051;" d="M192.489,169.757c3.068-2.355,7.477-1.808,9.86,1.287l1.205,1.534l5.396-4.875V110.57
						c-13.147-3.15-22.952-14.982-22.952-29.06c0-16.488,13.448-29.909,29.963-29.909c16.543,0,29.991,13.421,29.991,29.909
						c0,14.078-9.805,25.91-22.952,29.06v60.228c0,1.972-0.849,3.862-2.301,5.204l-8.545,7.724l1.753,2.273
						c1.123,1.452,1.643,3.314,1.397,5.176c-0.246,1.835-1.205,3.506-2.684,4.656l-26.512,20.405
						c-1.287,0.986-2.794,1.479-4.3,1.479c-2.109,0-4.19-0.959-5.56-2.739l-11.558-14.954c-1.15-1.479-1.643-3.341-1.397-5.176
						c0.219-1.862,1.205-3.533,2.657-4.656L192.489,169.757z M223,95.725c5.259-2.602,8.901-7.97,8.901-14.215
						c0-8.764-7.148-15.886-15.94-15.886c-8.764,0-15.913,7.121-15.913,15.886c0,6.245,3.643,11.613,8.901,14.215V81.51
						c0-3.862,3.15-7.012,7.012-7.012c3.889,0,7.039,3.15,7.039,7.012V95.725z M198.487,189.012l-2.985-3.862l-15.393,11.859
						l2.985,3.862L198.487,189.012z"/>
					<path style="fill:#302C58;" d="M215.961,45.877H14.051v177.151h167.757h73.046V45.877H215.961z M33.195,51.876
						c5.231,0,9.477,4.218,9.477,9.449c0,5.204-4.245,9.449-9.477,9.449s-9.449-4.245-9.449-9.449
						C23.746,56.092,27.964,51.876,33.195,51.876z M44.452,214.785h-18.35c-3.889,0-7.012-3.15-7.012-7.012
						c0-3.889,3.122-7.012,7.012-7.012h18.351c3.862,0,7.012,3.122,7.012,7.012C51.464,211.635,48.314,214.785,44.452,214.785z
						 M102.791,206.239c-39.659,0-71.923-32.209-71.923-71.786s32.264-71.786,71.923-71.786s71.923,32.209,71.923,71.786
						S142.45,206.239,102.791,206.239z M223,110.57v60.228c0,1.972-0.849,3.862-2.301,5.204l-8.545,7.724l1.753,2.273
						c1.123,1.452,1.643,3.314,1.397,5.176c-0.246,1.835-1.205,3.506-2.684,4.656l-26.512,20.405
						c-1.287,0.986-2.794,1.479-4.3,1.479c-2.109,0-4.19-0.959-5.56-2.739l-11.558-14.954c-1.15-1.479-1.643-3.341-1.397-5.176
						c0.219-1.862,1.205-3.533,2.657-4.656l26.54-20.432c3.068-2.355,7.477-1.808,9.86,1.287l1.205,1.534l5.396-4.875V110.57
						c-13.147-3.15-22.952-14.982-22.952-29.06c0-16.488,13.448-29.909,29.963-29.909c16.543,0,29.991,13.421,29.991,29.909
						C245.952,95.588,236.147,107.42,223,110.57z"/>
					<path style="fill:#222051;" d="M102.791,62.667c39.659,0,71.923,32.209,71.923,71.786s-32.264,71.786-71.923,71.786
						s-71.923-32.209-71.923-71.786S63.131,62.667,102.791,62.667z M160.663,134.452c0-31.853-25.965-57.763-57.873-57.763
						s-57.873,25.91-57.873,57.763s25.965,57.763,57.873,57.763S160.663,166.305,160.663,134.452z"/>
					<path style="fill:#222051;" d="M102.791,104.517c16.543,0,29.963,13.448,29.963,29.936s-13.421,29.936-29.963,29.936
						S72.8,150.941,72.8,134.452S86.248,104.517,102.791,104.517z M118.703,134.452c0-8.764-7.121-15.886-15.913-15.886
						s-15.94,7.121-15.94,15.886s7.149,15.913,15.94,15.913S118.703,143.217,118.703,134.452z"/>
				</g>
			</g>
		</g>
	</g>
</g>
<g>
</g>
<g>
</g>
<g>
</g>
<g>
</g>
<g>
</g>
<g>
</g>
<g>
</g>
<g>
</g>
<g>
</g>
<g>
</g>
<g>
</g>
<g>
</g>
<g>
</g>
<g>
</g>
<g>
</g>
</svg>
