<?xml version="1.0" encoding="iso-8859-1"?>
<!-- Generator: Adobe Illustrator 19.0.0, SVG Export Plug-In . SVG Version: 6.00 Build 0)  -->
<svg version="1.1" id="Layer_1" xmlns="http://www.w3.org/2000/svg" xmlns:xlink="http://www.w3.org/1999/xlink" x="0px" y="0px"
	 viewBox="0 0 300 300" style="enable-background:new 0 0 300 300;" xml:space="preserve">
<g>
	<g>
		<g>
			<path d="M0,14.516v270.968h300V14.516H0z M9.677,275.806V24.194h280.645v251.612H9.677z"/>
			<path d="M135.484,33.871C71.453,33.871,19.355,85.969,19.355,150s52.098,116.129,116.129,116.129S251.613,214.031,251.613,150
				S199.515,33.871,135.484,33.871z M135.484,256.452c-58.699,0-106.452-47.754-106.452-106.452S76.785,43.548,135.484,43.548
				c58.698,0,106.452,47.753,106.452,106.452C241.936,208.699,194.183,256.452,135.484,256.452z"/>
			<path d="M169.355,150c0-18.677-15.194-33.871-33.871-33.871S101.613,131.323,101.613,150c0,18.673,15.193,33.871,33.871,33.871
				C154.161,183.871,169.355,168.673,169.355,150z M111.29,150c0-13.34,10.854-24.194,24.194-24.194
				c13.34,0,24.194,10.853,24.194,24.194s-10.853,24.194-24.194,24.194S111.29,163.34,111.29,150z"/>
			<circle cx="135.484" cy="150" r="4.839"/>
			<path d="M217.742,150c0,45.358-36.9,82.258-82.258,82.258v9.677c50.695,0,91.935-41.24,91.935-91.935H217.742z"/>
			<path d="M251.618,72.581h9.677v138.808h-0.005c0,8.932-3.435,17.337-9.677,23.7l-1.413-1.413c-4.413-4.413-12.111-4.413-16.524,0
				l-4.839,4.839c-4.548,4.553-4.548,11.966,0,16.519c2.206,2.206,5.144,3.421,8.265,3.421c3.121,0,6.053-1.215,8.26-3.421
				l12.856-12.856c8.226-8.221,12.755-19.156,12.755-30.789V72.581h9.677v-38.71h-29.032V72.581z M238.51,248.192
				c-1.021,1.021-1.81,1.021-2.831,0c-0.784-0.779-0.784-2.056,0-2.835l4.839-4.839c0.508-0.508,1.108-0.59,1.413-0.59
				s0.905,0.082,1.418,0.59l1.418,1.418L238.51,248.192z M261.29,43.548h9.677v19.355h-9.677V43.548z"/>
			<polygon points="33.871,237.097 24.194,237.097 24.194,241.935 19.355,241.935 19.355,251.613 24.194,251.613 24.194,266.129 
				33.871,266.129 33.871,251.613 38.71,251.613 38.71,241.935 33.871,241.935 			"/>
		</g>
	</g>
</g>
<g>
</g>
<g>
</g>
<g>
</g>
<g>
</g>
<g>
</g>
<g>
</g>
<g>
</g>
<g>
</g>
<g>
</g>
<g>
</g>
<g>
</g>
<g>
</g>
<g>
</g>
<g>
</g>
<g>
</g>
</svg>
