<?xml version="1.0" encoding="iso-8859-1"?>
<!-- Generator: Adobe Illustrator 19.0.0, SVG Export Plug-In . SVG Version: 6.00 Build 0)  -->
<svg version="1.1" id="Capa_1" xmlns="http://www.w3.org/2000/svg" xmlns:xlink="http://www.w3.org/1999/xlink" x="0px" y="0px"
	 viewBox="0 0 368 368" style="enable-background:new 0 0 368 368;" xml:space="preserve">
<g>
	<g>
		<g>
			<path d="M184,0C82.544,0,0,82.544,0,184s82.544,184,184,184s184-82.544,184-184S285.456,0,184,0z M184,352
				c-92.64,0-168-75.36-168-168S91.36,16,184,16s168,75.36,168,168S276.64,352,184,352z"/>
			<path d="M190.512,67.344c-3.008-4.208-10.016-4.208-13.024,0l-80,112.008c-1.736,2.44-1.976,5.648-0.6,8.312S101.008,192,104,192
				h40v95.992c-0.008,4.28,1.656,8.304,4.672,11.328c3.024,3.024,7.04,4.688,11.32,4.688c0.032,0,0.064,0,0.104,0
				c1.744-0.008,47.872-0.016,47.88-0.008c0.008,0,0.016,0,0.032,0c4.264,0,8.28-1.664,11.296-4.672
				c3.024-3.024,4.688-7.04,4.696-11.32v-96h40c3,0,5.744-1.672,7.112-4.336c1.368-2.664,1.136-5.872-0.6-8.312L190.512,67.344z
				 M216,176c-4.416,0-8,3.584-8,8l-0.008,104h-40.504c-2.816,0-5.336,0-7.496,0.216v-0.2c0-0.008,0-0.008,0-0.016V184
				c0-4.416-3.584-8-8-8h-32.456l64.456-90.24L248.448,176H216z"/>
		</g>
	</g>
</g>
<g>
</g>
<g>
</g>
<g>
</g>
<g>
</g>
<g>
</g>
<g>
</g>
<g>
</g>
<g>
</g>
<g>
</g>
<g>
</g>
<g>
</g>
<g>
</g>
<g>
</g>
<g>
</g>
<g>
</g>
</svg>
