<?xml version="1.0" encoding="UTF-8"?>
<svg xmlns="http://www.w3.org/2000/svg" viewBox="0 0 64 64" width="512" height="512"><g id="upload-uploading-arrow"><path d="M19,18h5.873L22.007,41.881A1,1,0,0,0,23,43H41a1,1,0,0,0,.993-1.119L39.127,18H45a1,1,0,0,0,.733-1.681l-13-14a1.034,1.034,0,0,0-1.466,0l-13,14A1,1,0,0,0,19,18ZM32,4.47,42.707,16H38a1,1,0,0,0-.993,1.119L39.873,41H24.127l2.866-23.881A1,1,0,0,0,26,16H21.293Z"/><path d="M61,21H45a1,1,0,0,0-1,1v8a1,1,0,0,0,1,1h7V52H12V31h7a1,1,0,0,0,1-1V22a1,1,0,0,0-1-1H3a1,1,0,0,0-1,1V61a1,1,0,0,0,1,1H61a1,1,0,0,0,1-1V22A1,1,0,0,0,61,21ZM60,60H4V23H18v6H11a1,1,0,0,0-1,1V53a1,1,0,0,0,1,1H53a1,1,0,0,0,1-1V30a1,1,0,0,0-1-1H46V23H60Z"/></g></svg>
