<?xml version="1.0"?>
<svg xmlns="http://www.w3.org/2000/svg" xmlns:xlink="http://www.w3.org/1999/xlink" xmlns:svgjs="http://svgjs.com/svgjs" version="1.1" width="512" height="512" x="0" y="0" viewBox="0 0 346.043 346.043" style="enable-background:new 0 0 512 512" xml:space="preserve" class=""><g>
<g xmlns="http://www.w3.org/2000/svg">
	<polygon style="" points="272.287,107.806 214.817,107.806 214.817,241.553 131.225,241.553 131.225,107.806    73.756,107.806 173.021,10.631  " fill="#f34141cc" data-original="#00efd1" class=""/>
	<g>
		<path style="" d="M214.817,252.002h-83.592c-5.771,0-10.449-4.678-10.449-10.449V118.255h-47.02    c-4.207-0.115-8.015-2.52-9.927-6.269c-1.58-4.004-0.543-8.566,2.612-11.494l99.265-97.698c4.165-3.725,10.464-3.725,14.629,0    l99.265,97.698c3.155,2.928,4.192,7.49,2.612,11.494c-1.911,3.75-5.719,6.155-9.927,6.269h-47.02v123.298    c0.167,2.796-0.995,5.507-3.135,7.314C220.202,250.836,217.573,251.963,214.817,252.002z M141.674,231.104h62.694V107.806    c0-5.771,4.678-10.449,10.449-10.449h31.869l-73.665-72.098L99.356,97.357h31.869c5.771,0,10.449,4.678,10.449,10.449V231.104z" fill="#000000" data-original="#083863" class=""/>
		<path style="" d="M214.817,283.349h-83.592c-5.771,0-10.449-4.678-10.449-10.449s4.678-10.449,10.449-10.449h83.592    c5.771,0,10.449,4.678,10.449,10.449S220.588,283.349,214.817,283.349z" fill="#000000" data-original="#083863" class=""/>
		<path style="" d="M214.817,314.696h-83.592c-5.771,0-10.449-4.678-10.449-10.449c0-5.771,4.678-10.449,10.449-10.449    h83.592c5.771,0,10.449,4.678,10.449,10.449C225.266,310.018,220.588,314.696,214.817,314.696z" fill="#000000" data-original="#083863" class=""/>
		<path style="" d="M214.817,346.043h-83.592c-5.771,0-10.449-4.678-10.449-10.449s4.678-10.449,10.449-10.449h83.592    c5.771,0,10.449,4.678,10.449,10.449S220.588,346.043,214.817,346.043z" fill="#000000" data-original="#083863" class=""/>
	</g>
</g>
<g xmlns="http://www.w3.org/2000/svg">
</g>
<g xmlns="http://www.w3.org/2000/svg">
</g>
<g xmlns="http://www.w3.org/2000/svg">
</g>
<g xmlns="http://www.w3.org/2000/svg">
</g>
<g xmlns="http://www.w3.org/2000/svg">
</g>
<g xmlns="http://www.w3.org/2000/svg">
</g>
<g xmlns="http://www.w3.org/2000/svg">
</g>
<g xmlns="http://www.w3.org/2000/svg">
</g>
<g xmlns="http://www.w3.org/2000/svg">
</g>
<g xmlns="http://www.w3.org/2000/svg">
</g>
<g xmlns="http://www.w3.org/2000/svg">
</g>
<g xmlns="http://www.w3.org/2000/svg">
</g>
<g xmlns="http://www.w3.org/2000/svg">
</g>
<g xmlns="http://www.w3.org/2000/svg">
</g>
<g xmlns="http://www.w3.org/2000/svg">
</g>
</g></svg>
