<svg height="512" viewBox="0 0 64 64" width="512" xmlns="http://www.w3.org/2000/svg"><g id="upload-uploading-arrow"><path d="m61 22v39h-58v-39h10 6v8h-8v23h42v-23h-8v-8h6z" fill="#f6cc4f"/><path d="m32 3 13 14h-7l3 25h-18l3-25h-7z" fill="#ec455a"/><path d="m19 18h5.873l-2.866 23.881a1 1 0 0 0 .993 1.119h18a1 1 0 0 0 .993-1.119l-2.866-23.881h5.873a1 1 0 0 0 .733-1.681l-13-14a1.034 1.034 0 0 0 -1.466 0l-13 14a1 1 0 0 0 .733 1.681zm13-13.53 10.707 11.53h-4.707a1 1 0 0 0 -.993 1.119l2.866 23.881h-15.746l2.866-23.881a1 1 0 0 0 -.993-1.119h-4.707z"/><path d="m61 21h-16a1 1 0 0 0 -1 1v8a1 1 0 0 0 1 1h7v21h-40v-21h7a1 1 0 0 0 1-1v-8a1 1 0 0 0 -1-1h-16a1 1 0 0 0 -1 1v39a1 1 0 0 0 1 1h58a1 1 0 0 0 1-1v-39a1 1 0 0 0 -1-1zm-1 39h-56v-37h14v6h-7a1 1 0 0 0 -1 1v23a1 1 0 0 0 1 1h42a1 1 0 0 0 1-1v-23a1 1 0 0 0 -1-1h-7v-6h14z"/></g></svg>