<svg height="512" viewBox="0 0 64 64" width="512" xmlns="http://www.w3.org/2000/svg" xmlns:xlink="http://www.w3.org/1999/xlink"><linearGradient id="gradient_ice" gradientUnits="userSpaceOnUse" x1="12.68" x2="73.989" y1="75.567" y2="16.647"><stop offset="0" stop-color="#fff200"/><stop offset="1" stop-color="#cd118c"/></linearGradient><linearGradient id="gradient_ice-2" x1="1.958" x2="63.267" xlink:href="#gradient_ice" y1="64.411" y2="5.491"/><g id="upload-uploading-arrow-2" data-name="upload-uploading-arrow"><path d="m61 52h-58a1 1 0 0 0 -1 1v8a1 1 0 0 0 1 1h58a1 1 0 0 0 1-1v-8a1 1 0 0 0 -1-1zm-1 8h-56v-6h56z" fill="url(#gradient_ice)"/><path d="m5 27h13.2l-12.05 19.474a1 1 0 0 0 .85 1.526h50a1 1 0 0 0 .85-1.526l-12.05-19.474h13.2a1 1 0 0 0 .648-1.761l-27-23a1 1 0 0 0 -1.3 0l-27 23a1 1 0 0 0 .652 1.761zm27-22.687 24.284 20.687h-12.284a1 1 0 0 0 -.85 1.526l12.055 19.474h-46.405l12.05-19.474a1 1 0 0 0 -.85-1.526h-12.284z" fill="url(#gradient_ice-2)"/></g></svg>