<?xml version="1.0" encoding="iso-8859-1"?>
<!-- Generator: Adobe Illustrator 19.0.0, SVG Export Plug-In . SVG Version: 6.00 Build 0)  -->
<svg version="1.1" id="Capa_1" xmlns="http://www.w3.org/2000/svg" xmlns:xlink="http://www.w3.org/1999/xlink" x="0px" y="0px"
	 viewBox="0 0 345.52 345.52" style="enable-background:new 0 0 345.52 345.52;" xml:space="preserve">
<g>
	<g>
		<g>
			<path d="M279.369,101.014l-99.265-98.22c-4.165-3.725-10.464-3.725-14.629,0L66.21,100.492
				c-3.211,3.329-4.227,8.205-2.612,12.539c1.653,4.212,5.446,7.207,9.927,7.837h47.02v120.686c-0.008,5.482,4.43,9.933,9.913,9.94
				c0.179,0,0.358-0.004,0.536-0.014h83.592c5.475,0.289,10.147-3.916,10.435-9.39c0.009-0.179,0.014-0.357,0.014-0.536V120.867
				h47.02c4.48-0.63,8.274-3.625,9.927-7.837C283.506,108.857,282.489,104.178,279.369,101.014z M214.585,99.969
				c-5.747,0-10.449,2.09-10.449,7.837v122.776h-62.694V107.806c0-5.747-4.702-7.837-10.449-7.837H99.124l73.665-72.098
				l73.665,72.098H214.585z"/>
			<path d="M214.585,261.929h-83.592c-5.771,0-10.449,4.678-10.449,10.449s4.678,10.449,10.449,10.449h83.592
				c5.771,0,10.449-4.678,10.449-10.449S220.356,261.929,214.585,261.929z"/>
			<path d="M214.585,293.275h-83.592c-5.771,0-10.449,4.678-10.449,10.449s4.678,10.449,10.449,10.449h83.592
				c5.771,0,10.449-4.678,10.449-10.449S220.356,293.275,214.585,293.275z"/>
			<path d="M214.585,324.622h-83.592c-5.771,0-10.449,4.678-10.449,10.449s4.678,10.449,10.449,10.449h83.592
				c5.771,0,10.449-4.678,10.449-10.449S220.356,324.622,214.585,324.622z"/>
		</g>
	</g>
</g>
<g>
</g>
<g>
</g>
<g>
</g>
<g>
</g>
<g>
</g>
<g>
</g>
<g>
</g>
<g>
</g>
<g>
</g>
<g>
</g>
<g>
</g>
<g>
</g>
<g>
</g>
<g>
</g>
<g>
</g>
</svg>
