<svg id="Layer_1" enable-background="new 0 0 512 512" height="512" viewBox="0 0 512 512" width="512" xmlns="http://www.w3.org/2000/svg"><g clip-rule="evenodd" fill-rule="evenodd"><path d="m256 0c-141.159 0-256 114.841-256 256s114.841 256 256 256 256-114.841 256-256-114.841-256-256-256zm0 492c-130.131 0-236-105.87-236-236s105.869-236 236-236 236 105.869 236 236-105.869 236-236 236z"/><path d="m256 60c5.523 0 10-4.477 10-10s-4.477-10-10-10c-57.696 0-111.938 22.468-152.735 63.265-40.798 40.797-63.265 95.039-63.265 152.735 0 5.523 4.477 10 10 10s10-4.477 10-10c0-108.075 87.925-196 196-196z"/><path d="m462 246c-5.523 0-10 4.477-10 10 0 108.075-87.925 196-196 196-5.523 0-10 4.477-10 10s4.477 10 10 10c57.696 0 111.938-22.468 152.735-63.265s63.265-95.039 63.265-152.735c0-5.523-4.477-10-10-10z"/><path d="m256 100c5.523 0 10-4.477 10-10s-4.477-10-10-10c-97.047 0-176 78.953-176 176 0 5.523 4.477 10 10 10s10-4.477 10-10c0-86.019 69.981-156 156-156z"/><path d="m256 412c-5.523 0-10 4.477-10 10s4.477 10 10 10c97.047 0 176-78.954 176-176 0-5.523-4.477-10-10-10s-10 4.477-10 10c0 86.019-69.981 156-156 156z"/><path d="m256 140c5.523 0 10-4.477 10-10s-4.477-10-10-10c-74.991 0-136 61.009-136 136 0 5.523 4.477 10 10 10s10-4.477 10-10c0-63.962 52.037-116 116-116z"/><path d="m256 372c-5.523 0-10 4.477-10 10s4.477 10 10 10c74.991 0 136-61.01 136-136 0-5.523-4.477-10-10-10s-10 4.477-10 10c0 63.963-52.038 116-116 116z"/><path d="m342 256c0-47.497-38.504-86-86-86-47.497 0-86 38.503-86 86s38.504 86 86 86c47.497 0 86-38.503 86-86zm-111 0c0-13.807 11.193-25 25-25s25 11.193 25 25-11.193 25-25 25-25-11.193-25-25z"/></g></svg>