<?xml version="1.0" encoding="iso-8859-1"?>
<!-- Generator: Adobe Illustrator 19.0.0, SVG Export Plug-In . SVG Version: 6.00 Build 0)  -->
<svg version="1.1" id="Layer_1" xmlns="http://www.w3.org/2000/svg" xmlns:xlink="http://www.w3.org/1999/xlink" x="0px" y="0px"
	 viewBox="0 0 512 512" style="enable-background:new 0 0 512 512;" xml:space="preserve">
<g>
	<g>
		<g>
			<path d="M288,192h-64c-5.896,0-10.667,4.771-10.667,10.667v234.667c0,5.896,4.771,10.667,10.667,10.667h64
				c5.896,0,10.667-4.771,10.667-10.667V202.667C298.667,196.771,293.896,192,288,192z M277.333,426.667h-42.667V213.333h42.667
				V426.667z"/>
			<path d="M394.667,128h-64c-5.896,0-10.667,4.771-10.667,10.667v298.667c0,5.896,4.771,10.667,10.667,10.667h64
				c5.896,0,10.667-4.771,10.667-10.667V138.667C405.333,132.771,400.563,128,394.667,128z M384,426.667h-42.667V149.333H384
				V426.667z"/>
			<path d="M501.333,64h-64c-5.896,0-10.667,4.771-10.667,10.667v362.667c0,5.896,4.771,10.667,10.667,10.667h64
				c5.896,0,10.667-4.771,10.667-10.667V74.667C512,68.771,507.229,64,501.333,64z M490.667,426.667H448V85.333h42.667V426.667z"/>
			<path d="M181.333,256h-64c-5.896,0-10.667,4.771-10.667,10.667v170.667c0,5.896,4.771,10.667,10.667,10.667h64
				c5.896,0,10.667-4.771,10.667-10.667V266.667C192,260.771,187.229,256,181.333,256z M170.667,426.667H128V277.333h42.667V426.667
				z"/>
			<path d="M74.667,320h-64C4.771,320,0,324.771,0,330.667v106.667C0,443.229,4.771,448,10.667,448h64
				c5.896,0,10.667-4.771,10.667-10.667V330.667C85.333,324.771,80.563,320,74.667,320z M64,426.667H21.333v-85.333H64V426.667z"/>
		</g>
	</g>
</g>
<g>
</g>
<g>
</g>
<g>
</g>
<g>
</g>
<g>
</g>
<g>
</g>
<g>
</g>
<g>
</g>
<g>
</g>
<g>
</g>
<g>
</g>
<g>
</g>
<g>
</g>
<g>
</g>
<g>
</g>
</svg>
