<svg id="Capa_1" enable-background="new 0 0 512 512" height="512" viewBox="0 0 512 512" width="512" xmlns="http://www.w3.org/2000/svg"><g><path d="m226 420h-75c-8.284 0-15 6.716-15 15v62c0 8.284 6.716 15 15 15h75c8.284 0 15-6.716 15-15v-62c0-8.284-6.716-15-15-15zm-15 62h-45v-32h45z"/><path d="m361 180h-75c-8.284 0-15 6.716-15 15v302c0 8.284 6.716 15 15 15h75c8.284 0 15-6.716 15-15v-302c0-8.284-6.716-15-15-15zm-15 302h-45v-272h45z"/><path d="m361 60h-75c-8.284 0-15 6.716-15 15s6.716 15 15 15h75c8.284 0 15-6.716 15-15s-6.716-15-15-15z"/><path d="m361 0h-75c-8.284 0-15 6.716-15 15s6.716 15 15 15h75c8.284 0 15-6.716 15-15s-6.716-15-15-15z"/><path d="m226 300h-75c-8.284 0-15 6.716-15 15s6.716 15 15 15h75c8.284 0 15-6.716 15-15s-6.716-15-15-15z"/><path d="m91 240h-75c-8.284 0-15 6.716-15 15s6.716 15 15 15h75c8.284 0 15-6.716 15-15s-6.716-15-15-15z"/><path d="m226 360h-75c-8.284 0-15 6.716-15 15s6.716 15 15 15h75c8.284 0 15-6.716 15-15s-6.716-15-15-15z"/><path d="m226 240h-75c-8.284 0-15 6.716-15 15s6.716 15 15 15h75c8.284 0 15-6.716 15-15s-6.716-15-15-15z"/><path d="m226 180h-75c-8.284 0-15 6.716-15 15s6.716 15 15 15h75c8.284 0 15-6.716 15-15s-6.716-15-15-15z"/><path d="m91 180h-75c-8.284 0-15 6.716-15 15s6.716 15 15 15h75c8.284 0 15-6.716 15-15s-6.716-15-15-15z"/><path d="m91 120h-75c-8.284 0-15 6.716-15 15s6.716 15 15 15h75c8.284 0 15-6.716 15-15s-6.716-15-15-15z"/><path d="m496 180h-75c-8.284 0-15 6.716-15 15s6.716 15 15 15h75c8.284 0 15-6.716 15-15s-6.716-15-15-15z"/><path d="m421 150h75c8.284 0 15-6.716 15-15s-6.716-15-15-15h-75c-8.284 0-15 6.716-15 15s6.716 15 15 15z"/><path d="m361 120h-75c-8.284 0-15 6.716-15 15s6.716 15 15 15h75c8.284 0 15-6.716 15-15s-6.716-15-15-15z"/><path d="m91 300h-75c-8.284 0-15 6.716-15 15v182c0 8.284 6.716 15 15 15h75c8.284 0 15-6.716 15-15v-182c0-8.284-6.716-15-15-15zm-15 182h-45v-152h45z"/><path d="m496 240h-75c-8.284 0-15 6.716-15 15v242c0 8.284 6.716 15 15 15h75c8.284 0 15-6.716 15-15v-242c0-8.284-6.716-15-15-15zm-15 242h-45v-212h45z"/></g></svg>