<?xml version="1.0" encoding="UTF-8"?>
<svg xmlns="http://www.w3.org/2000/svg" id="Outline" viewBox="0 0 512 512" width="512" height="512"><path d="M495.939,487.008,468.062,264H472a8,8,0,0,0,8-8V224a8,8,0,0,0-8-8h-9.373a205.932,205.932,0,0,0-42.955-104.358l9.985-9.985a8,8,0,0,0,0-11.314l-24-24a8,8,0,0,0-11.314,0l-9.985,9.985A205.937,205.937,0,0,0,280,33.373V24a8,8,0,0,0-8-8H240a8,8,0,0,0-8,8v9.373A205.937,205.937,0,0,0,127.642,76.328l-9.985-9.985a8,8,0,0,0-11.314,0l-24,24a8,8,0,0,0,0,11.314l9.985,9.985A205.932,205.932,0,0,0,49.373,216H40a8,8,0,0,0-8,8v32a8,8,0,0,0,8,8h3.937L16.061,487.008A8,8,0,0,0,24,496H56a8,8,0,0,0,7.938-7.008L81,352.484q5.268,8.159,11.328,15.873l-9.986,9.986a8,8,0,0,0,0,11.314l24,24a8,8,0,0,0,11.314,0l9.976-9.976A207.165,207.165,0,0,0,192,437.961V448H168a8,8,0,0,0-8,8v32a8,8,0,0,0,8,8H344a8,8,0,0,0,8-8V456a8,8,0,0,0-8-8H320V437.961a207.176,207.176,0,0,0,64.367-34.28l9.976,9.976a8,8,0,0,0,11.314,0l24-24a8,8,0,0,0,0-11.314l-9.986-9.986q6.06-7.707,11.328-15.873l17.062,136.508A8,8,0,0,0,456,496h32a8,8,0,0,0,7.939-8.992ZM464,248H431.818q.182-3.99.182-8c0-2.682-.07-5.347-.19-8H464Zm-17.489-32H430.357A175.114,175.114,0,0,0,396.8,134.515l11.471-11.471A189.984,189.984,0,0,1,446.511,216ZM320,386.622V344a24.027,24.027,0,0,0-24-24h-8v-8a8,8,0,0,0-8-8H264V287.419a56,56,0,1,0-16,0V304H232a8,8,0,0,0-8,8v8h-8a24.027,24.027,0,0,0-24,24v42.622C135.175,361.638,96,304.484,96,240c0-88.224,71.775-160,160-160s160,71.776,160,160C416,304.484,376.825,361.638,320,386.622Zm-32,26.457q8.1-1.491,16-3.723v16.589q-7.9,2.033-16,3.389Zm0-16.3V392a8,8,0,0,0-8-8H232a8,8,0,0,0-8,8v4.78a157.355,157.355,0,0,1-16-4.132V344a8.009,8.009,0,0,1,8-8h8v8a8,8,0,0,0,8,8h48a8,8,0,0,0,8-8v-8h8a8.009,8.009,0,0,1,8,8v48.648A157.355,157.355,0,0,1,288,396.78Zm-64,32.554q-8.091-1.356-16-3.389V409.356q7.886,2.235,16,3.723ZM248,240V224h16v16Zm24,16a8,8,0,0,0,8-8V216a8,8,0,0,0-8-8H240a8,8,0,0,0-8,8v32a8,8,0,0,0,8,8h8V271.2a40,40,0,1,1,16,0V256Zm0,64v16H240V320ZM400,83.314,412.686,96l-26.114,26.115a177.576,177.576,0,0,0-12.686-12.686ZM372.956,87.73,361.485,99.2A175.114,175.114,0,0,0,280,65.643V49.489A189.98,189.98,0,0,1,372.956,87.73ZM264,32V64.19c-2.653-.12-5.318-.19-8-.19s-5.347.07-8,.19V32ZM232,49.489V65.643A175.114,175.114,0,0,0,150.515,99.2L139.044,87.73A189.98,189.98,0,0,1,232,49.489ZM112,83.314l26.114,26.115a177.576,177.576,0,0,0-12.686,12.686L99.313,96Zm-8.27,39.73L115.2,134.515A175.114,175.114,0,0,0,81.643,216H65.489A189.984,189.984,0,0,1,103.73,123.044ZM48,232H80.19c-.12,2.653-.19,5.318-.19,8s.061,5.34.182,8H48ZM33.062,480l4-32H52.937l-4,32Zm21.875-48H39.062L55.921,297.129a205.141,205.141,0,0,0,11.913,31.695ZM65.489,264H81.644a175.812,175.812,0,0,0,33.511,81.53l-11.424,11.425A190.036,190.036,0,0,1,65.489,264ZM112,396.686,99.313,384l26.063-26.062a176.542,176.542,0,0,0,12.688,12.684Zm27.039-4.412,11.434-11.433A176.019,176.019,0,0,0,192,403.968v17.11A191.232,191.232,0,0,1,139.039,392.274ZM208,442.425q7.914,1.868,16,3.119V448H208ZM176,464h48v16H176Zm96,16H240V400h32Zm64,0H288V464h48Zm-32-32H288v-2.456q8.082-1.248,16-3.119Zm16-26.922v-17.11a176.039,176.039,0,0,0,41.527-23.127l11.434,11.433A191.232,191.232,0,0,1,320,421.078Zm80-24.392-26.064-26.064a176.542,176.542,0,0,0,12.688-12.684L412.686,384Zm-3.156-51.156A175.8,175.8,0,0,0,430.356,264h16.155a190.046,190.046,0,0,1-38.242,92.955Zm59.235-48.4L472.938,432H457.063l-12.9-103.176A205.141,205.141,0,0,0,456.079,297.129ZM463.062,480l-4-32h15.875l4,32Z"/></svg>
