<svg id="Capa_1" enable-background="new 0 0 512 512" height="512" viewBox="0 0 512 512" width="512" xmlns="http://www.w3.org/2000/svg"><g><path d="m256.064 445.733c4.142 0 7.5-3.357 7.5-7.5v-33.133c0-4.143-3.358-7.5-7.5-7.5-4.143 0-7.5 3.357-7.5 7.5v33.134c0 4.142 3.358 7.499 7.5 7.499z"/><path d="m490.446 346.927-16.023-9.25c13.781-30.637 21.074-64.085 21.074-98.243 0-34.5-7.26-67.881-21.035-98.415l15.92-9.191c7.535-4.352 10.127-14.024 5.776-21.56l-8.284-14.35c-4.352-7.533-14.023-10.125-21.56-5.774l-16.003 9.239c-7.459-10.299-15.775-20.088-24.942-29.255-45.223-45.223-105.35-70.128-169.305-70.128-50.242 0-98.333 15.391-139.073 44.509-3.369 2.408-4.149 7.093-1.74 10.463s7.095 4.148 10.463 1.74c38.179-27.288 83.254-41.712 130.35-41.712 123.753 0 224.434 100.681 224.434 224.434 0 108.057-78.424 201.444-183.8 220.75v-18.466c45.096-9.025 86.198-33.129 116.294-68.363 31.838-37.273 49.372-84.834 49.372-133.921 0-113.755-92.546-206.301-206.3-206.301s-206.3 92.546-206.3 206.301c0 49.087 17.534 96.648 49.372 133.922 30.097 35.234 71.199 59.338 116.295 68.363v18.465c-105.376-19.306-183.8-112.693-183.8-220.75 0-62.089 26.076-121.974 71.542-164.302 3.032-2.822 3.201-7.568.379-10.6-2.822-3.031-7.568-3.201-10.6-.379-11.65 10.846-22.081 22.675-31.248 35.389l-16.084-9.286c-3.652-2.107-7.905-2.668-11.978-1.577-4.072 1.091-7.477 3.702-9.584 7.354l-8.283 14.348c-4.351 7.536-1.759 17.208 5.777 21.561l16.093 9.291c-.15.334-.309.662-.458.996-13.641 30.669-20.557 63.374-20.557 97.206 0 34.18 7.302 67.649 21.101 98.302l-16.114 9.304c-3.65 2.107-6.263 5.511-7.354 9.583-1.092 4.072-.532 8.326 1.576 11.977l8.283 14.349c2.921 5.057 8.237 7.888 13.696 7.888 2.676 0 5.386-.681 7.864-2.111l16.124-9.31c4.352 6.036 8.993 11.891 13.927 17.535.143.163.29.321.433.484l-29.174 25.004c-3.502 3.003-5.511 7.37-5.511 11.983v29.444h-1.066c-8.547 0-15.5 6.953-15.5 15.5v17.133c0 8.547 6.953 15.5 15.5 15.5h50.267c8.547 0 15.5-6.953 15.5-15.5v-17.133c0-8.547-6.953-15.5-15.5-15.5h-1.067v-14.204c0-.228.1-.446.273-.595l21.768-18.657c28.425 21.512 61.372 36.487 96.454 43.634-.611 1.663-.962 3.45-.962 5.322v17.133c0 8.547 6.953 15.5 15.5 15.5h66.833c8.547 0 15.5-6.953 15.5-15.5v-17.133c0-1.872-.351-3.66-.962-5.323 35.082-7.147 68.029-22.122 96.454-43.634l21.768 18.658c.173.148.272.365.272.594v14.204h-1.066c-8.547 0-15.5 6.953-15.5 15.5v17.134c0 8.547 6.953 15.5 15.5 15.5h50.267c8.547 0 15.5-6.953 15.5-15.5v-17.133c0-8.547-6.953-15.5-15.5-15.5h-1.066v-29.444c0-4.612-2.009-8.98-5.512-11.983l-29.175-25.007c.143-.163.29-.321.433-.484 4.949-5.661 9.602-11.534 13.964-17.588l16.021 9.25c2.433 1.404 5.131 2.121 7.866 2.121 1.371 0 2.751-.18 4.11-.545 4.073-1.091 7.477-3.703 9.584-7.353l8.283-14.347c4.353-7.538 1.761-17.21-5.776-21.56zm-16.631-243.793c.375-.217.854-.086 1.07.286l8.283 14.348c.216.374.087.854-.287 1.07l-15.03 8.678c-2.826-5.333-5.855-10.567-9.093-15.688zm-444.761 15.816c-.375-.216-.504-.696-.288-1.07l8.283-14.348c.107-.187.268-.31.476-.365.205-.055.406-.029.595.079l15.187 8.768c-3.213 5.109-6.234 10.347-9.061 15.707zm9.13 256.783c-.375.214-.855.087-1.07-.287l-8.283-14.348c-.108-.186-.134-.386-.078-.594s.179-.368.365-.476l15.22-8.787c2.819 5.339 5.836 10.581 9.062 15.706zm192.747-94.1c-.275 0-.5-.225-.5-.5v-33.699c0-.275.225-.5.5-.5h50.267c.275 0 .5.225.5.5v33.699c0 .275-.225.5-.5.5zm38.594 81.267 12.173 12.173v88.794h-51.267v-88.794l12.173-12.173zm-204.761-123.466c0-105.483 85.816-191.301 191.3-191.301s191.3 85.817 191.3 191.301c0 90.832-62.841 168.09-150.666 186.98v-54.447c0-1.989-.79-3.896-2.196-5.304l-16.566-16.566c-1.407-1.406-3.314-2.196-5.304-2.196h-9.067v-18.448c46.314-3.825 82.834-42.735 82.834-90.019 0-49.811-40.523-90.334-90.334-90.334-9.262 0-18.4 1.398-27.163 4.158-3.95 1.243-6.145 5.455-4.9 9.406 1.244 3.95 5.452 6.146 9.406 4.9 7.303-2.299 14.926-3.465 22.657-3.465 41.539 0 75.334 33.795 75.334 75.334 0 39.008-29.803 71.181-67.834 74.958v-17.759h17.634c8.547 0 15.5-6.953 15.5-15.5v-33.699c0-8.547-6.953-15.5-15.5-15.5h-50.267c-8.547 0-15.5 6.953-15.5 15.5v33.699c0 8.547 6.953 15.5 15.5 15.5h17.633v17.759c-38.031-3.777-67.833-35.95-67.833-74.958 0-22.702 10.093-43.974 27.691-58.359 3.207-2.622 3.682-7.347 1.06-10.554s-7.348-3.68-10.554-1.06c-21.098 17.247-33.197 42.751-33.197 69.973 0 47.284 36.519 86.194 82.833 90.019v18.448h-9.066c-1.989 0-3.896.79-5.304 2.196l-16.566 16.566c-1.406 1.407-2.196 3.314-2.196 5.304v54.448c-87.827-18.889-150.669-96.149-150.669-186.98zm26.417 239.933v17.133c0 .275-.225.5-.5.5h-50.266c-.275 0-.5-.225-.5-.5v-17.133c0-.275.225-.5.5-.5h50.267c.275 0 .499.225.499.5zm-11.056-41.686c-3.502 3.002-5.511 7.37-5.511 11.982v14.204h-18.133v-29.444c0-.229.1-.446.274-.595l29.67-25.432c4.306 4.323 8.77 8.462 13.369 12.426zm209.856 58.819c0 .275-.225.5-.5.5h-66.833c-.275 0-.5-.225-.5-.5v-17.133c0-.275.225-.5.5-.5h.283 66.267.283c.275 0 .5.225.5.5zm182.233-17.133v17.133c0 .275-.225.5-.5.5h-50.267c-.275 0-.5-.225-.5-.5v-17.133c0-.275.225-.5.5-.5h50.267c.276 0 .5.225.5.5zm-16.84-45.54c.175.15.274.367.274.596v29.444h-18.134v-14.204c0-4.614-2.009-8.982-5.512-11.983l-19.667-16.857c4.599-3.964 9.062-8.103 13.369-12.426zm27.859-72.84-8.283 14.347c-.217.375-.695.504-1.07.287l-15.114-8.726c3.224-5.126 6.239-10.37 9.057-15.71l15.124 8.732c.373.216.502.696.286 1.07z"/></g></svg>