<?xml version="1.0" encoding="iso-8859-1"?>
<!-- Generator: Adobe Illustrator 19.0.0, SVG Export Plug-In . SVG Version: 6.00 Build 0)  -->
<svg version="1.1" id="Capa_1" xmlns="http://www.w3.org/2000/svg" xmlns:xlink="http://www.w3.org/1999/xlink" x="0px" y="0px"
	 viewBox="0 0 511.995 511.995" style="enable-background:new 0 0 511.995 511.995;" xml:space="preserve">
<g>
	<g>
		<path d="M174.851,65.646l-6.212-48.555C167.04,4.579,154.215-3.135,142.438,1.23c-12.284,4.553-17.121,19.378-9.849,30.301
			l26.605,39.959C164.202,79.012,175.994,74.63,174.851,65.646z M145.169,23.156c-1.213-1.823-0.907-3.594-0.617-4.487
			c1.637-5.044,8.482-4.471,9.097,0.34l2.674,20.9L145.169,23.156z"/>
	</g>
</g>
<g>
	<g>
		<path d="M133.909,88.323l-26.592-39.942c-12.039-18.081-39.894-6.949-36.821,13.619c0.886,5.928,4.371,11.047,9.563,14.042
			c44.36,25.123,42.628,25.628,46.719,25.628C133.507,101.671,137.763,94.105,133.909,88.323z M87.61,62.953
			c-1.613-0.931-2.051-2.395-2.169-3.185c-0.754-5.041,6.356-7.429,9.298-3.01l11.142,16.733L87.61,62.953z"/>
	</g>
</g>
<g>
	<g>
		<path d="M105.945,119.233l-46.652-13.654c-20.205-5.905-34.539,20.011-18.634,34.064c4.587,4.053,10.691,5.793,16.768,4.716
			l47.605-8.44C113.941,134.342,114.628,121.774,105.945,119.233z M54.79,129.478c-3.121,0.554-5.948-1.936-5.782-5.11
			c0.156-3.017,3.083-5.149,6.041-4.285l19.894,5.822L54.79,129.478z"/>
	</g>
</g>
<g>
	<g>
		<path d="M337.488,1.315c-11.917-4.413-24.852,3.398-26.468,16.023l-6.18,48.305c-1.148,8.976,10.642,13.377,15.655,5.846
			l26.746-40.169C354.431,20.523,349.673,5.831,337.488,1.315z M334.663,22.946L323.37,39.907l2.642-20.649
			c0.632-4.935,7.622-5.623,9.245-0.628C335.536,19.489,335.83,21.193,334.663,22.946z"/>
	</g>
</g>
<g>
	<g>
		<path d="M403.316,44.879c-8.513-9.128-23.329-7.931-30.259,2.477l-27.276,40.969c-2.219,3.335-1.857,7.703,0.885,10.627
			c2.739,2.921,7.079,3.563,10.545,1.562l41.355-23.856C409.996,70.063,412.333,54.542,403.316,44.879z M391.015,63.568
			l-17.203,9.924l11.825-17.76c1.492-2.242,4.727-2.582,6.63-0.543C394.65,57.743,394.028,61.83,391.015,63.568z"/>
	</g>
</g>
<g>
	<g>
		<path d="M419.415,105.867l-45.669,13.367c-3.845,1.125-6.377,4.703-6.159,8.704c0.218,4.001,3.127,7.284,7.07,7.981l48.616,8.619
			c5.854,1.037,11.703-0.649,16.087-4.525C454.901,126.283,440.365,99.736,419.415,105.867z M425.914,129.657l-21.164-3.752
			l18.909-5.535c2.239-0.655,3.94,0.22,4.756,0.797C432.882,124.341,430.373,130.441,425.914,129.657z"/>
	</g>
</g>
<g>
	<g>
		<path d="M472.545,369.496l-10.873-14.709l3.098-46.381c1.004-15.035-1.958-30.097-8.567-43.562
			c-1.838-3.746-6.362-5.293-10.112-3.454c-3.746,1.838-5.292,6.365-3.454,10.112c5.442,11.089,7.882,23.502,7.053,35.896
			c-2.764,50.511-4.735,50.201-1.821,54.143l12.521,16.939c4.414,5.968,3.155,14.376-2.817,18.789l-48.784,36.064
			c-3.356,2.481-4.065,7.213-1.585,10.567c1.483,2.006,3.768,3.066,6.083,3.066c1.561,0,3.134-0.482,4.485-1.48l48.784-36.064
			C479.245,400.043,481.927,382.186,472.545,369.496z"/>
	</g>
</g>
<g>
	<g>
		<path d="M435.233,234.682c-2.311-3.952-18.645-18.629-32.922-58.529c-7.319-19.424-17.588-31.589-37.882-24.062
			c-10.682,3.962-17.462,12.312-19.645,23.194l-57.735-78.1c-15.639-21.155-48.043-16.378-56.804,7.661
			c-19.417-18.374-51.657-7.446-54.729,19.555c-27.488-7.99-50.545,20.943-37.762,45.799c-25.479,1.405-39.557,30.858-23.914,52.035
			l7.698,10.422c-25.316,1.79-38.835,31.106-23.401,52.001l19.303,26.132c2.48,3.357,7.21,4.066,10.566,1.589
			c3.357-2.48,4.068-7.211,1.589-10.568l-19.303-26.132c-9.07-12.28,0.214-29.297,15.176-27.922
			c4.48,0.409,8.523,2.473,11.454,5.833c0.006,0.011,0.013,0.021,0.019,0.032c1.649,2.969-5.226-6.586,120.385,163.33
			c12.97,17.545,30.843,30.125,51.686,36.379c7.454,2.238,14.22,7.068,19.051,13.604c4.257,5.757,6.811,10.01,12.859,13.588
			l-18.536,13.691c-2.92,2.158-6.507,3.045-10.096,2.509c-7.91-1.19-10.052-7.703-13.293-11.297
			c-6.755-9.146-16.292-15.931-26.852-19.105c-17.689-5.315-32.857-16.004-43.865-30.905c-1.682-2.278-69.681-94.339-77.734-105.241
			c-2.48-3.357-7.21-4.066-10.566-1.589c-3.357,2.48-4.068,7.211-1.588,10.568c17.019,23.041,61.105,82.729,77.732,105.24
			c12.963,17.55,30.832,30.137,51.672,36.4c15.028,4.517,20.841,16.74,23.426,19.541c9.426,12.761,27.375,15.464,40.145,6.035
			l30.609-22.609c9.285-2.126,12.816-7.162,27.444-17.319c3.356-2.481,4.065-7.213,1.585-10.568
			c-2.481-3.355-7.212-4.063-10.568-1.584c-16.201,11.442-17.414,14.246-23.184,14.982c-4.071,0.514-8.022-0.836-10.827-3.38
			c-4.29-3.873-11.659-20.611-33.068-27.036c-17.704-5.313-32.871-16.001-43.877-30.887
			C141.035,234.222,149.2,246.853,148.111,240.449c-2.982-17.951,20.031-27.769,30.841-13.15l54.822,74.159
			c1.483,2.005,3.767,3.065,6.082,3.065c6.105,0,9.789-7.018,6.07-12.047c-85.119-115.143-80.327-107.864-81.638-112.308
			c-1.107-3.72-1-7.799,0.445-11.502c2.527-6.471,9.176-11.302,17.146-10.751c3.329,0.231,6.303,1.268,8.966,3.197
			c3.938,2.852-0.323-1.426,82.909,110.792c1.483,2.005,3.767,3.065,6.082,3.065c6.105,0,9.789-7.018,6.07-12.047
			c-5.742-7.768,15.437,20.882-79.123-107.034c-14.173-19.171-13.208-17.81-13.858-18.873c-2.14-3.509-2.971-7.647-2.297-11.774
			c2.496-15.299,22.084-19.546,31.326-7.047c10.526,14.239,78.401,106.055,91.781,124.155c1.483,2.005,3.767,3.065,6.082,3.065
			c6.105,0,9.789-7.018,6.07-12.047c-8.097-10.953-70.652-95.573-79.124-107.035c-3.012-4.361-3.961-8.814-3.092-13.466
			c2.797-14.98,22.048-19.109,31.226-6.693l74.333,100.552c5.029,6.805,15.804,1.371,13.294-6.729
			c-1.038-3.348-1.199-4.164-1.456-4.98c-1.665-5.377-5.967-23.343,8.617-28.751c6.939-2.574,11.537-3.229,18.345,14.839
			c7.431,19.981,18.435,43.063,32.227,58.963c1.152,1.331,1.18,1.479,2.947,3.768c2.527,3.32,7.267,3.965,10.59,1.44
			C437.114,242.745,437.759,238.003,435.233,234.682z M135.007,225.457l-9.009-12.198c-5.536-7.494-4.517-17.948,2.319-23.801
			c7.32-6.269,18.082-5.347,24.242,1.63c1.833,3.33,3.333,4.881,10.091,14.158C150.022,206.139,139.403,214.391,135.007,225.457z
			 M155.34,154.997c-1.859,2.355-3.364,4.913-4.479,7.612c-1.41-3.087-1.878-6.521-1.317-9.956
			c2.242-13.705,18.477-18.918,28.755-9.836C177.434,142.88,161.501,147.223,155.34,154.997z"/>
	</g>
</g>
<g>
</g>
<g>
</g>
<g>
</g>
<g>
</g>
<g>
</g>
<g>
</g>
<g>
</g>
<g>
</g>
<g>
</g>
<g>
</g>
<g>
</g>
<g>
</g>
<g>
</g>
<g>
</g>
<g>
</g>
</svg>
