<svg height="512pt" viewBox="-81 0 512 512.12884" width="512pt" xmlns="http://www.w3.org/2000/svg"><path d="m191.824219 29.449219c-8.558594-1.519531-17.375-.289063-25.191407 3.515625-10.085937-6.285156-23.136718-5.027344-31.835937 3.070312l-27.964844 26.183594v-2.28125c0-23.5625-19.101562-42.664062-42.667969-42.664062-14.136718 0-25.597656 11.460937-25.597656 25.597656v83.578125l-20.890625 22.65625c-5.933593 6.40625-9.164062 14.855469-9.027343 23.585937-.167969 29.746094 2.027343 59.464844 6.570312 88.863282.183594.671874.453125 1.316406.800781 1.921874l-13.925781 39.175782c-5.296875 14.582031.035156 30.898437 12.917969 39.542968l4.875 3.3125c-4.976563 14.503907.3125 30.546876 12.933593 39.253907l138.164063 94.71875c2.328125 1.59375 3.714844 4.230469 3.714844 7.046875 0 14.140625 11.460937 25.601562 25.597656 25.601562h124.015625c7.785156.019532 15.152344-3.53125 19.984375-9.632812 4.929687-6.203125 6.71875-14.335938 4.847656-22.035156l-12.457031-46.078126c-4.382812-20.136718-5.671875-40.824218-3.824219-61.347656 7.03125-89.179687-52.753906-153.601562-67.917969-164.796875-27.894531-20.5625-48.699218-42-57.097656-58.820312-12.585937-25.238281-4.101562-42.503907 4.097656-59.195313 6.878907-14.003906 13.996094-28.476562 3.898438-43.65625-5.335938-8.742187-14.011719-14.925781-24.019531-17.117187zm-127.660157 4.890625c14.140626 0 25.601563 11.460937 25.601563 25.597656v18.261719l-34.132813 31.949219v-67.277344c0-2.261719.898438-4.433594 2.5-6.03125 1.597657-1.601563 3.769532-2.5 6.03125-2.5zm-38.449218 138.121094c-.070313-4.363282 1.546875-8.585938 4.511718-11.785157l22.519532-24.464843c.207031-.175782.398437-.359376.582031-.554688l50.109375-46.890625c.484375-.367187.925781-.785156 1.320312-1.246094l41.917969-39.253906c3.339844-3.25 8.664063-3.25 12.003907 0l.582031-.582031c.207031.242187.429687.464844.664062.675781l-.539062.691406c9.269531 10.042969 9.011719 25.59375-.578125 35.328125l-33.5625 32.222656-47.257813 42.5625c-3.070312 3.269532-4.683593 7.640626-4.480469 12.117188-15.878906 2.066406-29.265624 12.851562-34.660156 27.929688l-10.710937 30.125c-1.714844-20.976563-2.261719-44.726563-2.421875-56.875zm64.785156-1.589844 24.660156-22.1875c-.324218 7.40625-.054687 14.828125.8125 22.1875zm-72.355469 137.601562 36.796875-103.542968c3.683594-10.234376 13.414063-17.042969 24.292969-16.992188h73.226563c1.769531.011719 3.496093.566406 4.9375 1.589844l44.171874 31.300781c1.726563 1.195313 2.773438 3.152344 2.804688 5.253906.015625 1.199219-.296875 2.378907-.902344 3.414063-.300781.496094-.691406.988281-1.050781 1.476562l-13.859375-9.914062c-7.210938-5.179688-15.867188-7.960938-24.746094-7.953125h-67.15625c-18.066406.027343-34.15625 11.433593-40.167968 28.472656l-30.71875 87.296875-1.109376-.75c-6.453124-4.257812-9.148437-12.382812-6.519531-19.652344zm178.519531-225.664062c-8.621093 17.527344-20.414062 41.539062-4.046874 74.34375 13.082031 26.222656 44.605468 51.941406 62.234374 64.917968 11.332032 8.339844 67.480469 67.902344 61.03125 149.726563-1.992187 22.359375-.554687 44.894531 4.265626 66.816406l12.457031 46.082031c.582031 2.527344-.019531 5.183594-1.632813 7.21875-1.613281 2.03125-4.066406 3.21875-6.660156 3.226563h-124.058594c-4.710937 0-8.53125-3.824219-8.53125-8.535156.011719-8.441407-4.140625-16.34375-11.09375-21.128907l-138.15625-94.71875c-6.367187-4.382812-9.007812-12.488281-6.441406-19.78125l36.546875-103.765624c3.609375-10.203126 13.242187-17.035157 24.066406-17.066407h67.15625c5.324219-.003906 10.515625 1.664063 14.839844 4.769531l39.398437 28.203126c2.769532 2.015624 3.542969 5.804687 1.792969 8.746093-3.578125 6-9.460937 10.261719-16.269531 11.800781-6.8125 1.535157-13.957031.207032-19.761719-3.675781l-17.066406-11.390625c-4.195313-2.824218-9.140625-4.328125-14.199219-4.320312h-26.28125c-11.109375-.066406-20.972656 7.101562-24.335937 17.691406-.503907 1.59375-1.222657 3.574219-2.03125 5.800781-6.144531 16.980469-20.480469 56.714844 12.046875 69.761719 2.855468 1.269531 6.175781.875 8.65625-1.023438 2.480468-1.898437 3.722656-5 3.242187-8.085937-.480469-3.089844-2.609375-5.664063-5.546875-6.722656-14.3125-5.742188-11.292968-23.398438-2.347656-48.117188.902344-2.492187 1.707031-4.683593 2.253906-6.460937 1.136719-3.480469 4.402344-5.820313 8.0625-5.777344h26.273438c1.675781 0 3.3125.5 4.703125 1.433594l17.066406 11.402344c9.695313 6.472656 21.621094 8.6875 32.992187 6.125 11.371094-2.5625 21.195313-9.679688 27.175782-19.683594 6.257812-10.578125 3.429687-24.183594-6.527344-31.386719l-11.664062-8.390625c.621093-.851562 1.296874-1.703125 1.824218-2.558594 6.335938-10.570312 3.4375-24.234375-6.636718-31.324218l-44.160157-31.351563c-4.339843-3.070313-9.523437-4.726563-14.839843-4.738281h-19.296876c-1.773437-13.214844-1.34375-26.636719 1.265626-39.714844l36.359374-34.574219c13.144532-13.207031 16.199219-33.417969 7.542969-49.921875 9.046875-2.847656 18.835938 1.128906 23.339844 9.472656 4.230469 6.367188 1.859375 12.699219-5.007813 26.675782zm0 0"/><path d="m160.386719 358.605469c-2.894531-.964844-6.085938-.3125-8.371094 1.710937-2.285156 2.023438-3.316406 5.113282-2.707031 8.105469.613281 2.992187 2.773437 5.429687 5.667968 6.398437 19.695313 6.601563 70.828126 30.285157 70.828126 60.167969 0 4.710938 3.820312 8.53125 8.53125 8.53125 4.714843 0 8.535156-3.820312 8.535156-8.53125-.027344-48.308593-79.113282-75.28125-82.484375-76.382812zm0 0"/><path d="m218.03125 327.375c-1.847656-2.429688-4.847656-3.6875-7.871094-3.300781-3.027344.386719-5.617187 2.355469-6.792968 5.167969-1.179688 2.8125-.769532 6.039062 1.078124 8.464843 13.019532 17.066407 34.679688 37.496094 63.921876 37.496094 4.714843 0 8.535156-3.820313 8.535156-8.535156 0-4.710938-3.820313-8.53125-8.535156-8.53125-22.253907 0-39.628907-16.734375-50.335938-30.761719zm0 0"/><path d="m223.867188 2.859375-8.132813 8.535156c-2.222656 2.183594-3.078125 5.40625-2.230469 8.402344.847656 3 3.265625 5.300781 6.300782 5.996094 3.039062.699219 6.214843-.3125 8.285156-2.640625l8.132812-8.535156c2.222656-2.183594 3.078125-5.40625 2.230469-8.40625-.847656-2.996094-3.265625-5.296876-6.300781-5.992188-3.039063-.699219-6.214844.3125-8.285156 2.640625zm0 0"/><path d="m264.261719 41.164062c-.609375-2.179687-2.0625-4.027343-4.039063-5.136718-1.972656-1.109375-4.308594-1.390625-6.488281-.777344l-11.09375 3.125c-4.140625 1.125-6.804687 5.148438-6.21875 9.402344.585937 4.25 4.238281 7.402344 8.53125 7.367187.785156 0 1.566406-.109375 2.320313-.324219l11.09375-3.117187c2.179687-.613281 4.027343-2.070313 5.132812-4.046875s1.378906-4.3125.761719-6.492188zm0 0"/><path d="m240.488281 75.871094c-4.539062-1.273438-9.25 1.371094-10.523437 5.910156-1.277344 4.539062 1.371094 9.25 5.90625 10.523438l11.09375 3.125c.757812.210937 1.539062.320312 2.324218.316406 4.261719-.003906 7.871094-3.152344 8.449219-7.375.578125-4.226563-2.050781-8.226563-6.15625-9.378906zm0 0"/></svg>