<?xml version="1.0"?>
<svg xmlns="http://www.w3.org/2000/svg" viewBox="0 0 64 64" width="512" height="512"><g id="Hi_hat" data-name="Hi hat"><path d="M62,31H33V29H62a1,1,0,0,0,.707-1.707l-3-3A1,1,0,0,0,59,24H40.835c-.6-1.788-2.813-3.177-5.835-3.733V15a1,1,0,0,0-1-1H33V11a1,1,0,0,0-2,0v3H30a1,1,0,0,0-1,1v5.267c-3.022.556-5.233,1.945-5.835,3.733H5a1,1,0,0,0-.707.293l-3,3A1,1,0,0,0,2,29H31v2H2a1,1,0,0,0-.707,1.707l3,3A1,1,0,0,0,5,36H26v3a1,1,0,0,0,1,1h2V56a1,1,0,0,0,1,1h4a1,1,0,0,0,1-1V40h2a1,1,0,0,0,1-1V36H59a1,1,0,0,0,.707-.293l3-3A1,1,0,0,0,62,31ZM31,20V16h2v4ZM4.414,27l1-1H24a1,1,0,0,0,1-1c0-1.416,2.993-3,7-3s7,1.584,7,3a1,1,0,0,0,1,1H58.586l1,1ZM33,55H31V40h2Zm3-17H28V36h8Zm22.586-4H5.414l-1-1H59.586Z"/><path d="M31,24H27a1,1,0,0,0,0,2h4a1,1,0,0,0,0-2Z"/><path d="M35,24H34a1,1,0,0,0,0,2h1a1,1,0,0,0,0-2Z"/><path d="M32,9a1,1,0,0,0,1-1V7a1,1,0,0,0-2,0V8A1,1,0,0,0,32,9Z"/></g></svg>
