<svg id="Layer_1" enable-background="new 0 0 512 512" height="512" viewBox="0 0 512 512" width="512" xmlns="http://www.w3.org/2000/svg"><g><path d="m444.89 125.304h.003c3.505 0 6.543-2.421 7.32-5.832.778-3.413-.912-6.91-4.073-8.423-37.623-18.016-78.276-35.62-125.895-36.804-8.16-18.262-23.5-32.127-41.906-38.713v-11.231c0-13.399-10.919-24.301-24.339-24.301s-24.338 10.902-24.338 24.301v11.209c-18.435 6.577-33.803 20.454-41.971 38.738-47.532 1.234-89.642 19.49-125.555 36.639-3.162 1.51-4.857 5.005-4.082 8.418.775 3.414 3.812 5.839 7.319 5.84l89.043.036h.003c4.145 0 7.506-3.355 7.508-7.493.002-4.139-3.358-7.497-7.505-7.499l-54.185-.022c28.087-11.607 59.155-20.993 92.544-20.993 3.163 0 5.988-1.979 7.062-4.951 8.204-22.687 29.955-37.931 54.125-37.931s45.922 15.243 54.125 37.931c1.074 2.971 3.898 4.951 7.062 4.951 33.888 0 64.479 9.218 93.011 21.123l-218.503-.1h-.004c-4.145 0-7.506 3.354-7.508 7.493s3.358 7.497 7.504 7.499l56.971.026v14.631l-181.381-.076h-.003c-3.505 0-6.543 2.421-7.32 5.832-.778 3.413.913 6.91 4.073 8.423 37.623 18.016 78.276 35.62 125.895 36.804 8.14 18.218 23.426 32.06 41.772 38.665v138.338c-11.871 7.916-19.706 21.415-19.706 36.707 0 6.488 1.41 12.653 3.941 18.206l-57.715 77.177c-2.48 3.318-1.799 8.014 1.524 10.492 1.348 1.004 2.924 1.489 4.486 1.489 2.288 0 4.548-1.04 6.022-3.011l54.712-73.162c6.317 6.301 14.53 10.706 23.7 12.28v56.492c0 4.14 3.361 7.496 7.508 7.496s7.508-3.356 7.508-7.496v-56.492c9.172-1.574 17.386-5.981 23.703-12.283l54.757 73.166c1.474 1.971 3.732 3.009 6.02 3.009 1.563 0 3.14-.485 4.488-1.491 3.322-2.478 4.002-7.175 1.52-10.492l-57.758-77.176c2.53-5.553 3.94-11.717 3.94-18.205 0-15.407-7.952-28.994-19.973-36.885v-29.894c0-4.14-3.361-7.496-7.508-7.496s-7.508 3.356-7.508 7.496v23.629c-2.965-.629-6.039-.96-9.189-.96-3.245 0-6.409.351-9.457 1.018v-128.298c3.119.413 6.287.626 9.489.626 3.088 0 6.146-.198 9.157-.582v69.611c0 4.14 3.361 7.496 7.508 7.496s7.508-3.356 7.508-7.496v-73.19c18.495-6.557 33.917-20.458 42.105-38.786 47.538-1.232 89.641-19.49 125.555-36.64 3.162-1.51 4.857-5.005 4.082-8.418-.775-3.414-3.812-5.838-7.319-5.84l-181.12-.076v-14.631zm-198.212-93.405v-7.599c0-5.133 4.182-9.309 9.323-9.309s9.323 4.176 9.323 9.309v7.607c-3.075-.401-6.199-.608-9.355-.608-3.135.001-6.237.205-9.291.6zm38.619 372.641c0 16.055-13.083 29.118-29.163 29.118s-29.162-13.063-29.162-29.118 13.083-29.118 29.162-29.118c16.08 0 29.163 13.063 29.163 29.118zm32.057-228.639c-3.163 0-5.988 1.979-7.062 4.951-8.204 22.687-29.955 37.931-54.125 37.931s-45.922-15.243-54.125-37.931c-1.074-2.971-3.898-4.951-7.062-4.951-33.888 0-64.482-9.219-93.014-21.124l307.936.129c-28.088 11.608-59.157 20.995-92.548 20.995z"/><path d="m464.237 78.533c-26.711-12.79-58.164-27.076-93.469-34.708-4.059-.877-8.049 1.694-8.926 5.74-.878 4.046 1.696 8.037 5.749 8.912 33.714 7.288 64.213 21.151 90.153 33.573 1.047.502 2.153.739 3.242.739 2.798 0 5.483-1.569 6.774-4.257 1.793-3.731.216-8.209-3.523-9.999z"/><path d="m171.929 226.98c3.82 0 7.088-2.9 7.464-6.775.4-4.121-2.622-7.785-6.749-8.183-45.131-4.363-83.231-21.164-118.387-37.999-3.737-1.791-8.222-.216-10.016 3.518-1.793 3.732-.216 8.211 3.523 10.001 36.37 17.416 75.858 34.804 123.433 39.402.246.024.489.036.732.036z"/></g></svg>