<svg height="512pt" viewBox="-4 0 512 512" width="512pt" xmlns="http://www.w3.org/2000/svg"><path d="m503.269531 207.929688c1.535157-3.101563 1.355469-6.773438-.46875-9.710938s-5.035156-4.722656-8.496093-4.722656h-56.898438c-5.523438 0-10 4.480468-10 10 0 5.523437 4.476562 10 10 10h36.417969c-23.5 21.152344-73.644531 39.015625-136.027344 47.546875-.007813 0-.015625 0-.023437 0-20.667969 2.828125-42.09375 4.625-63.683594 5.347656-5.519532.1875-9.84375 4.8125-9.65625 10.332031.183594 5.519532 4.84375 9.859375 10.328125 9.65625 15.636719-.523437 31.199219-1.59375 46.46875-3.195312-4.285157 5.003906-9.96875 9.824218-16.640625 14.011718-15.230469 9.542969-33.851563 14.800782-52.4375 14.800782-18.582032 0-37.203125-5.253906-52.429688-14.800782-13.140625-8.238281-22.425781-18.949218-24.835937-28.652343-.984375-3.972657-4.292969-6.941407-8.351563-7.496094-62.394531-8.527344-112.550781-26.394531-136.054687-47.550781h327.957031c5.523438 0 10-4.476563 10-10 0-5.519532-4.476562-10-10-10h-96.285156v-11.5h232.152344c3.457031 0 6.671874-1.785156 8.496093-4.722656s2-6.609376.46875-9.707032c-16.421875-33.210937-74.761719-59.976562-156.644531-72.058594-5.25-12.554687-16.367188-24.71875-31.414062-34.152343-11.582032-7.257813-24.761719-12.457031-38.507813-15.3125.933594-2.679688 1.449219-5.550781 1.449219-8.546875v-11.496094c0-14.335938-11.660156-26-26-26-14.335938 0-26 11.664062-26 26v11.496094c0 2.992187.515625 5.867187 1.453125 8.546875-13.746094 2.855469-26.929688 8.054687-38.507813 15.3125-15.050781 9.433593-26.164062 21.597656-31.414062 34.148437-81.886719 12.085938-140.226563 38.851563-156.648438 72.0625-1.53125 3.097656-1.351562 6.769532.472656 9.707032 1.824219 2.9375 5.035157 4.722656 8.492188 4.722656h44.902344c5.519531 0 10-4.476563 10-10 0-5.519532-4.480469-10-10-10h-24.417969c23.503906-21.152344 73.652344-39.019532 136.050781-47.546875 4.054688-.554688 7.363282-3.523438 8.347656-7.5 2.410157-9.699219 11.695313-20.410157 24.835938-28.648438 15.230469-9.546875 33.851562-14.804687 52.4375-14.804687 18.582031 0 37.203125 5.257812 52.433594 14.804687 13.140625 8.238281 22.425781 18.949219 24.835937 28.648438.984375 3.976562 4.292969 6.945312 8.347657 7.5 62.398437 8.527343 112.546874 26.394531 136.050781 47.546875h-339.957031c-5.519532 0-10 4.480468-10 10 0 5.523437 4.480468 10 10 10h108.285156v11.5h-232.152344c-3.457031 0-6.671875 1.785156-8.492188 4.722656-1.828124 2.941406-2.003906 6.609375-.472656 9.710938 16.421875 33.210937 74.765625 59.976562 156.652344 72.058593 5.25 12.550781 16.363281 24.71875 31.410156 34.148438 11.578125 7.261719 24.761719 12.460937 38.503906 15.316406-.933593 2.675781-1.449218 5.550781-1.449218 8.546875v10h-.5c-5.523438 0-10 4.476562-10 10 0 5.519531 4.476562 10 10 10h.5v10h-.5c-5.523438 0-10 4.476562-10 10 0 5.519531 4.476562 10 10 10h.5v10h-.5c-5.523438 0-10 4.476562-10 10s4.476562 10 10 10h.5v58c0 14.335938 11.664062 26 26 26 14.335937 0 26-11.664062 26-26v-58h.5c5.523437 0 10-4.476562 10-10s-4.476563-10-10-10h-.5v-10h.5c5.523437 0 10-4.480469 10-10 0-5.523438-4.476563-10-10-10h-.5v-10h.5c5.523437 0 10-4.480469 10-10 0-5.523438-4.476563-10-10-10h-.5v-10.003906c0-2.992188-.515625-5.867188-1.449219-8.546875 13.746094-2.855469 26.925781-8.050781 38.507813-15.3125 15.046874-9.433594 26.164062-21.597657 31.410156-34.148438 81.886718-12.085937 140.230468-38.847656 156.648437-72.058593zm-257.117187-170.433594v-11.496094c0-3.253906 2.75-6 6-6 3.253906 0 6 2.746094 6 6v11.496094c0 3.253906-2.746094 6-6 6-3.25 0-6-2.746094-6-6zm12 448.503906c0 3.253906-2.746094 6-6 6-3.25 0-6-2.746094-6-6v-58h12zm0-78h-12v-10h12zm0-30h-12v-10h12zm0-40.003906v10.003906h-12v-10.003906c0-3.25 2.75-6 6-6 3.253906 0 6 2.75 6 6zm0 0"/><path d="m407.847656 193.496094c-5.523437 0-10 4.480468-10 10 0 5.523437 4.476563 10 10 10h.472656c5.523438 0 10-4.476563 10-10 0-5.519532-4.476562-10-10-10zm0 0"/><path d="m84.460938 181.996094c5.519531 0 10-4.476563 10-10 0-5.519532-4.480469-10-10-10h-.476563c-5.523437 0-10 4.480468-10 10 0 5.523437 4.476563 10 10 10zm0 0"/><path d="m10 91.328125c5.523438 0 10-4.476563 10-10 0-33.816406 27.511719-61.328125 61.332031-61.328125 5.519531 0 10-4.476562 10-10s-4.480469-10-10-10c-44.847656 0-81.332031 36.484375-81.332031 81.328125 0 5.523437 4.476562 10 10 10zm0 0"/><path d="m81.332031 35.664062c-25.183593 0-45.667969 20.484376-45.667969 45.664063 0 5.523437 4.480469 10 10 10 5.523438 0 10-4.476563 10-10 0-14.148437 11.515626-25.664063 25.667969-25.664063 5.519531 0 10-4.476562 10-10 0-5.519531-4.476562-10-10-10zm0 0"/><path d="m494.304688 285.132812c-5.519532 0-10 4.480469-10 10 0 33.816407-27.511719 61.332032-61.328126 61.332032-5.523437 0-10 4.476562-10 10 0 5.519531 4.476563 10 10 10 44.84375 0 81.328126-36.484375 81.328126-81.332032 0-5.523437-4.476563-10-10-10zm0 0"/><path d="m448.640625 295.132812c0 14.152344-11.511719 25.664063-25.664063 25.664063-5.523437 0-10 4.480469-10 10 0 5.523437 4.476563 10 10 10 25.179688 0 45.664063-20.484375 45.664063-45.664063 0-5.519531-4.476563-10-10-10s-10 4.476563-10 10zm0 0"/></svg>