<?xml version="1.0"?>
<svg xmlns="http://www.w3.org/2000/svg" viewBox="0 0 64 64" width="512" height="512"><g id="Snare_drum" data-name="Snare drum"><path d="M62,28H59V26a1,1,0,0,0-1-1H6a1,1,0,0,0-1,1v2H2a1,1,0,0,0-1,1v4a1,1,0,0,0,1,1H4V48H2a1,1,0,0,0-1,1v4a1,1,0,0,0,1,1H5v2a1,1,0,0,0,1,1H58a1,1,0,0,0,1-1V54h3a1,1,0,0,0,1-1V49a1,1,0,0,0-1-1H60V34h2a1,1,0,0,0,1-1V29A1,1,0,0,0,62,28ZM7,27H57v1H7ZM6,34h8v4H13a1,1,0,0,0-1,1v4a1,1,0,0,0,1,1h1v4H6Zm42,8V40h2v2Zm0-4H47a1,1,0,0,0-1,1v4a1,1,0,0,0,1,1h1v4H33V44h1a1,1,0,0,0,1-1V39a1,1,0,0,0-1-1H33V34H48ZM33,40v2H31V40Zm-2-2H30a1,1,0,0,0-1,1v4a1,1,0,0,0,1,1h1v4H16V44h1a1,1,0,0,0,1-1V39a1,1,0,0,0-1-1H16V34H31ZM16,40v2H14V40ZM57,55H7V54H57Zm4-3H3V50H61Zm-3-4H50V44h1a1,1,0,0,0,1-1V39a1,1,0,0,0-1-1H50V34h8Zm3-16H3V30H61Z"/><path d="M8,36a1,1,0,0,0-1,1v5a1,1,0,0,0,2,0V37A1,1,0,0,0,8,36Z"/><path d="M8,44a1,1,0,0,0-1,1v1a1,1,0,0,0,2,0V45A1,1,0,0,0,8,44Z"/><path d="M4,15H45.03a.837.837,0,0,0,.1-.005l8.63-.869A5.341,5.341,0,0,0,58,16c2.8,0,5-1.757,5-4s-2.2-4-5-4a5.341,5.341,0,0,0-4.24,1.874l-8.63-.869A.837.837,0,0,0,45.03,9H4a3,3,0,0,0,0,6Zm0-4H44.98l9.19.925a1,1,0,0,0,.993-.545A3.146,3.146,0,0,1,58,10c1.626,0,3,.916,3,2s-1.374,2-3,2a3.146,3.146,0,0,1-2.837-1.38,1,1,0,0,0-.892-.55.854.854,0,0,0-.1,0L44.98,13H4a1,1,0,0,1,0-2Z"/><path d="M60,17H18.97a.837.837,0,0,0-.1,0l-8.63.869A5.341,5.341,0,0,0,6,16c-2.8,0-5,1.757-5,4s2.2,4,5,4a5.341,5.341,0,0,0,4.24-1.874L18.87,23a.837.837,0,0,0,.1,0H60a3,3,0,0,0,0-6Zm0,4H19.021L9.83,20.075a1.006,1.006,0,0,0-.993.545A3.146,3.146,0,0,1,6,22c-1.626,0-3-.916-3-2s1.374-2,3-2a3.146,3.146,0,0,1,2.837,1.38,1.009,1.009,0,0,0,.993.545L19.021,19H60a1,1,0,0,1,0,2Z"/></g></svg>
