<?xml version="1.0"?>
<svg xmlns="http://www.w3.org/2000/svg" viewBox="0 0 64 64" width="512" height="512"><g id="Snare_drum" data-name="Snare drum"><path d="M62,22a1,1,0,0,0,1-1V17a1,1,0,0,0-1-1H59V14a1,1,0,0,0-1-1H6a1,1,0,0,0-1,1v2H2a1,1,0,0,0-1,1v4a1,1,0,0,0,1,1H4V42H2a1,1,0,0,0-1,1v4a1,1,0,0,0,1,1H5v2a1,1,0,0,0,1,1H58a1,1,0,0,0,1-1V48h3a1,1,0,0,0,1-1V43a1,1,0,0,0-1-1H60V22ZM7,15H57v1H7ZM3,18H61v2H3ZM48,36V28h2v8Zm0-10H47a1,1,0,0,0-1,1V37a1,1,0,0,0,1,1h1v4H33V38h1a1,1,0,0,0,1-1V27a1,1,0,0,0-1-1H33V22H48ZM16,28v8H14V28Zm0,10h1a1,1,0,0,0,1-1V27a1,1,0,0,0-1-1H16V22H31v4H30a1,1,0,0,0-1,1V37a1,1,0,0,0,1,1h1v4H16Zm15-2V28h2v8ZM6,22h8v4H13a1,1,0,0,0-1,1V37a1,1,0,0,0,1,1h1v4H6ZM57,49H7V48H57Zm4-3H3V44H61Zm-3-4H50V38h1a1,1,0,0,0,1-1V27a1,1,0,0,0-1-1H50V22h8Z"/><path d="M8,23a1,1,0,0,0-1,1v5a1,1,0,0,0,2,0V24A1,1,0,0,0,8,23Z"/><path d="M8,31a1,1,0,0,0-1,1v1a1,1,0,0,0,2,0V32A1,1,0,0,0,8,31Z"/></g></svg>
